<mxfile host="app.diagrams.net" modified="2024-06-06T14:25:20.793Z" agent="Mozilla/5.0 (Macintosh; Intel Mac OS X 10_15_7) AppleWebKit/537.36 (KHTML, like Gecko) Chrome/124.0.0.0 Safari/537.36" etag="7kpKkPa_FKM8VYuAi_Wl" version="24.4.15" type="google">
  <diagram name="Page-1" id="2YBvvXClWsGukQMizWep">
    <mxGraphModel grid="1" page="1" gridSize="10" guides="1" tooltips="1" connect="1" arrows="1" fold="1" pageScale="1" pageWidth="850" pageHeight="1100" math="0" shadow="0">
      <root>
        <mxCell id="0" />
        <mxCell id="1" parent="0" />
        <mxCell id="-Ao8_G_ALoGGiXNhmZjc-1" value="" style="shape=image;verticalLabelPosition=bottom;labelBackgroundColor=default;verticalAlign=top;aspect=fixed;imageAspect=0;image=data:image/png,iVBORw0KGgoAAAANSUhEUgAAAi0AAAFBCAYAAAC7N5/OAAAYQmlDQ1BJQ0MgUHJvZmlsZQAAWIWVWQk4Vd3X3+fcmWue53me53meQ+aZcl3zFNeYaKBXhSZJMkTIVIjKFIoGKZGoKBVJiIqUZPwOqvf9v//n+b7n28+zz/ndtddee+211h7WuQBwKZMiIkJhegDCwqMp9maG/K5u7vy4SQABDGACWkCLRI6KMLC1tQJI+f3+z7L4HOFGyoDMpqz/bv9fC4OvXxQZAMgWwT6+UeQwBF8HAK1KjqBEA4CZRehCcdERCMYiWgJmCqIggoU3ccA2Vt/EPtvYaovH0d4Iwd4A4IkkEiUAANpNvfhjyQGIHNoMpI0x3DcoHGEtQrAuOZDkCwDnKMIjHRa2B8FcRASL+/xDTsB/yPT5I5NECviDt+eyVfDGQVERoaS9/09z/N8lLDTm9xhCSCUGUsztN+e8abeQPZabGNEdehDus9MGwYwIHgzy3eLfxB8CY8ydfvEvkaOMEJsBVgBgoi/J2BLB3AgWDA/dafWLrusfZGqBYMT2sGNQtIXjdl/Yl7LH/pd8ON4vysThNyZRtsba5EmLCXEy+CXzQqCfxW+ZLQmBji7besJPYoOcdyKYFsEjUSEOlr94PiYEGu38zUOJsd/UGfE5CvhTTO23eVDCYVG/54XSDAyy2PkLW0UHOppv90XtIpO2dGNHcLBflKvVbz19/YxNtueFSvYLd/qlPyozItrQ/hd/aUSo7S9+VKtfqNkmXRDBvVGxDr/7zkUjwbY9XzSIiLZ13NYNzRxM2mG7rQNaElgBI2AM+EEMUn3AHhAMgnpnG2eRX9stpoAEKCAA+AGZX5TfPVy2WsKRpwNIAJ8Q5Aei/vQz3Gr1A7EIfe0PdfspA/y3WmO3eoSADwgOA5YgFPkds9Ur/M9ozuA9Qgn6r9HJiK6hSN1s+y8aP91vGtYEa4w1x5piJdCcaF20FtoKeeojVRGtjtb4rdff/JgPmH7MO8wzzChmeHdQMuVfmvMDazCK6Gj6a3Y+/5wdWhSRqoI2ROsg8hHZaFY0J5BBKyMjGaD1kLFVEOo/dY35M+O/bflLFkGeABPYCPoE8X9rQCtJq/JHyqal/mmLbb18/ljL6E/Lv+dh9A/7+SJvy39zoo6irqG6UB2oblQrqhHwo26hmlA9qLZN/Cc23m/Fxu/R7Lf0CUHkBP3XeKRfY25aLUr+svy0/OqvNhDtFx+9uViM9kTspQQFBEbzGyC7tR+/RThZVppfUV5RCYDNvX97a1mw39rTIda+v2k+CgCoryFbW8/ftLBVAGoOA8B772+aaCWyfPYDcDmfHEOJ3aahNx8YQAXokJXCAXiRvUscmZEiUEXOGH1gAnYAG+AI3MAuxM6BSJxSQBxIBIdAKkgHp8BZkAsKQQmoANWgHjSCVtAB7oNH4Al4Bl4hsTIBZsAcWAQrEAThIBqICeKA+CARSApShNQhXcgEsoLsITfIGwqAwqEYKBFKgdKhTCgXughVQnVQM9QBdUP90DA0Bk1DX6FlGAUTYWaYBxaF5WB12AC2hB1hLzgAjoQT4MPwCTgHLoavwA1wB/wIfgaPwjPwdxRAUaNYUQIoGZQ6yghlg3JH+aMoqP2oNFQ2qhhVg2pBPD2AGkXNon6isWgmND9aBolXc7QTmoyORO9HZ6Bz0RXoBvRd9AB6DD2HXsfQYLgxUhhNjAXGFROAicOkYrIxZZgbmHvI2pnALGKxWFasGFYNWXtu2GDsPmwGtgBbi72N7ceOY7/jcDgOnBROB2eDI+Gicam487gruFu4p7gJ3BKeGs+HV8Sb4t3x4fhkfDa+Ct+Of4qfxK8Q6AkiBE2CDcGXsJdwklBKaCH0ESYIK1QMVGJUOlSOVMFUh6hyqGqo7lGNUC1QU1MLUmtQ21EHUR+kzqG+Sv2Aeoz6J5GRKEk0InoSY4gniOXE28Rh4gINDY0ojT6NO000zQmaSpo7NG9olmiZaGVpLWh9aQ/Q5tE20D6l/UxHoBOhM6DbRZdAl013ja6PbpaeQC9Kb0RPot9Pn0ffTP+C/jsDE4MCgw1DGEMGQxVDN8MUI45RlNGE0ZfxMGMJ4x3GcSYUkxCTEROZKYWplOke0wQzllmM2YI5mDmduZq5l3mOhZFFmcWZJZ4lj6WNZZQVxSrKasEaynqStZ71OesyGw+bAZsf2zG2GranbD/Yudj12f3Y09hr2Z+xL3Pwc5hwhHCc5mjkeM2J5pTktOOM47zAeY9zlouZS4uLzJXGVc/1khvmluS2597HXcLdw/2dh5fHjCeC5zzPHZ5ZXlZefd5g3izedt5pPiY+Xb4gviy+W3wf+Vn4DfhD+XP47/LPCXALmAvECFwU6BVYERQTdBJMFqwVfC1EJaQu5C+UJdQpNCfMJ2wtnCh8WfilCEFEXSRQ5JxIl8gPUTFRF9Ejoo2iU2LsYhZiCWKXxUbEacT1xCPFi8UHJbAS6hIhEgUSTyRhSRXJQMk8yT4pWEpVKkiqQKpfGiOtIR0uXSz9QoYoYyATK3NZZkyWVdZKNlm2UfaznLCcu9xpuS65dXkV+VD5UvlXCowKOxSSFVoUvipKKpIV8xQHlWiUTJUOKDUpzStLKfspX1AeUmFSsVY5otKpsqaqpkpRrVGdVhNW81bLV3uhzqxuq56h/kADo2GocUCjVeOnpqpmtGa95hctGa0QrSqtKW0xbT/tUu1xHUEdks5FnVFdfl1v3SLdUT0BPZJesd47fSF9X/0y/UkDCYNggysGnw3lDSmGNwx/GGkaJRndNkYZmxmnGfeaMJo4meSavDEVNA0wvWw6Z6Zits/stjnG3NL8tPkLCx4LskWlxdwOtR1JO+5aEi0dLHMt31lJWlGsWqxh6x3WZ6xHdorsDN/ZaANsLGzO2Ly2FbONtL1ph7Wztcuz+2CvYJ9o3+XA5LDbocph0dHQ8aTjKydxpxinTmc6Z0/nSucfLsYumS6jrnKuSa6P3Djdgtya3HHuzu5l7t89TDzOekx4qnimej73EvOK9+rexbkrdFfbbrrdpN3XvDHeLt5V3qskG1Ix6buPhU++zxzZiHyOPOOr75vlO+2n45fpN+mv45/pPxWgE3AmYDpQLzA7cDbIKCg3aD7YPLgw+EeITUh5yEaoS2htGD7MO6w5nDE8JPzuHt498Xv6I6QiUiNGIzUjz0bOUSwpZVFQlFdUUzQzcsnuiRGP+StmLFY3Ni92Kc457lo8Q3x4fM9eyb3H9k4mmCZc2ofeR97XmSiQeChxLMkg6eJ+aL/P/s4DQgcOH5g4aHaw4hDVoZBDj5PlkzOTv6W4pLQc5jl88PD4X2Z/XU6lTaWkvjiidaTwKPpo0NHeY0rHzh9bT/NNe5gun56dvppBznh4XOF4zvGNE/4nek+qnrxwCnsq/NTz03qnKzIZMhMyx89Yn2nI4s9Ky/p2dvfZ7mzl7MJzVOdizo3mWOU0nRc+f+r8am5g7rM8w7zafO78Y/k/CnwLnl7Qv1BTyFOYXrhcFFQ0dNHsYkOxaHF2CbYktuRDqXNp1yX1S5VlnGXpZWvl4eWjFfYVdyvVKiuruKtOXoYvx1yevuJ55Um1cXVTjUzNxVrW2vSr4GrM1Y913nXP6y3rO6+pX6u5LnI9/wbTjbQGqGFvw1xjYONok1tTf/OO5s4WrZYbN2VvlrcKtOa1sbSdbKdqP9y+cSvh1vfbEbdnOwI6xjt3d76643pn8K7d3d57lvce3De9f6fLoOvWA50Hrd2a3c0P1R82PlJ91NCj0nPjscrjG72qvQ19an1NTzSetPRr97c/1XvaMWA8cH/QYvDRs53P+p87PR964flidMh3aGo4dHj+ZezLlVcHRzAjaa/pX2e/4X5T/Fbibe2o6mjbmPFYzzuHd6/GyeMz76Per04c/kDzIXuSb7JySnGqddp0+slHj48TMxEzK7Opnxg+5X8W/3z9i/6XnjnXuYl5yvzG14wFjoXyb8rfOr/bfn+zGLa48iNtiWOp4qf6z65ll+XJlbhV3GrOmsRay7rl+shG2MZGBIlC2roKoJAK+/sD8LUcABo3AJieAEDlsZ2b/Soo5PIBI29nSBaagQ+jFFFT6CIMCTnr5nBN+AxCAJUeNTORnoaRlp6OmZ6bQYBRikmT2ZrFhzWe7Qx7DUcP5xTXd+41XjwfO7+IgLygrpCNsLdIlOhRsQLxeonHUhhpkky7HL/8PoVBJUnlOJVONay6kUa0ZolWj/YXXSo9Bn0WA3ZDDiNOYzYTZlM6M7zZhvk3i5kdby0HrO5bN+6ssMm1PW6XYp/gEO0Y6RTlHOey3/WoW5Z7sUe1Z41X1a6y3SXeF0mFPkXki76lfpX+tQHNgXeC+oLfhMyHYcM590hFaEaaU5yidkX7xYTGRsbFxu/dm5RwcF9BYkvSwP6PB9YP0SZzpYgelv1LJVXziO5Rw2NmaXbplIz8490nlk5JnPbMPH6mPWs2m/WcVo7n+fjcU3kl+Q0FDy+8Lpy/iC5mLREv1bhkUeZaHlARU5lcdeJy3pVL1XU1t2r7ro7WLVzDXue6Id9g0ujWFNZ8sCXz5sXW423R7W63dG7zdYCOd5137pTdTb9Hue/VteOBZjdv98zD0kcuPdie2seOj5d6c/v0+iaenOk36V99enMgedDmGd+zz8/bXqQNOQ3zDU+9rH4VOaI08u11/ZuIt4pv10Z7xwrfRYzrv2d4/26i7sOhSdspvqlP0zc/HptxnOWYHf507rP7F6EvP+cm5+cXJL6dXJRaolu2W53d2NjyvxB0FbaC51DZaFP0d0w51gcnjJvC1xCiqQyoRYgMxGWaGdpXdE/o7zG0MzYyNTG3srSxdrB1s/dzdHG2cTVw1/Fc5q3gK+O/IHBG8JRQiXCXyGcxVnF9iVDJXKkH0ouyonIO8vsVqhT7lRZV2FXV1WzUSRrBmmQtN21rHQNdZT0RfWYD2OCL4Suj+8ZXTXJND5uFmttbqO7gsgSWk1a91jd2Ftocs421I9vbOxg6KjoJO7O64F1WXD+5vXXv97jr2YhEQ+HuLO800kGfWHK4b7hfuH9YQGhgSFBwcGCIXygpbFe4+x6XCIdIG4p1lFu0P3JlTopLjT+xNyvh/L78xIKkwv1FB4oOFh0qSW5I6T08lYo5IojEAzktJb0ko+P4mxM/TtGeFspUO2OV5XM2PvvkudKclvN9ueN5PwoIFzgLpYo0L5oVO5cElu6/lFVWXf6g4n0VuMxzRavapYZSm3H1Ul1r/ZNrr69P3/jeCDXRNHO0iNyUb9VoM2zfccv2tlOHe6fHHce7Fve078t0cT3APZjrfv6w+VFeT+Jjz16tPs6+pSfP+68/PTMQPej6TP+5zAu+IfZhtpe8ryRHtF87vPF56z5qNqb8TmCcdnz9/eeJsQ8vJvumHk13f+yeeTw78OnjF2iObV76q/GC97eU73WLM0vaP4tW2Fer1q22/C8F7kKW0BASAfdRFqhnaG/0N0wqVgDbiHPALeDLCV5UTFRPqE8Q7Wn4aeZoH9Jdoc9iOMQYzRTC7MWiw8rOuoBEQhFHLKcllwDXD+7HPKW8SXwu/EoC9AKTgs1CR4UdRXhERkWLxcjiIuIfJCol90ipS6Ol+2VyZUly4nKz8nUKsYqaiutKHcqHVcxU8aoP1dLVrTUIGvc1U7T0tVa1m3SideV1P+pd0vc24DQYNDxhZGG0bnzNJNiUz3TA7Ii5lvkni8IddpaQZb2VjzWD9b2dSTaaNj9sr9tRkPvDF4cax3AnGadPztUuYa7SrlNuxe5uHswe/Z6nvBx2cex6t7vGex/J0ofb5zO5wzfTz9NfyH8m4FpgYpBJMH3wSEhVaEKYdbhg+M89TyPKIyMoSpTFqObopBijWGLsUFx5fOJelwS1fVyJqMTPScP77xyoPnju0KHkkBTnwwZ/yabyHKE5sn50/tiHtBfp7RkXj6ec8DtpfkrmNNPptcyPZ0aynp59nP3oXF/O4Pmh3JG8t/nvC6YufClcvAiKqUs4SiUuaZfZlQdWHKzMqbp6uevKaPXPWqarMnUW9QHXUq+X3XjQMNvE0KzXknpzoI233f9W9e2FTq07f93tvy/clfjg1UPDR3WPJXsLn6D7SU87BhWftbygDJNfXXrjOVY5MTBDWhDa9P/2N7rNglUF4CwvkqHSA+BwFoDjyAEh9gUANioAbGkAcNQA8A4dADMnAMiE98/5ASGJJxVgBNxItqmKZNIuIBgcBFmgEtwGQ2AeIkLiSG5IhpKhEuguNAlTw/KwC5wM18KvUUSUDioCVYoaRtMjOdohdCt6CaOKicJcxrzFsmAtscnYm0iOpYALx9XgviC5VDz+NoFIcCdUEdaRLKmWmol6L/UY0YrYTCNJU4BkOhlIbnMUyWZOMLAwFDLKMLYyWTO9ZaawYFlyWWVZO9lc2GbZkzk4OOo47TmXuUq5bbnXeKp5vfjo+Dr5YwWkBEYFs4V2CmOF20SiRWVEp8UqxUMlFCVWJLulcqXDZUxk+WRX5V7JtylkKHopKSpTK0+pdKvWquWqH9NI1KRohWkH6QTpBuv561sbKBtyGgGjD8gNucH0otkJ8/0WUTtCLUOs9lgn7EyzuWjbbDdg/8WRxknG2c4lzrXIrcd9xVPGy2dX7u5nJCYfB3KO72t/wYCAwOqghRDN0JSwnj3sEf6RjVFU0aSYm3E88S0JXon4pOYDEYekkqcPl6eSj3IfG0g/clz9pMLp8DOPsi1yxvOOXZAoqisRuLS3vKHy3RXmGuurJ+qHb8g1ZrZArYm30B3Zd+H7Xg9aH/E/PtL37an/4JsXHsOvR/zefB07937XpMz01GzU5/a5h1/PfVP4XrG4sST702HZbsVqVXYNvTa0fmrDbGv/2PyKTQQsQADIAT1gB/xAIshEvN8JRsASxAIpQ45QLJQDtULvYAKsAHvA6fBN+BOKH+WMykDdQ0NoffQ+9HX0LEYUQ8IUYF5i2bEu2BzsSxwPzgdXiZvHa+GP4p8TxAgJhH4qKapjVHPUHtTdRA3iFRpBmnxadtocOk66Inpx+msMBgyDjMFMMFMBswbzEEs8KydrG5sPO579Koc7J4bzGheZm4X7IU8yrxbvD74b/DECqgLLgreEjgjbirCIjIiWiVHEDSQYJT5Itkmdk46SsZdVkmOTW5MfV2hXzFdKUiapWKgqqwmps2hQa2K0IG2gA+vi9Gj0MfrLBnOGE0avjJ+adJt2mrWZt1i07GizvGfVbz2287st0U7IXsvBCbnFnHK+6jLouuwu5GHjecCrfteUtyBpt08++YUfg79VwJHAzqA1xNvxYU3hyxF6kUcpg9HCMXGxffHKe/P3YRMpSWMH7A/eT9ZJafpLLbX5qN6xh+muGR9PHDmlevrjmbKzQedUzlPlTuX3XWgrqi++Unq5rLqioarjyuOa51eH659df9Bwtel4i3erVNvcrZqOwDtm9zy6IrvTHl16fKtvuH9+EPOcZUjwpfSI8huNUY13PO8xE/OTo9O9My2fCr/Ez5sswN8qF3V/3P+pv1y5Sr1GXr+25X8Y4AEzEELWvhXwBymgENwCoxAaWfU7oWgoD7oDzcKssAEcBVfCYygelAeqADWGFkNHoG9i8BgXTAVmHeuGbcbx4o7hfuJD8e+Q9T1AZU3VTW1NPUj0Jn6hSabloL1O50C3SF/AYM6wwljHFMosxfyZpYE1hc2BXYID5njL2cVVz13Cc573LN855B5yBfHqkPCMyE8xanF+CTVJB6lI6TMyzbLj8owKloqnlQZVWFWd1E6rP9JEa+lox+lc053XNzLIM/xh7GzSaMZhvs9ixFLbKtf6p42L7Qt7f4dlp9Muoq5N7iYeD73MdrV7y5HyyVS+SX7fAsICPwYHhXwMCw3/HBEZ+S0qLno5NimeY++dfZFJgvufHTySrJYy/lfaEamjXWm7078eTz7Jfqou0+rM9Nmj58RyunL98zEFxYV6RS+Lo0tpL5WXG1S8qUq6wlt9u9a3jlB/9brzjbXG0mbLlq+t59v1b012nLzDczfrPl3X8W66h2d7eB9X9Ck+aX9qPvD0mfPzoSHn4b5XxiPX3wi8/Wt09p37+NDE7g9TU+HTUzP2s7Wf5r7wz2nPG31VXeBf+PSt5TtlkXOx8wfpx4el0KX5n9E/Xy7rL5et0KxErdxfpVt1WS1anVpTWNu71rk2v86zbrEes1603rO+tCG8Ybuxb6N8Y2DT/1H+SopbxwdENAQA82ZjY0EUAFwmAGunNzZWijc21kqQZGMEgNuh2//7bJ01yBmTv7CJHgqcT/z3/y//AxrF3NrXnwVqAAABnWlUWHRYTUw6Y29tLmFkb2JlLnhtcAAAAAAAPHg6eG1wbWV0YSB4bWxuczp4PSJhZG9iZTpuczptZXRhLyIgeDp4bXB0az0iWE1QIENvcmUgNS40LjAiPgogICA8cmRmOlJERiB4bWxuczpyZGY9Imh0dHA6Ly93d3cudzMub3JnLzE5OTkvMDIvMjItcmRmLXN5bnRheC1ucyMiPgogICAgICA8cmRmOkRlc2NyaXB0aW9uIHJkZjphYm91dD0iIgogICAgICAgICAgICB4bWxuczpleGlmPSJodHRwOi8vbnMuYWRvYmUuY29tL2V4aWYvMS4wLyI+CiAgICAgICAgIDxleGlmOlBpeGVsWERpbWVuc2lvbj41NTc8L2V4aWY6UGl4ZWxYRGltZW5zaW9uPgogICAgICAgICA8ZXhpZjpQaXhlbFlEaW1lbnNpb24+MzIxPC9leGlmOlBpeGVsWURpbWVuc2lvbj4KICAgICAgPC9yZGY6RGVzY3JpcHRpb24+CiAgIDwvcmRmOlJERj4KPC94OnhtcG1ldGE+CvaMw+UAAEAASURBVHgB7N0HuCVHcTDswcYBbLAx0WQMGJscbESWyCAwyQJEXpGEAJHBZIkkk0WWiBIZgwgySUSJLIIw4EiyhQETTLAxGOf+661fPd/c2Tlnzrl7d3VX6nqee2fOTE+H6uqq6urq6rOUgK5Bw0DDQMNAw0DDQMNAw8A2x8AvbPP6teo1DDQMNAw0DDQMNAw0DCQGmtLSCKFhoGGgYaBhoGGgYWCvwEBTWvaKbmqVbBhoGGgYaBhoGGgYaEpLo4GGgYaBhoGGgYaBhoG9AgNNadkruqlVsmGgYaBhoGGgYaBhoCktjQYaBhoGGgYaBhoGGgb2Cgw0pWWv6KZWyYaB1THw4x//uPvHf/zH7mc/+9nqH7WUDQMNAw0DewEG1lZa/vd//7d75zvf2T3kIQ/pHvCAB3SvfvWru3//93/vm/ryl7+8++AHP9j/nrr5y7/8y+6ggw7q7nSnO+XfXe961+6+971v9/znP7/77ne/O/XJ6fLs//7v/7pnPvOZ3Ytf/OLTpfytLPQzn/lMd7e73a17ylOektmOf29lWXtTXmc0PPzDP/xDd61rXau72MUu1h144IHdT3/60y3tjjMavrYUOaPM8MXDDjus+7M/+7PRm+mf+ObDH/7w6ZdnwKevf/3rk+9//etfX9q6j3zkIylvliZa4+WXv/zl7oEPfGD3t3/7t2t8tfckPe6447onPOEJe0+F16zpWkrL//zP/+Sgustd7pIzuX/5l3/J35SPf/u3f8uif//3f7972tOelu8X1YVi8o53vKP7r//6r+785z9/91u/9Vvdz3/+8+45z3lOd81rXrP71Kc+tejTPfpc3D0DZrvUZ1ca/81vfjOZ54c//OHMZvx7V/Lem789I+HBePrTP/3T7ic/+UkyebRrUrGVcEbC11biZSov/fH+97+/+9KXvjT1eqdnX/nKV7p3vetdOz0/Iz74zne+0z372c9O/n/xi198aRPJlm9/+9tL06zz8p//+Z9T/rieEYFR4H3ve98ZsWnZprWUli9+8Ysp+CgXb3vb2zqa8pvf/ObuE5/4RG9ducY1rtFd+MIX7l760pcuRdpZz3rW7l73ulf3vOc9r3vBC17Qvfa1r+0+/elP57cPfehDux/96Ecbvqcw/fCHP+xYeqYAg2AWZx0Zg2feDS1CU2mUqZxF8K//+q8L85ir36I8lz3X1nGbtOE//uM/ln3Wv/O9Nk3h7HrXu172GfwPoeJq2QwdHlapg3TD/lglb3X5z//8z863Q6Ag6+MpsAyincOyptLVZ8vwUtOowzp5KnsRruVZ3y9qgzSr4lXaKaBk3/Oe9+ze/e53d49+9KO7D3zgA911rnOdhXjRh4vGRMXReDzsCt2M6yxv/boI4Or73//+UlrThmEdK57H9LOoDM+1dZ1xNkWfw/y9XzZ+1uUV8iJgp8axcuW3qB9rveBFGxflUdMNr3A4xG19V/OaK5OysWiJUr+b7B566KHdL/7iL9asN1wrDm95y1t2b3nLWza880P+q/Ch+qH0y8afui6jx5rP8LoIR9LM9dsy/FQcr9pf0qu76yJYl+4W5VOfw+V43NR3rnPjZJh2rXth/FeFMKuVJz/5yeUb3/hG/0mYo0uYosuLXvSi/lkoMuVyl7tc+fu///v+2fAmZh/lPOc5TwnmOnyc98cff3z5zd/8zeIKouPL4x73uHKuc53LcQPlAhe4QAmlqQRC8n1YbUoQf/nVX/3VcpaznKX8zu/8TgllKt/5F8pVucxlLpPvpAkrUfmnf/qnfB9myXL961+/HHHEEeVSl7pU5n++852vHHXUUSWIpUQnl/333z/TuIaiVX7lV36lhGAo0VmZx1z9MtHgXyhn5QY3uEFR7wpHHnlkuc1tbpM/a51iFpJt0Wb1DwFUYgkty//lX/7lEktzJQZZzWLDVd2POeaYEspjtumSl7xkuc997lN+6Zd+qey3336Z9j3veU+59KUvXWIJIX/H4M++1S/K/IVf+IVylatcpZx44ol93qHBlxBaJZhMOcc5zlEe+chHlmAo5apXvWr567/+66Luf/AHf1BufOMblx07diS+bnSjG5VguEvzlq+ybn3rW2ee5zznOfPb293uduWkk04qsdyR9QmLXHnJS17S10cbLn/5y+e7ShuxnFf++7//u08zvFkFL2GlKKE0F3VATxe96EVLLHkmLQzzqvff+973kh5+/dd/PfGGxu54xzuWb33rW5lEmegRXcpPuvvd734lFPCaRfna175WbnrTm2abf+3Xfq084hGPKLe97W0TJ3ADDjnkkBIz0oJ+ANqMJdbMN6yW+Wyu7jGLTzo/+OCDy/3vf/9y9rOfvaClm9/85sU4BujgGc94Rvnt3/7tbM/Zzna2HF+1PZuhm8z4tH+Vvg8//PByoQtdKHHye7/3e+W9731vnwzf+OM//uOsn3415tBpHTNf/epXc0xqP3yFdbfgTU960pP6eqPfK13pSuVjH/tYn+/wptZjnXGGxm9xi1tkfeR/tatdrYTlss9Wn8ZELHkRvKrfla985fLYxz4208zxiliGLr/7u7/b56e/fG+8wcN5z3veor76Ho3f4x73yDKMb/0Ugr3/tt6EICuPecxjyrnPfe7MQ78+61nP6vlnTTe84t+VZ6LXUCyKfMAyflppEl9AU5Vf4gWh0Of3c32LvvGPm9zkJvk9fKrPvvvum98bT7Hcln2uD7T7zne+cz/eMtHoXyxpln322Sf5RFj2y8Me9rCkvbBEZkr0pF/xx9qv9d0oq/7nMhwt6zcZfPSjH81+VZYyyQO0BdbtLzg/+uijk+7xl1ipKOEGUP7wD/8w8/Nvju76hHFT6epP/uRP+sf4Cn6EbsCczJ0bJ7F8Va5whSsU/bIZ6Dbz0fAbQsRg+vjHP94/PvXUU3Pwve51r+ufDW+WKS2I+iIXuUgyIN8YpBe84AXLK17ximRMBLyBh2jAE5/4xGROYe3J94j8Epe4RN5/7nOfS8FNwP/VX/1VMkaMTBoQa5qZl/QGfFiSygEHHJDCgSBBEJQVgkg5GCPl7Dd+4zfKK1/5ysxjrn6ZaPCvMqYwd/ZP5V2JrNYJ86LU6Vh1JkQJG0KMkkWJo8hMwcknn5x9gmnc8IY3zAGJiWJ8VWlBOEMlhmCVhqKD2cYMPQfwda973RIzgvwzuORx2cteNpU/DEAZGOJf/MVfJD49w2QNSGkpWnN5f/azny0UEt8RzJiQPA1CAkudq1BHG/oBnWDWBK8Bdfvb3z4FGIVX+6dgFbwQpupOEVcPtK0M+JoCAkE99Z/+oXxpN0YNCE1tI1wpYd5LDy8glkVTYfUNOgz/rmSo+sZ3cAN8Kw36AZU25VXH2VzdMXv9JW/KHmUfHcnDxABQ0NAB/FPwCWbvKQ0UmnXpJjMd/Kv0bfJhDKGbOua8wzTVC1OjEFCmjDn1fOELX5g5GcsmF3AZ1tnyoQ99qLzqVa/KiZC0vvHtFa94xRSeg+L721qPVcdZLGekck4oUKSNSxMNkx1CT3+En0SOH3j+/Oc/n3QJd1VpmeMVlTeoJP6DvtHR3/zN36RQMy7xwlhuSqXDmMCLXvOa1ySdDXmKPAj4Bz/4wcWY1K/yMemEy1g2lGQnIFDh1iQHr3nTm96UZcaSf5njp5UmTWjCpyLLM4lQR+Wt0rdwYPxR7OFQmeiE0g/wROOC0q1+lCh9YKxOgQkqOqAIoZXwx8z0+CnFhECnIJkY+f2FL3yh3P3ud08eR45NwTIczfWbyS4auve97518DH9QP/zLRHzd/tIe+MCHKAv6Ca+p8kT95+hu2EZ1QFdVRnqnzrGC0tPxMpk7N07kZ+yEJTgnuX6vC7uktJjhIXCaK4KswALAgoGwpmCZ0oLICEWdZxZLYBtoFQxECL3ZzW6Wj2iVZveEGDAjNNB+8IMfZB7Xvva1C02xAiI3ewYYlwEdzqn1dWrBGANGWAehtiBuQBNGdOEwt1L9+oxPu6mMachgxkqLOoVvQv+pmQthjhkDg4lQPfbYY/P3+J+ZOgF3hzvcIQWNdmBCni1SWjAAjI3iBscGAwUAU1dX+DDrUg9KA9D/ZjpjpQXToanHDpaCiOfyrkoLZlcVMf2vvvrWDFYd1EUaQiOWDcob3/jG8va3vz3ry/onLYFbLQ/r4kV9WZ8wtBNPszARCPJkBZoCApciwDqjDv5e9rKXlXCqzORmw9pRBRemhgGzMoBPfvKTiWd9jkkDONDOdZSWVepelRaKqT4BFB31077KnCg1VaihNcrYYYcdlrPlsdIy17dZyOCfMUdhQfMVCH10ZUKCaRJMQ8XTLB0TRtegKi115ucZun3rW9+6wYKAkbMCTkEd+6uOM4o3Ojc5qsBaQ7EwiYAnwpPQqPB3f/d3OU71/Sq8rPIG31f6rlZhz9C9CZuxWIUL3rTI4oonwqs+roBPU0b3Pc1yUZ/X64Me9KBUVPHPCizP6mZMLuOnlV+a6FSei6ZYOfTdKn2rHNZeykqFqrTgS6yY6lAtP9JQ2uFlCtA8GUVhqUDBpbhRUk444YRUyozDCmQI619Vkuvzel2Go7l+M07RCZlZ+y18JnNCHT5Na/UXfJjksH6bWAI4xpOq0rIK3dV21e/nlJZlMndunAzL2uz9WYNhrQ3WzaLjuxBMXRBR7kgJxt3nEzPTLgRex9lqXQjCz3XHEIbpwxJI72L2lOXVvGJApO+L39ZF7T4KIuuCQXVh5utCU+5Cu++CGXb8cEKTrZ92MWjTUbE+CAHbBeOpPzvleiZdhRAoXWiv+TNm/pmG4zAfm7n61TzWuSo/mE3/iToFw+xCmOYzuPY3tT6rb4JZZTr+B+oL3Mfgz/upf/AXTLYLBTEdj/VdEFWWG4MjHeGsYcNVKEyZRcx005HO2uwQ4D7M+11YRfJxMKGleddvQ0h3oTTkz2AqeVUvz+E6lKZcs9U3YQHpOH2HotWFlSD72vMQuAvX4efwEgIiy4EzflohkDvPQmnpcVrrWq9hBs/ddCFw0zcrzOrdH/3RH3Ux8HNNOxTNXLPnkxBMMOlK34WJNbMIZSzX/UNR74KZ5bNYWu2CCXchOGoxs9d16h4WnZ6+QoHPvOEuBEy2V/+FpSOf6+swPy8sf45upj6Ez2Cq/SttVU7MFBPXsaTYxTJU7vDgnOo5egxh2H8TVrmevjw0xtG+3XHSh1LShVLRhUWp/2Z8s844Qzv4QCicfTZ89+DSuIH/EEI93iQKxbSr+F2XV6DvsJJ2oZh3p5xyShcThWyXMTn0W1An/HYK0Bafj7CW9a/RXigRXcx2+2f1Bu/FM9EhflMhrB45pkKxneWnvgmltAulOz83HvEv9KXfV+lb4xzPGAO+H0K/i4ls8vf6Xt/ryymAN/yj9oM0xletXyib6S9EjqEpAMf4OtobwzIc1bTL+i0mxF1Y6NKX85hjjulCeezCipp/YXVcq7/Qm/rjHXAG4BhfjslT/l6X7vKjmX+LZC6age9l42Qm65Ve/z9NY6XkXQpKu4NsTw5tMR3+IGoMiCi0vvHj2d92J3BoxAyrUI7Z6gYmJ5NKdIRGaOXpqMVj2u6JWEpKJ2HfG7C2Zg9hSODuDeQhINohVGIePnO/Sv3G30z9phQMQZ3GZYaZufO3CtT6D9Nr4/D3OB/O1Y9//OOT+GP2lsyZklO/wSgrw6z5ezZkoDVPQp/gqzCXd02njrUvah9VpavWo6bFdG91q1slrVz96ldPWiToCJBFUOs9zGuIF/SqLzD6sOD0fYApEFBTgDYpWHbphNm4CxN8/tm+GhaTHAPKDTNwMnx5UOgJJVDror9rm2s9M8HoX32nnhhohXXqTpBUPA/prPZnLaPmvey6at8O81CmOlSAA3/K1Y6YyXZveMMbUtHWtzt27MidJjW9K1wN84gZdRcWoRS4YQnNyQu+wLl/Eawzzmr/1D6qdfAbH6g4G76H48ob1+UVlCTCjSJpPJoEmIw99alP3dCcOj42PDzth7r4G/axV34PaWf4rX4Yp/de+lX4qbS1ze4rrNO3Q/qs37uqm/ZU2q3vPKv4r8/qFU1779sKcFbbaKxTamwRNi6HcPHBxHH4fBGOpJnrN+U+/elP7yiAYfVPHsF53j3lcJ3+0jbtrm2pdRwqsevSXc1jeFXGkM8vkrlhhc26aIO/CvV3rUt9vtnrRmk9k4uKh5NeF34sqbSI+zGsXP0c4xlaQ+rzuStGjPmwKGA8tEf3iCzW/PrPzaSUCwlhEk6t/FGPelTnL0zHHW9zW3tp19LGemZPkHYjmP1uBRA8y+o3VYYBZ9YxZBpmaVsF8GL2BzBtOEXU9X6qHBp73SJnJ5d+DR+ltMxURmEmrD/MPszGzMSlMSOpWn7NWx0qY1kl7/rdOteTTjopy0YXZqOxfJfb0+UxZFA1z1XwUmeI+sYsSBttVw2n8A3Wupony1MsRSU9Pfe5z03FhrISS3HJvCjWZlZAXAjKc5i1E68VZ6wMrHhhkk7rC0sWxYtlYSiUq3AycwIU+2qt8XvduvtmDJh2mNJzDOlnMzb9a1wpfxz7YbN9S1AMxyArFKuAccs6YtuviRHlBZjIhJPtQsGED8QyXmfnov4IH7RksmHyX/jNuO1zv/WLehqrcATgxsw/liUT/8o102TtBfqoWpvX5RWxhJ7lGZfVUkywsfCuCmgLDbE6ETQADw+/jV5pHuZlzOKZLIysp3ViCLfy2FV+upm+HdZPfbRJXYy9KpzRKj43BaxGtR9YAAArBH4B8DXfmiRXSx75xeoxtM5k4vg3hyP5oZNF/YYeyCw0gmcAO21juTRXDNbpLzzEZEr7Kz7073Diti7dkRX+hnQmb3wLLJO54Uyflvhl4yQz2cV//08dWiEjTACiDVJKSaw/psmb2ZsJswIiwYTqYKvPh1famwFv+QaBxNpibtc0QGx5Dv+FZAQ0UjN+zAhxiZliBsKigoAQh4BMBho4NcxlmCItmRkrfAhS0TIIMRnCw3LSVgBBsax+U2VYMrFNzixcewTq0/atBLMyswfCnAAN36JcRpkS5srFbAkswjr8MXKJyDcIFS4Rqj4XtEy/GnAUQdsVh8rXVBtWyXvqu7lnBAdFhOJEoIWTYq+YqfMUzOGFYNIuykA4yiUedsQs//DDD+/C32SnLNFf+F+khUrsImMDncKb+nkvwBtGZNnCNmSzKVdb/AFTN2GLbsNXK5mXQIvjJbe6LKF/WMSkZdWpsG7d63fDK/Nu+EElXaojRqq+sU6dSth4JrrZvsVYKcfGvnaGo2BaWCypVRolWAgPkwz9S+At6ld0gNFaTsMw0avla0LeBGErwPIq/KiLMcACEr4sKRAtBxJWlj5M6PAoCp02UvDBurxCe7S3mvnD7yutLJ7ByypA6IbvXy6vU/LhhQWLFVGdp8AkQJ0tCSpHH5moEvK7yk8307fDOurncLhNecFlAC5MUvUDa+gU6DeWUEow/k9ZrvQmffjHZN+hdbICjigR8GbiOwXLcDTXb/InL9Wn8ld1opCZJK3TX8pSF/ITX9BfFH79W2EzdIeXmOTCLTpG03WSMSdz58aJelGq1Lcq9LWuK19DeVgZOM9FxpN/nNEqcHDibFh3PtTn9coRl4dzzSuQn85XnMrsCgpBWJPm9ioOpYGs3EkSAiB3w8RgzjQxwArHL3nE2mmm4QAczDCdg22PDmabOyZ8ywnKtk0QGns6RNadSJ6pMydJDlrqYfcQx7UKdnvYRVOdjG3/Wla/+l29hrKX+WlPMP3cMWI7a3WcmqoTvHMyDWUws+EoFoSVDp813+FVvUOApjMnHHNs4ygKD/udtuV57FBp91coetkn8MThzc6RmM30W9M5kYaSlg65+pcTo2to87mjQd1jNpOObSFk+irN5V0dcbVJ2wDna3XndA3CwpBOleiGoypHQdutg5FlOltDQ8HIe7s4pmAVvKCrUMr6baZh6t6wxX2cr/ravQRnlZ45DFcaC8aajpDBlPJ9MO7EazCaPive9L7xPbqQHxoMxbMfQzGDz++k0WaO6HYUya/uHpqre3XERb/oGHC4lSc6BxwnOW1rdy3LzgoOt2AzdJMfnvYPjXB0Vx6cwJu2cqIF+kjf17FsjBhfcII/AI64w2884zgdQrrnEzFhSmdw6aZgM+PMtmw0itfoJ3lzPKwQykwJZSDfaRcH1OGW5zleMXTElVYfV74WClO2h6O4LekhoHKXB0fvZVBpQn31KbxyJMWHpiCUvMw/LMg9z4T7EDCz/HSKX9rAgOcoc5W+hQNtrHxAHasjrvs6nsLKkPXTLvw/LOpeTwLHZf0mbVgMk5ZCyUxHXB/YwRNKT44r79ElngvHU7AMR3P9Jj/yxhhAI/oEzxyP4VX7Sx1jyTB5svxispR8ocoT5c3RnTRDsIMKPtTB+MMP4bhuJlgmc+UzN06OjQ0k4T6Qm16G5a56fxYJgzltKYSneM4czdCqWXtXC4jBlyb0YBRptqN1V2CxoAnSpM1ImRCHQKOl3THDs+BsVZ2GZSyr3zCdezNNWr16cQpTr90BdWbBObQ6ti4rx2wqmHlaaWKQb0jKKsZyIx9mfMsecM6RTHtCUd3g0Lzh4/ixLO9x2lV/63emUTMueAwGsNKnq+BF28wEWMaqQ/GyzC0bwBH8WJ4b18XM3NKBGZX+CIawITsmWDMbFjKOi6FYpOWAJZGVC5hJsa6wcMhjOAaGma1b9+G39V7brc+bqbFahvCsr3a6rtO3xiGLBMdlDqHBUDc4EtbMlc/6xPy9Cv59px7yhx9O2svqXMtZ91r7AO2Z3dclipqPscBSoS5mzmM6kG5VXqEMebHMKgvtbBZYqtC9cV2XSZblxVqOXvU/K9KQ1naVn26mb8d1VT99zfrFeX9Yv3Fav40vY4e1sDq8D9OFQpXvLYvIzzicg0U4WqXfWDD0LcvLlAxYt78qTyPfFtV9VbrTbjyVawVehNeMx5I2LpO5c+NkDrfL3m+50oLRMYkzKXIga3DGwAABQpC6Wh/nIc/kbHmESdAyV/XTOGO0+PRrBQXI2LHcMVRaTr8abV3JQ6WFabtBw0DDQMPAOhjYON1b58sFae3cIdAIsgZnHAyYbR8evh2saHbp+LNGzYHNjoamsJxx+rq1pGGgYaBhYLtiYMstLdu1oa1eW4MBZlZLMkzWPNOZI8dLHVtTUsulYaBhoGGgYaBhYCMGmtKyER/tV8NAw0DDQMNAw0DDwDbFwP/zZt2mFWzVahhoGGgYaBhoGGgYaBiAgaa0NDpoGGgYaBhoGGgYaBjYKzDQlJa9optaJRsGGgYaBhoGGgYaBprS0migYaBhoGGgYaBhoGFgr8BAU1r2im5qlWwYaBhoGGgYaBhoGGhKS6OBhoGGgYaBhoGGgYaBvQIDTWnZK7qpVbJhoGGgYaBhoGGgYaApLY0GGgYaBhoGGgYaBhoG9goMNKVlr+imVsmGgYaBhoGGgYaBhoGmtDQaaBhoGGgYaBhoGGgY2Csw0JSWvaKbWiUbBhoGGgYaBhoGGgaa0tJooGGgYaBhoGGgYaBhYK/AQFNa9opuapVsGGgYaBhoGGgYaBhoSkujgYaBhoGGgYaBhoGGgb0CA01p2Su6qVWyYaBhoGGgYaBhoGGgKS2NBhoGGgYaBhoGGgYaBvYKDDSlZa/oplbJhoGGgYaBhoGGgYaBprQ0GmgYaBhoGGgYaBhoGNgrMHDWdWr5L//yL91Tn/rU7jvf+U53z3ves7vhDW/Yf/6mN72pO/7447vb3va23R3ucIf++Xa9Oeqoo7qPfvSj3Z3vfOfuj/7oj7ZrNbesXp/5zGe6F77whd3v/u7vdk94whO2LN/TI6Of/vSn3Z/+6Z92f//3f98Xf5aznKU7+9nP3l3qUpfq7nSnO3UXu9jF+ne7cvORj3yke/vb394973nP25Vs1v72v/7rv7pnPetZOdYe97jHdb/92789m8f//M//dJ/73Oe6K17xiokL38PJAx7wgNlvd1eCf/qnf+pe9rKXdR/+8Ie7H/3oR91FL3rRHHO3v/3tu1/5lV/JYre6nv/8z//cfetb3+qucpWrZP7//u//3j396U/vfuEXfqF71KMelXTz2Mc+tvva177W3e52t+vwtbvd7W7dPvvss7vQ0PJtGGgY2CIMrGVp+fnPf969+93v7t7whjd0j3zkI7vvfve7fTW+8IUvdBSXL33pS/2z7Xxz8sknZ33/9m//djtXc8vq9s1vfrP7sz/7sxQeW5bp6ZQRgX7CCSd0f/d3f9ed//znz7/zne98Hfo88sgjuxvd6Eb5biuq92//9m/dt7/97a3Iaq08tO2lL31p99rXvrZ7z3ves9K3L3rRi7oHP/jB3X/8x390//d//9cR3j/4wQ9W+nZ3JDLG9t1331T6bn7zm3cPf/jDU5k89NBDu4c+9KG7pZ4UlLve9a5J67VNH/vYx7pjjjmmu/a1r51KHAXmK1/5Svewhz2su971rpf967sGDQMNA9sfA2tZWobN+eIXv9hhkk9+8pNzBjN8N77HQM1mfv3Xf7375V/+5fHr/vd//ud/JiP7jd/4jf6Z78wWp74jUMA5znGOPv2yG4zpv//7v7th/lPp5Wvmrr6rwr/+6792Zz3rWbtf+7Vf2+kT7ff+l37plxbmWd9r6yJYt17/+7//m+Uuay+c/+xnP+t+8zd/c7YfF9Vr/Lz2t3J/8Rd/cfw6f9c0czQx+fFpD82MxxYQFqVb3vKW3Rvf+MbuSU960obPtVP/a+uqIC9/Q6h1P+c5z5l9PnznniWIAvVbv/Vbk+1nEaF4LetrisqFLnShFLQmAwceeOAkbQ3z0j51A6wKz3zmM/N++M97tKZvpJkCdIZWf/VXf3Wn13Ntrx9QmCgmF7/4xXOSc97znjdfHXTQQd2Vr3zl7tGPfnR305vetLv1rW89WU/tUk99tYiG0K4xfa5znasWm+2fUkBe/OIXdze+8Y07+aobBebe9753fneTm9yk/77eGDvwsIhWpnhV/dbVt/A7xQ+G6dp9w0DDwHoYmOZaK+SBeZkJfvrTn16YGtPBnMyGz33uc3cY1yGHHJJMw0d/9Vd/1V31qlftbnOb26TZ1mz5POc5T/fHf/zHHbM8xuI7pnHLORX++q//OpemCAV/173udbtTTjmlvt7pSvFhIle+/G52s5ul+XiYUHsIh8tf/vLJqOS73377LW2f7z/4wQ92f/AHf5D5EgTumcIBxvaUpzwl2y8/77X3pJNOyvcYI8XvIhe5SDJeypf3H/rQh/K9f5upl2+OPfbYFBjae5nLXKZ73/ve1+fpBlM106w4v8QlLtG94hWv6NRpCiz9XfKSl+x27NiRjF8a+PLd/e9///zk+9//fneve90r26lcCglhO7RUzNGEjA477LDM9znPeU7mu84/QhK9DMu0DEDxINzUSx9ZGgRve9vbumtd61rdl7/85b4Yy5+sNXD4lre8JenAS7hRJ/nLB60SzJQUwAppSYKgg1fppPcdYQl3llV/7/d+L7897rjj8rvxP/T6jne8I+n6Lne5S46TIX1P5YW+n/vc53Z/+Zd/mdYD45JQ1sdAHYyhC1/4wln33//938+xaSwANPPmN7+5u+xlL9vTv7IrHufanpkM/rFuwOlDHvKQHHeDV90d73jHHBfqotxhPSlej3/843u6lEa7KHkAzVnOfcQjHtGn0Z+WxaS53/3ul/d4k6UfdG686cfvfe97qSR9/OMf7+D+ale7WveBD3wg+79as/QlnoVXGLPoibWrwt/8zd8kLRnL3iv7xBNPrK877a40gN4sofumQcNAw8AWYaCsAbE+XYLhlphhlhDuJapQwuxbgjGUP/mTP8nfsf6eOYbALiHASlgsSqxjl7vf/e7l0pe+dKYJv5cSzKF89rOfLTHwS8ykSjCHEv4lJYRBfhPr3SWUhhKzsRIWjBKCvQQTLD/+8Y/Lda5znRKzmLze4ha3KDErLJe73OXKN77xjcnWHHHEEVlGCJMSDLPETC/LUP9nPOMZ+U3MzEvMfEvMjIr6Xf/6189y1T2sSpP5BjPKeis/mH+JWWMJi1D5nd/5nazr61//+vwdjLfEDLOvdyhZibNgponLEG6Jq1vd6lbZlvA7Kaeeeuqm6xVm+RJMN+sfTLPAkXppL5yCww8/PHEYvh+Jd+m1P5h5vh//e93rXpc40x/6FoRgyDxDOOTvxzzmMZnmD//wD8vBBx9cgnnn+xDW+X4VmpAwBHB+V2kpPx78++EPf1hCucsyBo9LCNYSywAllL8SM+t8hc5iJl1CMSmhCJdYxkxaDOGcOA6FpoQyVl7ykpf0WYWAy36Npc7yyle+MvvTyxBIRV++/OUvz2+1H/2GclNqPtqKLkKxzj6/4AUvWOSj7XAXwq685jWvybxCIejLHN7E0lfxXShWJZZ3SgjXEsp+tk+6qbw+8YlPlFgWyTGG7kKBLKGolVA8MutQgrKu4cuR9Xv2s5+dtBfKS74PhSvfhwJaQvEpocyV8A9K2pBgWdszg9E/fRcKbU/Ho9f9T302rKd6aXso0DmGYrmvGB+hUOU3cI4foOlQzEooG9nm8KNL/IQSUvRtTHxKTB5KWNZybBkHP/nJT8p73/vepMuwupRQxMvnP//5EhatPv8nPvGJOXZCwSuxRFdiGTzL/9SnPlVCmU26u+Y1r1mM3bDqlZhwJZ6++tWvJm/yLpSwrDuchX9RCf+drEff6HbTMNAwsGkMdOt8WZUWigXGi5kQ2EcfffROSotBTkmQ5i/+4i+yGEoHgR5m5/Kud72rV1oIGcwGxJp8CqyYwRTCCWMnxKXBKAhVZRKM4diXzCAcL1MpCYe/zGP4D9Mn4Hzzqle9Kl/94z/+Y8Gsq9KCmVGEMENMEoRfQJGvNATGFGBw3oc1IeuBQYZlJdNrM+ZPwFF6MOd3vvOdiRPt0S6KAOWLQMWACVgCJ3xPUlhttl4xC816YeTaETPzcp/73CefUVq0nwJJ+TzxxBOzafqTYkPxmoJVlJYDDjggcRjWh1QgKZH6JKxRmeUqNCEhAaBe//AP/5Dfjf9VpSWsGSnQCXV9TMHUzxRkyi2oCsAnP/nJPptw0kzlOxyTs18oGpTvWNJJXBH0FFfKwVBpQXthXSnhmJvfwe1b3/rWEhbDVBIovsZIBfSK/sNy1isalOGwJtQkO13RCaEXvhYpZCVAZxSrr3/965m+Ki3jvMJJvtRxM1QG9D9aIKhr2Z6ZVBgH0lLmw7JZwsrT10mfqz9Y1vb+g8ENeiOww7oxeLrz7bCe0l7pSlcqseTcJ/RePU0KAKUlLBgFLVUIy0z2v98mUMaySVQF31Na9BfcUWI9A2itKi3KV2eKSgW0Fs67hVJobOJ97ivoE31jYmRcUfTCutXjWT0pSnhDg4aBhoFdx8Cml4eucIUr5LIA827MjjqOnkOwhGMpgBnaH7BzxXp2MI8uhHqfnJk1hGj+ruvTTOie22FgmUE5/BGYnF2tFwdTTZO3/IK5dfxsxqAOli3kG4pOvrYcU+vkgR0OdqIw64cgyDTK3X///XM93TLWFFQnXvnyZ/HHtB2z9mynNsiT348yw5KSvj3q6o95mvk5BGruXLDzxRLDBS5wgTThb6Ze8FR31XAy1A4+Ae7hDMg3mHG+Cwacu4qYsPkN1W+n2jv3jLOlsjjDhnLa+R1Mve/bVWkCHkK5StwsKzOsa7kcxfGSfwk/khAs6XQJ7+DUU0/N5UhLEpay/Fl29JwzJpxYRtB+zq+hKHX8YjyDjyHELDp3J1m+RMuWPiwDoSXLCZYCLEPc4x736K5xjWvkMkIonkm7NR9Lpct8WdTL8qKlQstTdnxZsuD0HsKvZpPXubxqYnUIBTKXPmvZ+snSBvA+BG5nTFv2qGAXUqWZZW2v6YdX/WFcWspaFdCkJRxLprWvLEnavYVmK8CNMVLBb+NpV4HTsj9LtBXwoLDG9kuIcI62K1i+Ule0ExaiXOp+wQtekMtwdlKGUpTLfHhDg4aBhoFdx8AujST+KYSsXQJ17XtYpdCpUohxaq0QM+G8HTKZKvC9qEySsAXDb/2uTnaYMKWlwtWvfvX0E6i/61Ud/IFhXrUew3TKruV7jrH7hiIwBs8qQ675j9PwZ6DEULooQ5hdzNz7elBq+IpQcvicEFh2ZoVFposZfG4Plfc69VKHWp9he+G4/o7ZZjJ5QoVA0E7AnwETXgY1b2mqn0FNT1hTDl/96lenzwhFwB+/Hz4HwPcVr/W72hdDmqjvll0pDmgQcPD0F0tUqUTwTQLaSPDY5l0VmXwR/y4eCiOgYPBR4UskDVxR8sZAKPGB+PM///MuLIXZdxSLmGWnrwTfrLDwZF9TbMLikyEChvlUuh4+G96rA0dR9RjSNxric0JBO9vZzpafzOVV80U/2lTptT6v+EYXNU195+pZ7e9lbefXMwYKZVjvcjLj2yHoEw7UhL2tzxUqPaGjOsGo7ygmFbRF3YZQ6zl8tu49PFRcTH2LbpU7LLv+Vnfv7UziXMxXCq3wYXIfy5Y70d9UGe1Zw0DDwHIMbBz5y9Pu9BajJwwwFLPcIWBIGC0nSLM4YLbEamEGa1a3GTDzwig4u3Gm5HCIaRISZjZjMOMzG2ZxIUABoWAGVIFDJcZK4MQadz6mlHCqw+gJxzGog7oA27yrABA/xCydYKvOr2ZeGBehBipjVH/pOBaySLAicQDlPKhdm60X3AOKQq3X8N4sVZ/BDWaqrFjGSssAQTsFBAWmzFGS0gM/LBUVKJO2VMMxx0mWAQotvFbrzao0of2cYVkYVgUWAhY/9eSMadYOLhbxWuCAgkhA+mPxYvkSMwSwkrAKqS9lkcJS32WC0/7Bk11J+pdyibZ95xv9iK7kQVgLCQDP43ExzG98D4exDNPtt99+aX1TXv0THwmdsQItAnQ1Bfoa7jnpVpyi6/Apy+TexzJQx3JYJwVe6N9KP8varr/GwLnZzhntGSv9rKxohJI+BP2AJiljta9cKdP6cVVYhIe57ync6Mg4rIDeOTOjbeNdHw+tPixD+JsJCZrl7GzXV3WKZjViSa1W2ZpvuzYMNAxsDgO7pLQo0nZBO0TGYKYUa8tpbvfe9lNXQo15/gY3uMH4k5V++87ygdm7WQxPfzsnKAtTzBMjpCxYUsJ8BJUykyMAKlC+BCQDgk8ROLHmnQLd93Y3TAGGSiHCmM34KU+2mVpy8Z3ZMuEguJYlIrts7Awx0zQzw+zgRTvUy8yaMoVpm6lutl4UONYFAjZ8C7JcSkll5piv7Z8UC21Ttx07dnSHH354r7SN20uoWVqg/FgWedCDHpQWlZonZYHAZlmy6wTTtgNGe+EIrEoTrCWUHbPWdYDggE8xg8zkCUu0RuCFX0gqGfAefhG5g6zu8lJGOHamYCGcp5RfafSXuhFghLmlBDhknWL90K8sgIBCQNHwjJK3CqBJAt1MfWxFsfSEHuyeGSsBNW/fUJKUOQQKNhozYUDb4S+UfY5u9Z/3giwqm5D1vbQsSBQGsKztdclpWKYda5RHdIeuCHs4U7bnlMI65up3lDxtZ41EO9KHT0iOX+N7FUCH/tDduqB8EwiKvAmFsWsMWXI0AaPM6gM0xrJskgNHgub5Dm1Zznva057Wj3PLjZTCOgbWrVNL3zDQMDDCQJhVV4aYYaQDYwzc3rnWx5zZOKBF1mW444MjZsxK0znSu5ipp0NddSisu4dCiBbOkYATnrTVUY4jHCdLu3qqsy7HNt9I549zJIfXYHKZx/ifnRScRJUfTDqdeENxyW/r7qFg9oUjYwj7Pl9l2GGwCJTHUTMYUv9NCNsSyyP5SWytzF0o6shBlLMjp9Fg8iUEfDoFKjOUm/77mGmWww47LN/JZDP1CmZbQmlI5+WKH86xyolZfNZN39iBASfScMINwdY7sGaiwT8OnCFs0tFW+ovHbi8Oi5yq9THQhxxYtVUaf2Glyh0eNas5mpBus7uHfMvREu3ErLmEgPQod77YURLCuYRgT7xwbpW2AidozpqhWKUDeH0+dMTVFxzFtdlfCMcSS0u5GyeUl6Rt+AwFJh02OYNyeEZjyrJ7CN0tAjt74NVOpDGgNc6tnI05dk/lpb3oFw2F5WfDrhzfx1JWCWUix1II4HQ0twsQhKKSO8pCOGf/aZtdbnZBgWVtzwQT/7QZHXJ0hRc0Jt8Q8CUsD/mFeg13D8Ejp2Hp9BVaQqfoBnDEDeW0/+0Z/HKgrYAH+Y5Trx0/6GEVR1zfS4+Gla++cBkKU+9IW3mP9kijbRx0K9jlhAco3/fhA5MO9/V9uzYMNAzsGgbO4vMQLrsVmFNPDVOw2XpdutjVAs1qmFyDMWYckqED4VTedTnDLNLsMRjKVLI0n8vXew6Wi9INP2ZC5mQqLYfiYUAp5nj5sXywcEwBC1F1CmUtmGpLzWedejFdm+mZ9TJ9T4H3zNqWS/zNgWUsM0uWoKkZtu/1t5m5MvX3FA53B00sq7tZMytfCN/sI/2xWYBXS176CW5DgGVWIYDTUmYpEo2ZYe9pgHch7JXP0lcBDeqv4TJLKFW5BGr5ooK+5VTKooCWWWGGsKjtwzTje2MUvjj8hlKWcYvGaca/Q0nJdlhqYZUZ12OcfvhbPxiPxjzfplAuhq9XuldfDvxwABdD0B60pBx4Ho8D/IDFFI8yTob8YJhPu28YaBhYHwN7RGlZv1rti4aBhoGtxIClKkHS7G6yK4iiwn+Jf4+lvAYNAw0DDQN7AwbWn4LsDa1qdWwYaBjYgAE7q/ha2ebM8sDyRGHhw9WgYaBhoGFgb8FAs7TsLT3V6tkwsIsYsFxi2cVyIOfhqR1Su1hE+7xhoGGgYWC3YqApLbsVvS3zhoGGgYaBhoGGgYaBrcLARi+7rcq15dMw0DDQMNAw0DDQMNAwsMUY2LRPi10ETjAWxEtshalYLeoqHc9/cUt2J9gtIAKt3SEV7Oqww2OfffbJ4HNb5cX/rGc9K3cMiA/ToGGgYaBhoGGgYaBhYM9gYNOWlve///0ZNE2wK7sPBFoagu1+nlMYps4EGqbdinvKkZD0tiM6H8SfLbe26N73vvfNv2G0z82WyS9AoCyBxRo0DDQMNAw0DDQMNAzsOQxsytJCMXAOiiizQPRMWyhFFa0grohIkouEO+EvaqVIk1NxPGo+Yl6Id7FKnAa7IuySEJ1yCA48E6lWiH5Reiuog/xFEh3HWqhpxlf1kNcYKGniM7DsTNVVLJYIONVFULLxp/lb/Bj130xMickM28OGgYaBhoGGgYaBMxgGNmVpcYaJ8Np2IDgJ2ZIMi4tgS4DwZt2wZOOdeBDCnwNKgtD7LCGCNlk2EgKf9QII6iTcu+MBKCDO34non5mXg+2cILwuRGTMPPitnkfje1YZgaHUwZ+D6Oyq0AbLPsKeU0QqnHDCCRkSXlApoe8dCQBYeIRAp6zIRzAq59IAShHlrgb6EtBMiPt6uKSzaxxLoCztFD9DcLAGDQMNAw0DDQMNAw0DO2NgU0qLw+EoAM51cQYNX5EIId4fNOY8E9E4WRbcW6ZhLaEEPPzhD09LBcsGZYbycvTRR3cHH3xwKjvSfPOb3+ycC+PgOfEkRIl1LgjlxcF36wALh7NilCcfcMopp2S9HU5IAaPAsBY5/JEfzDWvec0826geqliVD4qJiJ4UFdEygROaKTJO5xVJ1GnOzt8R4ZaiQyHzzBIZy5MD72psDBYrip2zcrTXuS/a2aBhoGGgYaBhoGGgYWACA+ueAuAcH2d6OFsjlIE8q+bqV796nulTz/GR59SZQWGdyfNvIpx/f3ZRnKiaZ4k4y+Vd73pXnkkSikyeE+PslrA85Hkgc/UMpSHPCXHWjfN9/DmPxFksztwJxajPwvkxoXCVCCveP4tTmPNcFw+ccyKfOPws30eo+zxDpp5vNDwr5W53u1uJgF0lLESZ1vk7YXUq8OSsIeXEMli+8y8ORSzaD0JRynOLwrE3f7d/DQMNAw0DDQMNAw0DizGwtqUlDgFMiwKLgOUOwapE2Ywi8rTjsUPuUE9iVbA85EwffyCUg+7KV75ynizrlNkKrBpOK3YezqrWB1YS1hgnNIdikT4z8ndyL0sOYLlhQWH5sBzjbBx/hx56aO9MLOiWZRsWJb4mTnwFUydTO6nWkhYLEAuNE2JdWZks9VzhClfIpaPMIP4pc+jzos6rnPlTv2/XhoGGgYaBhoGGgTMrBtZyxOXvYanFsoYlnBvf+MYb8DblkLshQfyg3BDUlo0qEPCg+sS45xxLcVkH5KtO1RHXNU537uLU5C6sJOn0S2mxBBWWmPRdGeY/VCYoTHxXvvSlL3XveMc7cinM0tAYbn7zm3ef+9zn8kyX973vfV2cCNu94hWv6I499thUTsaOtcqAgwp+1/bXZ+3aMNAw0DDQMNAw0DCwMwbWsrTw2fjYxz6Wu33iaPuOwK5/BPrYIXeomCiaRcNuIQ6o1eHUab+UHTuIWCUqEOZjgV/frXqlmBxxxBFdLDt1dhDxTbF7hyWFBYWCc/vb3z7/9t1333QsrnmzHvG34VTL7+V2t7vdBguJdJSfN77xjdkefir8Wlh1wEc+8pE81drpusOt1nxdhspZJm7/GgYaBhoGGgYaBhoGZjGwltLynve8J3fYWOJgffC7/gk0x2JQHXLdUxAoB69+9avTEmFXkC3H4SOSweie9KQn5ZUjK6feqeWX2gLLSq961at6paA+n7uymIRvSTrMUiSAJR2KE0WGoy7H2gc+8IG5g6jmx5GYpYbVhMXHzqUxUKpYVzgXU2zAqaeemm3m9GtXkSUvDrbwQDmjRNlN1KBhoGGgYaBhoGGgYWBNDCx2d9n4hjNpCO50uH3yk5+88WX8CotJCWG8wSH3aU97WjrsRpUK59VYmkkn17Ba9M9jSafc7GY3KxEELvMMy0ThiHvBC16wf+ZFKBn5LHb4ZLrxP464sW24hB/K+FU6yYYPTbnWta6V7yK+TInouemgG8pV1uVSl7pUCQVsw7cR16XEluwSW7T752ElybbE1uV8Fv4x5brXvW7RjrOd7WwllrXK/e9//xLKUAlFpRx++OElrEtZRig5mTZ8e/JbjrgXutCFylvf+tY+/3bTMNAw0DDQMNAw0DAwjYHdemCi5RiWBzFYLnOZy+Q26KpTWRbyLnbS5LJRfb4nr4LbWfKyZZvDLj+azYDlHtYjFhsWFm0awo9+9KMsp8ZxGfrODNO1+4aBhoGGgYaBhoGGgcUY2K1Ky+Ji25uGgYaBhoGGgYaBhoGGgfUwsJZPy3pZt9QNAw0DDQMNAw0DDQMNA1uHgaa0bB0uW04NAw0DDQMNAw0DDQO7EQNNadmNyG1ZNww0DDQMNAw0DDQMbB0GmtKydbhsOTUMNAw0DDQMNAw0DOxGDKyltAjR73RjcU78ObH4Hve4Rxdn+XTvfe971wqaFtuhu9hm3MWW4AytvxvbuMtZH3XUUdned77znSvl5VDEOJOoE7tmCML9iya8O+C73/1uRv4VB+dyl7tcBs4TH0Z8mz0J6iHmTQ2ytyfLVpZAfiIgi9y8J0Gk5ZNPPrkPJBjnSXUvfvGL92QVlpZ13HHH5YGgSxPtxpdiMYmivZ3BLsCnP/3p3cte9rKsprhOD3nIQ3ZblU/vPtltDYuMx7jc1bJOb76ybv030367bIdH2cyVKe7XrW51q4z7JebYmQXWUlpEvH33u9/dxYGA+SdarJOYX/CCF3S3vvWtM1jbKoiLmCwZcC4OWszAbLsa+XaVMnclDWGkzaLbrgKYM6Hp5GZge/dd73rXVHzikMZVslgrDUIX0VeZEfOmi4Mm85gCRwoIkGc79p6CiIHTffvb3+6F954qt5YjSvH73//+PH6hPtsTVwoi5V0QQVv9MaAf/OAHe6LolcoQ/FAgxNMDnGKOPwjouJ2BoDnppJPyJHb1FHgSLe8uOD37ZHe1qeY7xmV9vtnr6c1X1q33uu032SIj1plsUbBFWGdIEJn+zAJrnT1UkSLkvsiuV73qVfOQQYcEUmbMUA488MCMVVLTuprtn+Mc5+jD4Lt//vOf3+2zzz75fJh27n6cFwEh3orjAdRrCnwjBosIvZuBxzzmMd1BBx3UXfKSl9zwOasJRU703CE44uCDH/xgf3aSWDDHH398d+lLX3qYrL/HHB15oA3rghgwD3rQg7oIUpdHCjh6oIJBICLw4x//+O6Vr3zl0vYTtpTHoQL5s5/9rMMsxu2r+U9dHf749re/fadX2ig+jZg4Y9CH+uic5zxnnks1fu/3T3/606X40RfqughqGejg7Gc/+6JkG55TgNCWek3RTj3HSn5wpQygnc985jM35OVHrYMIy4ti9cBTjSY9zsD3tT7Dfhqnq7+lpySr/xTU+qyDk2E+2q/f0IdzvxYB2oLLMaxS/hRdjvOZSjNHu+jJ2HXo66K6O3TV3zowl+9cnyhrGQ1M1QXtw8GqZ7WtMhY3SxNT9Rs/m2uf93i5OlRYxFe8X9ae+v3wOpd+rg+Hebk3DnyzCp/U/8Ywmhv2l+fD415qGYvSK9PESCR5Z+QNYRV6UN+xvDGW8bmKd2UYI+T1GBbVa5xut/yejjk3/TRmHSWCsJVoWAklpU8UM6mMRhvMscSJyBnJNs7uKXG2T9mxY0cJBltudKMbleis8vrXv75EALaMnCtS7P3ud7/ywx/+sM9rfCNS7mbzEkU3Tn3O8kNYlkc84hHltre9bbnKVa5SYpaTRR1yyCElzk0qr33ta/N3dFQJBSXrGEcV5LMI059pXvrSl+bvT37ykyVOcs58Q9nICL6h9ZYglnwvsm4oKCUUuBJWkBInQJcQUhkt1/MPfOADJTTxEucWlVjKyXci84a1pIRVJ/PwL45EKCL5qvMieNvb3laC8ZYTTjhhMkksbWVU31iu2em9aL7Xv/71s73wo6w4tbt4fotb3CKj+Kp3nOFUwlSe35966qkZ1TcsbBvye+QjH1liqbCEVSdxU+kDPcQp3n0b46iGUiMCo4dQCEsE3XOCZImgfCWWVXo86hM0dJOb3CRxHad3byjTD7TjOZoMRpdtUd5jH/vYPi0cRXDDpDnpRDMWwXkRxDJeCWWvhDKS9YpBnH0ZJuoSilG2E42EEptRkEVA1gfS6U99qE4PfehDswg09ZKXvCTbh16MobCGJW1KgBZihpX4h2+RleMIiPKtb32r//7Zz352Od/5zpf1CWZXYtkioy5ngtE/5R199NF9eWg1litLHKPRp1yEE99qj/ZVevZRLP9mRGkRq4Phlcc97nHlXOc6V9YnTmHPCNPD9LWgWBYqcaZY0pL+fe5zn5uvFpXv5SK6rHkuS7OMdn0X55AlPYpgjeZEvIZb7VZ//KLS2Zvf/OYck76LCVnyALxi+BeWzBLL5kvz9f1cn8zRgDzGYBwZp+iujtOw7o6T9b+XjUWJ5voEHeFdFT772c/mWJ/iLWNcrtI++YT1PduCxsNyWWICWEQ7H/IVuESfeE5YGJI3wAFZE5O4Wr3+umr6ZbTRZ3baDbmEd4Z7Q0Y1N67xeeMEjNsfwr/EsTU5JtGd/rrSla5U4iy/TIsn4U2h+CS///73v78wvTbuv//+yZ/I3DAeJE+do4cxP4VDf3iw/IwJeDce4viaYlxrl0j4MfHOdi1rRybYA/+cOLwyTCktiBFDJjAIH6Hvayh+SNA5Oum+971vdhDmTkAK5U95gBTvFsFm84Lc29zmNll2HNRYwuqQxEU5UAcDDqiH+oX/Qf5G4DpQvV73utfls7vf/e6ZJtYNU0gaWAYJZUKnEyZ+Ezwg1qqTSe+3335FqP6wKCVBUNIMfAoAhYVQhAv5GACUuzjMsXzxi1/MfAh+aXy/CBwx4Aipv2fVAABAAElEQVSCOIByMgmFEmMmxMagbuquHzAMzMGAoCQ48kA9fa/9jmigsBDacZZTMsuY3WWWFB0D9oUvfGEKHEcTYPiYufbGTKB8+ctfzv6Pc6tKHFKZAxVTcmRDnMBdCDfHQxCEcVZV5qtP0A/FFl3FadobmqCvwn+mXPjCF07cSwOX+q4qLb7x/gEPeED2BaaCWVTBtCHD+KF94a+VgpYAwCxj6SfrpX2VGRncFDdM5xOf+ETSF4WUUo7hOLaiHvVA+UVz6qSdmAJmQ0kE+tl7ygJlmvDQpxQXoAxtgCd9QHmWPk4Sz/fjf+F7le8xI4zMcRrorCotczjB3GJmm/iStzGOzgkI40r9HbOBsenXI488MpmxPh8DxfR5z3te0qD+VZ+58qfoEt6HMJVmjnZNYiiahJt+UBft0pY4zb3v20obYZ3MyYtyMW3tq39wigZMhLxblq/v5/pkjgbkMYTvfOc7KayMr1jSKuFHl/wO3VDcxrBsLKL5VfrEuK4TOfmjS8/qhGZYZh0nFZdz7SNbKLd4D15knOI5+KqjWbSp8pXKo8MCUBzroi/Dspn9UXnHsC6rpJ+jjWF+7sklSjjBjk5MTg844IBUaL0btx+vcMwMXoKn4C14oTFlfFEGtddkybtjjjlmYXp5ww++bVIXVvwch5SXZfQw5qfwTNbhReFKkHkcfPDBqTxVOaXfLnaxi5VYgkoULGvHGEe76/emlBaCxGwRklhNCFuCP5yCSphle6VFOjNKAtUgMxOXrgoUhOJ7xLgIqtKybl6sIbRWQpEwAwgDoe+K0mIWjqFTBHRgmBrTuoSBY6RgqLT4TRmgsCAyAi1M9iUcZhNvGD6gABCW8MP6A1gRzI5q/fPh6N8973nPtISE/8Tozf//0wBBdLT8MVTGz7pRgcUGE4e/Cmb8VSnxDOMeKlfh25T9iHkMmYt+x0QRPLoAn/rUp3LAxVpsDnAzlQqYJ0G/b1icgEFmoGOoU0CAy58AqUCAaG+lMYpRmFAT5zUNpUD9pwBDMFCHFi/CkMAnoCozomTWNsnnqU99aloE9RkmVJUWDPMOd7hDMpea3jPMnNIiLSVQHQn4ChRmTBGgJ3iIZbdMj1acV1XprX7jKj8Kuhkq2gTqjKFWpWUOJ5RQ45uSBtAQhYzSFEdVpNI3PH9MmdrjDLEp0OfwXa0Ac+VP0eU436k0c7Rr7JksDK1sBD48G6O1b6ugHSotw/Lhh/VRv8LxXL5zfbIKDQzLd085NkmkMFcw+6c8xdJ9fdRfl41F426VPtms0rJK+yjK+oHwr4DuKYaLlBZnvuGlgFJmcmeMjqEqLcvSz/XhOE9yicLyxCc+sX+F97HC4eljWjIRNWY9r2BSQYYCdEQmkJdgLr18KHiVVlehhzE/rXjZN/ht5RXGAbkpvwroPHzS8udcveo3u/O6KZ8W61kcgCpY8+LwaR3f+n6FILj0qbAeaQ0tmF+u5VmLC4aYPgjW5nmGgxB6Xczich3N72CUXcyc3eb6H/+MVfPiQBdCIj2rQ7BlHnbVxMDYJQdJ31tH5JgbFohsL98cJzqHRSfLmfvHMddOImugIfwyecwoutB6u1AI8jRoD0O56mKgLc0OvoPpLNy5FYSZa66hTU/mY20VTiuEIpBrpU7G9g4EAea5SrXP7VCSXwihxK8TvzlVh6Db4PQbyk8X1q4uZtpdzBzSWTgsW50/zsPW4YP516LTnwYu7b6qYN01BHb9ueEKj/o4Zmj982CsXQjI/K3twUi6GGidk8krwNcih2hr6bGUmaeX2wWlzTEjz9PNh33Bd2hI6zXv8VU5IeS6sFz16eE1ljy7UAyzHiFQurD+bFjjVt9Q1DO7mPXkTjv0j8ZidpU790LpGReX+NCHMWvr16y1KRTmrMcqOIE/J66HsMj18lCcsxzPQilLWuB47NT1CtoZ1qD6c+F1lfJ9PKbLqQzHaeZoNyYa3Q1veMP0/TrllFO6sBJl36JvPG0VCAW2C8tf9iW/PPTpb1m+aHRZn8DdHA2M66buaNBZZxXgH32E4l4f9ddlY1GidcdJn/EKN6u0T521x/itgL4X8S1pQmno/S34gcWy6lK/tmXpN0MbxlVMBGp1U7bEhClpqn942o3xjMbsKMVPQunpbEi5/OUvP06av9dNvyo9TPFTePccaJN7cq5CLFslX/F73XrVPLbyuimlRSMwLALXPcKqDHZYOYKY4gIIitAOUwCGWTEFiecEN4IBDhx8y1vekgqO3wRYdYRbN69YIpBFMr9aN8xpEdR3MStYugVbe0NjTSfkmAl0dkaceOKJ3Umx68DAo3StAspTr1o332DC6r0qA/UNolcPAjyWejzaAJhRmPR3ciKuiZRvwFegSFCWwuy6k2NZzCIyGYImOGMNuNtvv/26sASlY7b6D8FvHu52joR1owtLVxeWobzH+JU99Q3BVkHdKLZTUPtsiENpDTwgHw6gFKNYHtqQxfCb4Qs0yrHZzjgO1ZSxHTt27NSv6HEVUI46DdvkO3QG9HdNkw9O++dZbR+BA3eUCDjn1H3ssccmzsNvZvhZ0o7vxnitCtaqOKEgcfCLZZOOUkpR1/92vICwmm5g2J5NOex5PoRVy9f+IV0O86j34zRztGuiQImOWXnyLm008QgrWc1y6ZWjZPi35YQDTghBMJev8bysT1ahgXHF9K/2+6tQf085PS8bi0I6rDtOlLkqn1qlfframKg0L3/3w9+eDaGO8+Gzzaaf68NhGfUeToc0qp3+pupgV1AsveTkwyQkfJG6sCAvDA2xbvpV6WGKnw7boG21HbWdw+u69Rp+u1X309JghdwpI3XQLkpuEFWBg6FhvsAMlhAJc3juaqlaXjhQdmKhVAavjMps182LYI11/C6WNtKSE2bTVCpimWoDoVXhYwYJzKSq5ScfjP6ZNRMa6kVZIeRs+RZ3ZmghGH5WiaASM8sBXBAIBD5LAQZAmdN2FguAkagPonJC9BRQHFm4Yi0380G8FTBZyiXtnwK4CkiLecRyUG/l0UaWkWrBkA/mT4jGMkbOcFhfxgDXYRLNARoOmPk6/DG6MKnm9j7tMuOo2/XggBJYldhxfuPf6I8SaZaBCQD4Ui7wTp3NbChZFGQQpuANFqF8eNo/sx+Kgf6kvABb2GN5bZIZnfZZDvR6P7yie7Nfwr567Ovj8KnKZN6jVXjQX5XeWXiqYhNrz0krYv+w6ElnZxjcUiyGyoKxZMbt+5ofvNbZ96o4YQkyA6O8qbv+Mwb1jUmKcRO+SX1T4dj7KUD/FVYtv6Zf5zpHu3a1sfLa+m3GCCjTlPo50GeUG8ojnBgfFWyxX5bvXJ+sQgO1rHrFz5Q5nKyY9LHY6LsxLBuLLOBz46TylaFChGdSFOdglfaxqhiXp4aVsE6+YglwoUV0rsx138/14VR+2g53FfQHC3+daNfncBauBF04tOYEwBgwJllaq0yQto6TVdPX/F3XpYfht6veb6Zeq+a9TrppLrNODiumpbzYDk1QMZGFA2maWV1jPTNzCSfMbr+YuTPP+2N6q4NlWMwqeTG3IxKDINb9UlCGw29ujxvmVc2rtmvbGiytZapFgHlRUuyNZy2Idf6dlI3xt4hUOyhQmD9GIzgfeNSjHtWFF3yWawmFUKhb2GybRoxVII/z9ZuCA4fHxsw71nMzb8/DXyjrF2uU2fbKCLxbBmbUmD/FQh4IlaIh/ovloAqWGwhHeGMaH5oTaxrfWgakAFBQ6yDHxChq8rTMwEolLWFAsFhqXAXUE52EI3gXfhNpwtQ3rEsV4Fk7BF+Kddu05lGaCf0pqIyDckpZw0gpLJSZZQyaECf8xmkIctYlDFg/U3TDHyStY8ryniJCKYQL30srpIAlHkAQxfp3xnCgyIj/QrGG/6rk1LagM8qE/PSNNlDChtvQV8EJBU8/hK9WWkuNJUBRZDmzhZ61QX3gnhIrLtAUmBFj0vAPVil/Kp+5Z3O0Czfwq28BxZEi4hk8LYNwZO9YJNCOyZQlR3+UNW1blu9cn6xCA+O6sQKayKBNgpL1CM1Q2qfGz7KxiDfM9Qnrqz8TtrrUX5f4x3Ub/16lfXiI8cxyWCdD+LF+qWNynO9W/t4Mbeh3/AYdoG1WdvWNHWgbqqb98jduKTb6wmSSwmwFApBp/vDJVdJvKCB+rEsP4+9X+b1qvWL3bLo5zI2pVcqcTBOa3srAw5uDXgjhDVuexxlwUopZWjp0cg6rEAM7t4iF0EqH0yDGdGgLBluT7HTdlbx41KtvNDydXu0s4UwWg6/fPRSz9KyDNNEp6UxoR5G6Te0eUkEOvZwopal5B6PI7cLecyAL5ayEAuZnvyNHWt9waLQLIxhm1sVzf6GgpCd4fhT/OISGUFq6e0jaEBwlltXS+z4IP3eKuHK8jBlEzW6nK2dG+OAgNgS7Aniyw0cI43Re5nAWRDhMlrtIgoGXEMT981AYei9/DznthlUp8RHCK+mi4jWER+5CUlfvbPUN60bvXMdxjANo3frbFzK4QZNwLw84D4tSbmmtjrjBFHI7bgjhfC8N513b0qcglNLcxaQu2o7WOaLVHV5wYFssp/IhwAG6CitEOg5WR1xp9E8olbnt2i4eTrIhJEos7WUWdVzEjDzrqC2cBkMg5nu0wlFSXfx5bxsix+cpUEe0VfMLoZS75Koj7qo44QAeSnSxQ20Itn7DiXrAEZzaeqs/p4CTeCgUmd4urrnyF9HlMO9FaZbRrnpzFg4BkrTGkZXjIxqzM7D2bUxcsqjqiOs5p8c6TodXecTkYmm+MpvrkzkaGLa93ttBgmdoj74wlocOlDVdvS4bi3N9Ig87ENF35Qk2DMDdKruHVmmfnYoxCUn+ZYzaTRdKco7VIV8xRu16qbvz1M02fPwW/xjDKunnaGOcJ7mEr6kHeWYMDHnpmJbwh7Bm9WMmLH1Je76pIIyAfOxuxJOXpa80WWlVHnP0MOanU3gxfmw0Ud8Kdo8a38DzZfWSBq8UpiQUaD+3HM4ixxiEexTMCpj0zbgjfka/hLSZSszlxURu5mqWwFGLMyGNl4m4mlGDANK6EgIh60OjnIPo8Jx9K59p1Qx02XfKsAQgjRl0MJkswqzFc7NRJlLXzYJZr1kkM7HlJw62y+q0rBztY3FiPeAQDX+bBY6IrB9mGJyhLdsNgRVDnVmVLEmsC2Y88odLFpwpHJrBWCJRNutUMN6lxTCnnxpWOtaMoaPyso9YRFjT9G9dipJe/7KImElWCGGZFjom4gpmyepoBg3n476DI2vvZvrGjdnbMpCe+Vp7p/pvXZyMy0Jr2huMN8fAuL7D9GairBJm9dW6uavlD/Mf3i+jXWMErQikpZ/woK2AVfOd65M5GhjXtfIu5WvP2PI2Tj83Fuf6hKUA/i4e/k14zLqwqH0smqyHQ94YAjKPQ7E5gSP77oZV+1A9jFNW3tgplEvvte6WAhcB/uQ7cgavH49f5VfLHV/FUPSWpp8qZ116mMpj7tlcO+a+3+X3W64GbeMMq6XIjLjGadnG1W1VO4NgIJZD0+IXZuRskW2qZsg1+NwZpJmtGQ0Dm8aAbfEsF0JHsACwfISjdB8mYtMZ76YPWVpYSVivGuxZDMybFHZZLWoZNAycuTEQAczSusCyZyYcZuyO0zl/pgYNAw0DXVq9+fLFMmhuuWXhZOkVLmFVx/yGxzMHBk6X5aEzB2pbKxsG/h8GLGFZTrHshCFbUmzQMNAwsBEDdiRZfrLMYodWXUbfmKr9OjNjoCktZ+beb21vGGgYaBhoGGgY2Isw0JaH9qLOalVtGGgYaBhoGGgYODNjYK3gcjzLxTUQF2AKYgtcRmgVh4WHcWw7zcBaU2nbs2kM8K5v+JvGTXvaMNAw0DDQMHDmxsBaSovtrxE7JLdhTaEtYhnktlVRbW0FFrZYNNAGq2MAjhv+VsdXS9kw0DDQMNAwcObBwFpKS0VLBMDJKKfDw6K8s/dcjITdDfaii78iXsWy2BDjetj3ziFyUSwD71iTOIFNxfqo+YnxIL7DuGzPxf+wDx/ABYvT1NlMypIeLpft7a9ltmvDQMNAw0DDQMPAmR0Dm/JpIax5dtu6OfxbFBgsIhumxcU5NUAQHaHNBRMTFlqALWH35SnkOHjOc56T753jIPAQECROiGrKigBcTm8Wqlx+U8AqJEiXcPvOOvKNowKcpixwWAXKg1D46i+NLXaWugRSAgJ6UdBYkmxfdXaQUM1COLMkRSTDDLXvuSBzz3rWs/JUYwGYBPWK48c7p8oCCpflH2V5py3enxSh7BfBYYcdluXASYOGgYaBhoGGgYaBMysGNmVpoSQ4jdkplRVE8BseoFafu4oCSUlwRHmFGhmSJYJi4kA70QUPP/zwVEIcAsiaQlCLoklxiNDhGUnXOSiicDrk6tBDD83zG8an+CqnHgnvnAcRRJ2ZcsIJJ+SfM1X454jS6uRWaUQ+deqrs1ScNaKOzkWSxqF5znOJMDpprRHVk+VGuygpDiTUBucF8eVhPaHkULScTeFcEAfc+VOuNlGAbO+jtDnrx5kNU2AboHIsuTVoGGgYaBhoGGgYONNiYJ1YdnHQXwlryOQZHAcccEBm5ZwY0T6HUWed5RMILs4+ACIeOrNheL6PCIjOUwkrTp6Z4hqHEmZa38Qhc5k+TgTOcyY8c55LLOOUCA3v504Qx2jnWQ8RF6PESbX5PpSirEsoMPlbJEbn0sSBf6WegeQ8olBK8pyXsPwU0Q/DMpJ1c1ZJhGsvEW8jzyvRrqtd7WolFJz8i6BhmX8ccJdnzsShWFnHeu6Lejh7SHTUUP5K+K9k+c5IErF3Cn+h2OSZDxGSfac2tgcNAw0DDQMNAw0DZxYMbMrSwg/DkgsflgqWanYFLJc4JTaUn45lQfRQEUOdz8Cy40TW6JS0XtSza+JQuVxmcWryMrCEY6kG1KBecUBY/nbWg+UhSzS1Pc5qEbGUdYd1xTIWsJQToaV3OotG21lO5KNu8OMUZMto/Fn4x1RfH0tgzp9w0i+LjmBj2mVZSjt9Mwb57yp+x3m23w0DDQMNAw0DDQN7GwY2pbQQrJZCpo5AX4YAwhkQzlWID9NbzqnP+ZPwZaHMgPrtMEKielBq6rthXsN7SkT9bnxIVc3b87D89J/5BqhrBU62FJcx1MP31EcertWRd5in7yx3OXLd8tH1r3/9DO8ep8luKHucf/vdMNAw0DDQMNAw0DDQdTtP63cDVqpQZ0EBYpE4FXMIrCVPeMIT0g8llmoy5LnffF4oFNUK8vGPfzx9THz7pS99KRUbVo7NAisMBeJrX/ta55ReoC58USgeTg2uQBmpyk99ts6VUuZ0acCJN5aOutvc5jb5uyo7+WP0zwm5LDJw0aBhoGGgYaBhoGHgzIqBPaK01KPo7fRhZbjXve6Vh2FVpLOuWBr6whe+0F3vetfrHEXufBaOqRxmASdcR6ET9Pe4xz3S2ZXzLSfZu971rjWrta92BV3nOtfpwl+kO/DAA7snPelJeXVY17Wvfe3uBje4wdp5LvrAVujwn0lrElxYIrKzyjZrTr3aMgXhH5Ntf/rTnz71uj1rGGgYaBhoGGgYOFNgYI8oLXbkhLNqRtKlnIhRcqtb3apHsGBqxx57bPp1UBooEQ996EPzvZ05/Fn4uFhGsQsoHGxTyeFDEo6xufunz2zNG/FWXvrSl3bhLJyWG7uX7OaxpZnCRMnYKmAxslOJfw2LkV1El73sZRM3rFDh8LtVRbV8GgYaBhoGGgYaBs5wGNhjByaKT8J6wdpA8bDUshngY/KVr3wlrROcWsVd2SqwLGRrseWp3RnJ1zIPBUWclurku1VtaPk0DDQMNAw0DDQMnFExsMeUljMqAlu7GgYaBhoGGgYaBhoG9gwGNmfu2DN1a6U0DDQMNAw0DDQMNAw0DPQYaEpLj4p20zDQMNAw0DDQMNAwsJ0x0JSW7dw7rW4NAw0DDQMNAw0DDQM9BprS0qOi3TQMNAw0DDQMNAw0DGxnDGxrpUXwOCci7w4Q3M7pybZXx9lFGeH3RS96UYbi3x3lLcrzIx/5SPeQhzxk0es98vy4447LwH57pLBBIXaTOYgSbAc8DKrW36KTBz7wgd2nP/3p/tmu3oj27HiICg4GdWCm7fbuBTYUEsB2eHGNtrr8Wu6euI7buifK3J1l2PnnQFThCsRWWhWEboiz11ZNvsvp0BH+JjzEnoS9YUzvSXxsdVmb4UeOi/nzP//z5C3uhRDZm2HbKi2Cvd33vvdNZG81ggmMfffdNwf0zW52s4z1Io6MGDKOJlD2ngLRbuOgxD1V3GQ5cYhjH6l3MsFueCiQoFO3RSIG2wEPU810RpX+IQS2AuQjGOJQmHzsYx/rjjnmmAxmePazn70TRNC2/jgwNIMtbmX5W9GGVfOYauuq327XdJRrJ78LPCl8wyogLhXl7Qc/+MEqybckjUCV73//+zP21JZkuEIme8uYXqEp2zbJuvxIzLHb3/723SGHHNI5U8/917/+9W3bvlUqtqmzh1bJeLNpxGF5xzve0YkCK25KDd+/2fzG3zlC4EEPelB3oQtdqHvjG9/Yn20kHWHiQESzW4HsljElsywh/Ydh/YXpR1TrBKS75S1v2fkbAiYnSq7DFof5D9MQ8s5HWlRHM0LHEywCZfzkJz/JMhalWbc9yvz5z3+e8WemzngS+RgzJZjHEYCn8KBe2uk4hXoUxLiu4v/Ia+pMqPq9mED1kM3x9+Pf9dDLiveLXOQi3dvf/vZxsoxqLK2+nmqrD9SN4B7GEoL3KQXILNx5XnBEwBGK9773vbPcm9zkJjuVb5zAzSJaW0Yfq9DXsEB12sq2yns8fmqd4HJRXw7rVO+1c1H/orU6jhaNk5pPvaJ5sIhe9OkRRxyRymT9Znj1XrmCVlZQv2c+85n154brsvpLODemNmQWP5RfD4Mdv/N7lb4cfrdKv1Res13H9FyfroLj2saKm83Q1jgPuDWu8DY8cRVYxI8W0ZGx9NznPjfPuRPEVTkCqY4B3Szjo+P0p+vvOGxwW0EsCZUIPlfi3KESpzyXiIS7pfWLYwBKBHUrJ5xwwmS+Rx11VDnvec9bYjlgp/df/epXSxxyWA466KASTK2EQlW+8Y1vFM9vcYtblFAiSjCoElabEjOy/P6tb31rueY1r1niZOc+v1DGyg1veMMSs+sSRxaUsPrku2Ao5dnPfnaJs5ScLFmC4EosHZUgyHwfgqrEDD3LVc7Zzna2cuc737l861vfyvcxAywh+EoIuRJCt8RxCfl8+E8ZRx99dIkAeiXOO8q63e1udytxnEGfbFl7+kSDm3e9610lTsUuIXCy3vCnHcoKBlri2IXEWQTSyzofeeSRJc50SnypRwyqDXiQNfxf/epXT3zCw4Mf/OASRzyUD33oQ1lynM6dOI8B3+P8wx/+cF+rj370o1kneNIvcRxD8c0i0A/oDk5C2SuHHnpoCYFXwuqWOHr3u9+dnwbjKY973ONKKCLZ1gtc4AIlDsEsMejzfSjCJRSwEpGPSyidfd3CJJtp7nKXu5QQoCWUjXLb2962hOJYHv3oR5dQmEuYfsv+++9fgrHkt3HyeInZ8oby0UJEgc7y1fViF7tYec1rXpNlz9HHHH2NcbPVbQ0L507j58tf/nKJKNhJj2hef13pSlcqYX0aVyd/a4Px98hHPrLc/OY3TzpHAzt27CgxIck0cTp7iclH4lGe3scRHYnfqUz1mbziSI2kT/QSZ4Ll2K7pl9G4NGFFKfe85z2zb40939/xjndMWtEvxmJE+c4xMVd/+c2VJ80QIqJ2loG2QslPHBmTsZSVyeb6cpiX+5h8LO2XMa+B7+00preiT8dt1Ifr0tZUHvBLDlV+o8/wBXIBfaNDNFJ5ivTvfe97y7Wuda3ywQ9+cAM/mONzc3Q0x0fJmyte8Yrlc5/7nGpsC3BC8raC0IrLj3/846xTrPFvudJCQFzqUpcqcTjiZLvDxJlKC8E+hvA1SIXiKle5SgpVAhSjpCQgKIqK7+PYghL+CCWi65ZY/iiE9Ute8pI+u7e85S0lQvkXClpYdEqczZTvMOo4c6m8/OUvz2/jeIFUsOKIg3xPcFK4EHUs6SThawvFBcRsPZn+/e53v/L5z39+ktBC2848wpKVQvxpT3taKmBVacHclrUnCxr8q+0jNGI9O/M04OKcqGyfgRdHIqQCRrhqY0QDLs973vMSz3H+Un4zxEMshyQDVA/KiwELn4RPrM2WODyyEOiUwZNOOql85jOfSSEBFxQu9ONdWCoKoahMAy9Mo6lEDaqftwY+RfE+97lP4vVNb3pT1h9u5BdWuVSqJKaMaVsc8ZB5U8AoXpQeoM8ILUqsusf5WeXSl750ibOzCuH1gQ98INuCyVOyKHWYISWWAqOt6Ivyefzxx2c/DssP35fEG+WaIkx4Kz/WqsscfczRVzZg8G+r22pswPNw/LzqVa8q5znPeUr4k6WCCCf6ihIxBZg6xS4sGTmxQXNhxUj6evWrX534vNOd7pT0Iy9Kp7wpmS984Qunssw+o3CHdaugBXgMU3o54IADMv0cjVdBY+yiA+1UBwpYLHFnv1NkCaa5+itwrrxxI+QZfk/JOwgZY59CTKmtSstcX47zNFaX9cuY1xiH22lMG4e70qfwMW7jySefnP1KOVuVtsZ5EP7+0EqcnVfIFGOeol4nmRSdsKjkO/XAN/BUY0L6yg/m+NwcHc3xUWVrM1lhHG0X2HZKyxAxu0NpMRtiCTEzmgKdY/Zq9jeGqrSEU13/isWGEIu1w/4Zy0ccMZBMEsER6AjO7AWDwbwwFQJ9KKzDITYZRSxHJKGGua6w1ChXPmZuGCsLQIXXve51KbT8NkAwmkVasTzM6FksqvVGHTDnqrTMtaeWW6/f//73i1mNWUIFDIwgpdRVpYWFikJagZC96EUvmoPfsyEeDFrfm5lXgBsWF0rL61//+nLuc5+7fOITn6ivS6zTpnIYpvtUSCkw4RPSl6k8zIGSMIZYLtyJJigF8DlUWr73ve8lc6FoVYBTzCZ8o/IRZklAKq9CLDemkuU3vIfzd1pL6vuqtOhv+KKsVQY2Lp9Ap6hUMMNmkaSQzNHHMvqq+dXr7mjr1Pj54he/mDSu3RUwSUrpFFShf93rXjeVPGkw73322ac84hGPSPxROjDbCiYW6Nv7KdBnLF8UlgomCoQDmKNxtBfHfqTFrX7PAmsmvUhpWVT/VcqrZdSryRF6p2RXoNBeLPgYpWWVvqzf1etcv0zxmu00pne1T+Fh3EY0ui5tjfOQL6sxPm6SUoHlBT8EaIfSXJVsMsnEx2R2yA9MvJfxuTm6neOjtW7b7brtfFqWrZVZc+PvYs0fxMw7nXWXfTN+Z03Pmm8Im/Gr/B1MMdd9+ZNMgTV364oVgmFkfUJg9L4N0cldMIp0pozZVq4hxnJDF4wk/UzCMpC7RfhqDCGsA10QYfrVOPuIj0MoOOnXw/8kiLQLjXzDmn8IsQ3nOPFjCcVlmG1/b21Xfe1Kqf4u6hAz3y4GSqaba0+f2Wk3sRTUhZUg/YNOOeWULiwbXZgcKcN5MGZNf/7zn3/ldVt4kj6ERv08cVD7RBne19PDJXIqOJz51mngYZ7vYuaXDq77htO1dVx/1VelZqy/gxEk3kMRqo+7sFblfcxW+mcOtdSvdpmFhaB/rm+UX4E/Qywb1Z/p37CI3vpEK9xw5PQXAr1P7fyqZzzjGem7MUcfy+irz/C0m93V1vH4Qb/W9u0SRDfO5OIoePnLX35cpQ2/4bf6jfDtiqXSHNfo+UY3ulGeEG/XFYdm+cassgtFYUMewx9oJgRD/8gYQcNgjsZjkpK+JDED77+X37LzyxbVf5Xy+kJOu+H7Z2wPyzd2QghmilX7cpjvKv2yjNcM83K/J8d0LXtX+rTmMWzjZmlrmEflN6EUdnBcgUzCR4B+i+Xs3ITCry2U6XzumbFSYY7PzdHtHB+t5Wy3616ltHDyDE03GRFEYlp2GK0DmKEtvgZ6mKp3+pQAU86igwwpIZhkBYoUwRE+ODs5RTrNGVzjGtfIE6zD8pBpCM6wduS74T9EGMsHSayxFtnF8kAXM750/AsLUSonY6GrPpW5ykvdxmlqGQheWoJjCEMnsFXaM/w21nhTQYjZbjp7cWR2qrctoUOgYK4K2kDID9vlvv5Wf+32V6H+5iDnvR04difFDCZxCn/uj4ldOmPn1TCj74STmu/wKm8QPjpdzNyHr3oB6iH8D+vmWa27+82Cevob5y2/+nzc99LWspfRVz1VvdZtd7VVfYbjxy6qgw8+OJVGSlUsq3VhKZzdYj5W+NVbO2M2nI72b3jDG3KMhV9Ut2PHji6WR2rTJq/qNMQrfFaYo/GKcwKpgrE2FDD1eb0uqr/3c+XVPOq19u+w/upUy1i1L2t+rqv0yzJeM8zL/Z4e07XMIU7W6dNa/2Ebd4W2hjSiP+xWjeWhWkxeh3XFRykswn6YqIdlprt4yBO0UWGOz9l0YvK2iDfP8dFazna77lVKi10YsXSwSziMZYr05I/175yZ6LgKdnWYQYdZtQtzc3289CotAevE6TqTQ9y2VdeZDo03lodS4bKLgcJS3w0zDx+IJNJwjO3CTyV3mdjRFEtEHaEbSyY5E1XPqmiYSa46i6fxswj4puaBsZoFVVilPTWtq22VLF/ve9/7+pkD5YDitwyGDGSczo6xMG2mVagqlrG00M9EKJTKHCqeLCAsDeG4nbNqOCMAec6DMBendctMnnCsgJnoC9u+Y+mmVz5iTT9xHcs0NWnOuFl7KGC2DlYwkx8ynPp80XVZ2xd94zn6txvADKmCGTaFmRI1Rx/L6AuDrJYLeaPZ3d1WzBueKfUYs7GBHm3TrIK4tnPVKysNhT+WSlJ58Z1YQLHcuzRP9OSv0hvhUPtpjsZZNYzH8GXJca5MtHlqWDUJmnVhrrxxfqw2cIcu0DwgsFiXwLp9udl+qfjKQkf/9uSYrkXvSp/WPIbXzdLWMA/9hN/gGSzpdQKF38UyUJ8UH2NNpnzjTfjYmMfo32V8jjUHDhbx5jk+2ldmm938v6nqNqvY7qqOverhjNsdGxaMWONO5qIsywCWBFhDBPqqzGuuHjRggt438jDgCUjxX8JZq/8cMyEwCY7wZ+mfD28IXVu9zXIoIpYCBBOiaFA4KDKUIcsTLCIEue2XTNmrAAWNsJXHy172spyVYvDDLb2rtqeWJ091qctLAhfVwFuUt0VgFkhAURTGYLkJTs3+BUUKv53chi4/jJHSZymHIBLDxEwCHjBqcXb0QawHp+Cy5VX9MARCeapf4YSFLZyvEycGuyWXcEreUDXCgfUm/G9SyOqjWMfP2YwYP6sAJcmfeq0Lytc+1iImYzP78CfqYm06FYw5+lhGX1UJrnXaE23FhNEPOsdc9ZtJA6WXuXwzUAUnekQvhAE6IXDQwSIgAFhj0BAlXjC4ak2bo3G0Gn5h3Qte8IIMIEdICBiJH9T6LCp36vlceeNvlG9JLJz9kx4psuqCpsG6fbnZftlOY1q7d6VPfT+G2pfr0tY4n3DSTtrAY/A/Ey5LmSaoFSgzxno4/OdEhWI/hjk+N0dHc3xUeWQWWUEObRuIGc22hcN3w+4hjQ1hU+zg4QUeAiR3z7hy1otZzkJ8cCTknMc5dgicIO1uicGeO1xCOBa7PIJp9snsyrFDRBmcJysMHVA56nLSCm283zoZxJq7cqQPplvgJBSY3Marzhz6QmvP7Dh9cdiqW6BrGcOrOoVS0ecRQryEr0fviCvtKu2pedqmywk1BkhuF+Uga0uuesSg7B1xbXseQgiqdEbTBl70QzxIZwdGMOLsG85mdkwF883dON5zqrUrS7ny0C8cyyrYxRHLIYmnYKYlZi2F0/IUcM5V17AsZPowCaejdDC9DY5vvtVeO4GUaTeTtKGQ9ttjOQDaDRaMrS9K3rF+3f+2Zdp3dgwoY1VHXBlIz4lb+dqlzqEwpYPxHH3M0VdfwdNutrqtJ4WD9nj8nHjiiemAWPEJT+hHuikIRS13D3Fmr2Bs7bfffoVDtfccpYUD0D/Gkv6CM87gU6DPjAN56Bd1kTaUjkw+R+MScQY2djnCGwPCCOhftI3fjHcPLaq/vFYpT7oh2HEXQi7rrg0ck4dbnuf6cpiX+7l+meI122lMb0Wfjtu4Gdoa5wG3+I0wCZy/9ZU/PM5OwyHYBRZWsgyJUJ+HIppjo+5WXMbnVqGjOT5ql6R6Djc91LqcXtezKHjbaFB7uCJmyrRmmq71fg62YxPcqlUy6xXC2rIIhz5+LpsF9WGethQQOxB28reos0HWBmVtps7KYH1geZqq6zrtgUezOoGSWH2GywzLcGCWwUzK+jF0qjU7jgGXeYUAySyCiXaWzWKQdrG9PJ+ZScO58pU7thaYcaqXGYmjGhYFDKt1hFcmdjNTs9dleEU3HDBDuKa5d1namn+9qq92szTxsaptrO9XuaIPeNL/6GAIc/QxR1/DvNzv7rayaLFuMJ1bRjBD3FUwy7Y8w0o5dJyfytdM0qyXlRVNKn887pbRODpk9eREb8wCfRC7wDJwZEw08tk6/5aVtygf9ITe4ZNTLsvHGNbpy830y3YZ07vap2O8DX+vQ1vD78b3rK3oHl/Ch9fx+xvmtYzPrUJHy/goORChINJyaBPItoDTS1tq5TYMLMKArZOsJLR8sxszBnFNxPcIQb3os/a8YWBTGJiyjq2Tka2rtrELJ8DiwpopZgmryzLL7Tpl7O1p9/SY3tU+3dvxvVX1Z4lh5Q7FaKuy3OV89ipH3G2h5bVK7HYMcELjGBrm9lzrpe2zKPA54VTYoGFgO2GAZdHRH3ziWA1Z3WzBdrAix/8GXTrItzG991EC30x/2wnO1MtD26kjWl12xoD4EszdnJDtztrMMsrOubYnDQO7BwMcfe3Ms0SMXutS0e4pbe/MtY3pvbPftlOtm9KynXqj1aVhoGGgYaBhoGGgYWAhBs50W54XYqK9aBhoGGgYaBhoGGgY2NYY2JZKC0/8ww47LL2Wxb8QX2Krwe4UZYQDXe4sEehH/BM7YPYkxCGL6Zm9J8tcVBaciBcglszuBl7totby8gfbCQ9xkmoXpzRnvdbFiXgj4uBsFdjNpE/ES9iTYFeWoGxgXRzsyXpu17Km6EBMH3GHBHZ0L6ZRg40YWJcPNJxuxN+Z4de2U1oMakFvRIUMN+MMLCbSrHNttgoIFefRCOLGySjiQmRYZQqSgD7DyIRbVeaifGwRFCBtO4CAXuqCqe5uoLRE3I7OOUxgO+GBX4Kge2AdnMCbAFHoaquA8Buet7VV+S7LR2RXQfQERwPr4GBZvmeWd1N0IMqvIIaHHHJIbm91L+Bdg40YWIcPNJxuxN2Z5de22j1ksDvkzsFQoqCK24BpiyYbQXo2HFK32Q4SPyGCUGV8DdFEhUquQOA488FOAFFPlb8ION1xDB06h9ovj8HX0MyLvh0+j6BTGcth+Ey8BXv4hVEf5j9MY3BHUKKFdRRjgQPrOiCexTA6bv1WWXZEzMU5qemH19oWsS+WOSZO4WGYz9S9NnJ6FGdmldge4rVUvC7r22FZ6+BEWxcpfOvWFc6XxW2wo4pVEK1tVdsrzaBtuKqwCAfiO0i3KC4PfKgjOp6qo2+NGXSxSpwbedmVMxV/pNZ12bXWB17HMX0WfTc3pqfGxhQdaKNQ7HYTvfOd78zyHeA5hlrHRTgbp/cbTRvrU7xCft4vG3+132veq3xT09br6cEPdydOa7vadRtiYJc3TW9hBsEAypFHHlnCPL8h1zhBudz0pjfd8GyzPyJEeAkhV0444YTJLI466qiMQhhLJDu9j50sGSnzoIMOykitEQgrI596LiqqyIbBfEschlXCzJnfi54bZ92UCCLU5xfnkmR03AjHXkQ0DKtPvhOTJEKJZ3TOIJUSg7JEOPACLyCsEyVm8UW5yhH1M0K39xFw41ymEstcJYJaZWRMkVaHEMG2MoJunPcyfFwe+chHFhFrw8KUdXX8OohQ8RlVU1naFspkH31XWX7H0kGfl76LA7ryt+irET69xHk4ghdmfUUIFW0XiGWhT2sdh3iIJaMSZ7bs9CfipzgYYQXJegUjzrxFjYQ3+JuCCMSWcV5CUGV6kVIPPPDADXUffieKpaPhwao40R5RTkMZygiSIrCK37FuXcPylNFM4VwU34c97GEZAbPSUwiYIqJunEOUbRElWHRN5U/BXNvHNCMejkjR+lvfhaDdCQcin8ZZWH3UZn1ujKoXCCFZ4jiKjAyr7+UTYfH7OqKZCGWe30do9IwgPIxmPG7HECdin4gKLWKtMWrsGV9x0Gj/WSy75LPhGDbuI2BcUZ4+0lfG4SJYNqZ9s2hsbJYO5nA2rCc6x4PwBnhAK6KWigQcykMmnRt/4343Due+GdbB/enND+fG1hxO8VN0LCJ45bHjNrbf2w8DlmC2NcQplxnmW1j8rYA4dyhDJoefzGR2wscTghETZKf3wvgL9y3IGYYYETRLWG5SSYgoramo+D5OOc6w/pQEocCFm49zQfr8HCFAKGvbMHw9gR4RPMvLX/7y4lsBkihYcU5SfkuZ8FuwnzhEq2DEwj9TXABhi4FFvIgiBHSclpvP67+wAqVwoWBV5hYRMktszyxxVs+GkPWUA8IgYiuU8KtIZUOI9TBrZxjqKtiFD6+gjxxTAChGBEz4CaXQi3OYMpR9HByZ78dKyxAPFDxKTP2Lw+9SgYuzolL5g88dO3bk8QaOMMDABaODzzFoMwFJEKvDP4Ripk6EvjZPQW2bdxizkPLqsgwn2kNwOs6B4FeWdqxTV0IUjime6Ctm5Nm/QvVXpYVyVgPv6ReKIqVA/cawStvHNCPUvsBoxgAhCL9DHBCY6A+dKhO9wy+6ixPXU7EWzp7ChY7DNybzge84pDSriE4osEKDawOBeYlLXCLvx21wbIFw9BTkk08+ucRSWR4RQUjDST1aw/MKxpE+qzgzDtRXSH3pBcxSflWY63f1SjGk+C8a01tNB4TnHM5q3Vz1wf7775/KlzbhBY6KgBMBGcHc+Bv3OxzNfZMZD/6dnvyw8tVFfGBVnJogoffKDwfNa7fbFAPbWmkhYDCOOF6+tybsKh5p1iwhZotToMwI4Z5WgvH7OkjNGiuw2BAisb5aH2VdqyJg8BhYhLWZDIZjlmcmTtANhfVxxx2Xgj6WaJL5G0gsNcqVj9lsHGiYM9lamPN0CC2AEVEUxspKTetK0MQpoyUOBczHcYpoznQJl6FwotRRiMz0azREUS0xfMKwCvZFSov81V0bK5h9X/WqV82fy5SWmt6VUqW/nB9jNiQibizrbZglE7RwQIkcg3IoewReBYom5YoSNAW1bd6tgxP1ExnV2Tlg3bqyolGKhxaCOEAwFSwCOMLvp7ClTFRAF4Sv85/GsErbp2hGP6MRihcY4iD8MFLBYN2poI9YMSgtLDsUctaQCugFze97mkXRuTwRQDDTSuOsrDe96U2TY5KCT4Eaji+CmRK0qtJCITBuWL4qUPi1cQrmxvTc2FiXDlbB2bCeVWkxqaBAAX1tjFB4wdz4m+r3uW8y48G/05Mfzo2tdXE6aFa73eYY2FY+LcPVM86AsWSRfhtOsXXGSwjxDU6J1qaDUQ4/m723lh1MNM+rmUocDCFPz7WmPAXWhodnmYRFJP1uQqHo1+2jz/M8Iw6dMQPtrF0feuihec6EtWfOpzHb3GltPphQnl/CryZmnnl0eTD7PI8lGG7uonL+g7XcCjEz3+APIP9QXOrrna52S2lbCKQ8r4eTZyiF6RwYClufPhSxPL2Yj9ExcapwCJxsh7ZMrZ33H552o17Wxp/ylKfkOTt2v3A8dNbOqsD/SJRRffb85z8/1+21zynQ/JE4Z9td4xwfOFfeGPg/OAE3DiPLXTj6RHrnh3DwXgfWxUkI27Xqqi38cxxdX8GZSdVnRGAu5wbZ5eY05Apowxk7Y1i17XM0M8zXeUshIPNsm/ocXtAr4MhtnIaiWV8nvcQBfr3TtVNu+Y8JwBZKbPqshXVypzOUZKC/QkHJs6BqhsbAovFZ09Sr8RxKVxcCuUOTFfAAeJuCuTG91XSwCs6m6qk9fJqAvoZLp9eDVcbfuN9X+SYzH/w7vfghvrqMD2wWp4OmtdttioFtqbQ42l3IZ4d+hYk5FRb4C0tFF7PmZGR+Y+brKi2EZlg0ujDFZ8ht+QwBg1NOmPWHj/t7g4UDbAUMmqB5whOe0DOQ+i5mnHnrWHGH2jmQDZMh9O2QGgNmGEsMuS3S7pXjjz8+mdARRxzRhYUolZOxwqA+BHYFdRunqe9cwyKRypD899tvvy6WkTr5Yz5D8NuWZLtIYlaa9VIH95SYKYhZf//YDpqDDz44lTDKGGfqsACtvJ2aQ6ttxzFjSkXVIYbA7/Ch6GKGmU6NFDwCL06u7sse3hCwHK/DopQ4p6Dt2LGji2WWYbKV7udwMsb7unWldOnP8Lvo60Mxr31TnWMp82Ep6tO4qYrN8OGqbZ+jmWGetY2UgQrqXRVG9fdX61zT+F2/Catj0kJYUTpj3a69sJ7kuHSEwxAI4zFOOFHXegzT1vtaF7+VCW+UqFhKqUnyKt8pmBvTW00Hq+Bsqp7/H3t/G3N/VtWH/8e/P5NWSPukodo2ASmG+qAJNThVpDCxBqXhppWxM4wWRyrlph2GAWyACTKKgkIQGFNABjKAIpPaNGopiLQdwo3QAtNo08Sa0BDxQaM2DU0aH+7/ei1mHfb1+Z5zPp9zrvP9zrm+117JdZ1zPjf7Zu27tdde672mxuR9fZaMv2m7L3lnWg55PhzzoXlp1zxwKE+n9Ru/T48DJye0xHn0KtTdKxMba/t+MrbjCgOyc3GR9f6b3vSmVZyvp1DUT64WSjvYOB5a2RkuIc9arO0aa+duseBWXTtmO271IXCZaAgsda/PI44FVmGXkdGMw04lPVHsSOOYJYUWAgeNhXKW94OdaC8s9Olt+26wcy3nocUbg/ZlSjQR8iVsaAcUNjapIVIGi4bdai1E7hMEkUUizsdXhDWaHHW2kHBR7AWsfHjDP2kSQghwhA28LeIKz6PMYlc7Z4IUQXMT0e4Q0MIuJoUXz8AfCSPhRWXp05zjCSG7Fzj2LasowbRL8imvNlF5eXcg/YiGgSDDZbaI5qhfsOr6oXXv61Bp1SeNp75HE6pPI+1OO0FI10ctYvpI3df2nld+fUO/og38l//yX+ZfHDOkB10cPWaMmsrLp80D7xc7Z2kjPIkjmPxe47cEOhdppAgeSN8z1vAIFlNpJuJ4YSu0wdyYPnY/mONZVmTDPy7p5hr9wRygjjY+h4y/Q97ZUKScO6/FfKiP7poHDuXppjqNa6fFgc1bjYepjHbPYfeQk54Aee8LVWcYS+afhekYJAR4GONm2mHTsF5oTQCOImhDHN0IfLaE4qw8B6p3pGHwW9zhvziCKbL4m8gJJmHPUpfPfALRU387HgM/7G4S2IvqnyqXIEMYcjxgUjbZ05KE8eeZdOZ+hCFxHicAdqNircWgf0898N5ib9GQn+MjQiTeOCLjgkqwUFZunGELkElYQC0mym9ikRZhUBsSdOZIYMTw4srjHEdhVPv+TMoWQGWxcCEAXQQc10zgU6oF2PPuW6wILBZ07+xDczwhyPnDL4QH+5SVMEswx3PHQPhNI1T1om2yw+SOTxjEd+BahFDaiikdWnfaDXwuwaBP14J+0003re65556EISA8hhdL9n35ERD0fX30E4HDg2cET670MJDwxzu0aGFAmkkTePCJ0DMlPNH/9XMgd54Nm7J129Fy+qOVJNzhmX7b9zPHUcZmGKtmnfAWYJ8NwSaaG9PH7gdzPNtURtfCpic3ccpDa0Xo0zaHjL9D3tlUrjne1TvnnQ9ttnaNraU8taGhecfDQReEA7HzPRli9c8CPlh3xV8Z8R2jsDHZNwZ+PEpiEk33ZZ+MM2N3vDULhme8EhiY9qTcvEZi4LfY9bRY2BsPiVhs1o/xSAgBIfOIneD6em+Iy1CX0WDsDvNPmUJbkR4YXohBmgaOIcCkS6r7od1ZuyEzrgthb5HRMi8ULtUPPPDAuiy9waWLjHZj55Z5xUKWHiEMfxGjRsaVyqC8vD8COGvtPSTdmDjyPp6EViQNVPEP4U3v8lx8cJ3nxqY+EEds6Q7P6DQEgnT5do3hq3rzoJhSaG3Se4V7uHIoK4NFhtDcRTfRNkNcz+7iifvcfkPTkAazvJn2Kav3GRPzOMJX5VXOEBTWnjDchZW/7ssrFoA0WPZ+T0vqvqnPMFJnuCoP3inTfsH4Uz9l9I3/DGt543gWhYCYZfK+foP3cUS3NoSVnn5bbaiePJIYsG4i44sLuvS0n/qGoL3mCU+/0ECtx55+qD+U91AIMOkWbm7BL3+MzMPOaVN2eW1uTB+7H8zxrC+oduU9xKgdX9QHj0EXlNH83Pjb1O5z7/Rl8P3hnA+Ng7mxNcdT64C+FMfX6745reP4fXocuNQBE+1U7cDtvKhVaQ/sOA4hRxqgzx1T0BLZ/R1KysMegpYhvDKusA9whBDutGknI69Dy7ykfMC12PnYiTAK7QHm7MbtYGkWpvekbeernLHQpDExzcMxSLspE00PLVN/hLgtfSp9u3S79t6Qetvzu67v4omylUaI/RTtw75ldfynLznKcGS0ifRbRrGOa+wqd/WBQ+pOy6IetGqPfexj10Wg9aHhU64yCNcfQ9DMI5677757/Sxtlr7siKeOu+omPtGKuC/9Tdq+etanXbV88YTGJXB21nZK7tPo4TNtjbG8ifRT/VEfpnENYWnTY+trc2P6avSDXTyrguHds571rNTK0UjqK/r0tN6HjL9D3qly9Z9zvOufnfu+bT5cOg/s4intNy0em6q5/jBXznH/2nDgUgst14bFI5fBgeuHA4SZ2OWncOAYhn2LhdMRnWMgdiNXmz796U9fIbRc7TxPKf1eaGGXNuhwDkA/t/Fj3D7oYnDg5AxxLwbbRikHBy4nB2i1TPTsv2hhaHjYF7zmNa9Jb67LyZVR64vKgcA82qmlvKj1up7LPTQt13PrjroNDlwlDjiu4bnmOJR3Vx0VXaXsRrKDA4MDgwPJgSG0jI4wODA4MDgwODA4MDhwIThwmNXphajaKOTgwODA4MDgwODA4MD1xIGTFFpYwzs3f8ELXpCIuJvwIs7bCDwQXve61yWwGs8XBoSwJXikXEuCtQDn4iIQA0AoufBdjkHwNsL18hhJXVdpOHrh6YT0U5gi8H2uFQknIE+eFfvStI/s2795FJ0KZkZEm088GTzYtx778u1qPw/FGm6OesD5uRp0NXmkX8HZMWfApLnzzjuvRhVGmheAAycntAB3i4iuOcAARAECg/7JrfJYBKAtcF8SYA7EPLh5FuTyAoBl4rxWRCCD9nkRyMRh4hM76bzEXZqbKgC6QV/nAIEFiCCAQmQM6B/coK8VaRfgdT73pWkf2ad/qzPAN263p0BsdoCPoX3qcQpl78sAtDIiaq/EbOLhBQDuatDV5FGghawCO2fFc4zru1higy4nB07KewgGBMh4EPoC4nGntEgGmFbuELYhye7TdIQfsWhAikOehXNRRLNDQKLlsRuBL3K16RnPeEbiW1ztfE4tfV4nwikMOssB+BaEBTgiCP4GNNmLSvv0bwLsqWhZpvzepx7Tdx/u3/BpLPjCSsCyCWC8RP0+drmuJo8CWDBDPgg/It4cQWzQ5eTASWlagI8FomiC/VRsHV4Jrvew3OdpKipMoFny6QUWaYK3p3YETS8G0JQAqdECgUy3WxHxmPpe+AFHTYK9iYfDHRT4FwJd/6QnPSmjEVd6OXB3ZwAAQABJREFUwL5EHhamgKrzxhtvrFsZnwjENdA0cZLA31vIisDZwxR4whOesKIlestb3rICcoVgNoB5F9NFXWiOpmTHTlhQJsdiBMLPfe5z68d21WX90ENf7KoJfuryHd/xHSl84V1P+CigIb7QbgFxsjDRtAiK+fKXv3z9+K663X///Rn+AD9AuwuA5wij11IB5HPNPR4tJlEq/k2kLfGgvy+go2s0SeomQCTgKSEa7FK1k/hRdnuwSlwjAO/SSOwq07Q/gePXtspB66B/2VUqU+0sCfbveMc7sv9pY/go+EjQRvqKNgGlr33xALz7LsJDwQTVJ1CKM05Q//yuOvTPbfq+tH8bCzYsoP21r/AM+rUo4/gOZFF/f+tb37qG8N+U3z791/vVhx0Pix0lAKcYWVOa1qPyEbhSdGVhCcwF6Njlxn/zDmHDeNWuNFI0QfqCIKDifAkuqz5TCsTcBOXTN4SJ8OnvtggcGmjSuVGTBi131etqz2VzPJrOZeZXUd2ND/NVbWDxPBCQM57VtN7j93XKgdMD6f1aiSIIW4ugewmxHAO2BSriUYoacYcSwjsk9Y3pRWC3FlqYBhp8SrGAtIj/kjDrsXi2EEgS/jnU+QmnHRNIA3OvvKChI85Ni4Upnw8ArnVyEeuiBXJnA/Ne8PVuxmKVkO3guCOWSlPWmGQy5ID7MZkmrD7o6VDztohRk9D6INIRaG5Q53HE1WKRbxGXJq/3/8D3g4lXP+WIRa3FgtDChiLDBOyqC4j9Hno/FprkVQhJmRYYd7D/oOhRCCFZT3DbyhuYCPl82A61mFwzb6EA0FzdYhFPCPeYXJNnIXi1wAlpsevK9/FaGIYQjDIv+YHpB9cek34+0//TlkIKxDHI+jLodtdCsG0xqSdUOpj6COCZbYBX2iOEheS1MoCyD+FwnUb/Za5M0/6kPUJgyvR//Md/PGHSA8E1ywQ2HoWQknnGJJ7jIxb4hHEvPugT4OojrlYL4aXFJN8CnblFbKi+aOvvoXlsIRQkDL8+rU54IA18mKvDOqGHvkz7yNL+HYJ8hgEQDgOcfBw1NP1KWUJQyXbSv8D1a9tNFEdrbVf/3fSOMaNNQ3jONr755ptzDOq77oHJR3094vgqwysYRwGw14yDQD9uIXQ2945d7rAtSj4IlSFUhXYyf4QWrgUybvJDH9UXjaMlVO0k5IjQE+aLQI7dyb9jzmVzPFoyl6knqH4hDWIztKTa45nrgAMi3Z4kWaRi956TZ2gumngox6DYPbfYiW9NL+xZctLatBBZZCyUr3/969dFiaCIuVD7LJKGyS4MVnNxjh1NDiyxhSzWYrWIKWPi6CdDC1PAnbdPfvKTmZRJ2GQSNjj5XmgsWuyAciGpvORBUEA1AW8SVup5QoKFvfhJeCMcEgrn6lITnQlS/CR8JFgVWehjB9hC25OXCF/iOxFAiwgsJvpeaPF9rm76gwXLglYkfWVAofZuoWVpsVOv21kfMWr6d+rmUqEljiqbhR1FQMgsQz9Bxs4827LS7T/nyrSpP1msI+p2xlOSljQs3PqGttKvCCxFhBoLGKHFBB62WfkuniJ9LjQ2Gfeq3uk/Cd6E9Opz7ulHJbTM1aFPy/e+j/i9tH97lkCmf+tbsRNPITeiuruVVH1OrKlNNNd/p+8YA/qPflP8IqQRYEKbtlVoIZSbB3pBkLDgPQIy4fyY5Sa0mBdCm7auQhjvZ7/Q/ki+Yn0Zy0uo2kkMKHHE0Bz/8OgYc9mStl0yly2p53jm+uPASdm09Mos55b+qInZmTgiEvG2NxAUK8Iz+5BjJ0dNMQA3vlaq01ggN95ni9HHYqHidxbvWIIaFjn6iIU6Vfuep+Z3jMArA6IoT5DXvva1K9F0e2LLIzaOyMuOU6isqasdBTmXjgUkjz7Y4xR5p6L5uiZ90YC3kSiwsYvP2DGOHcSMoXKGbipS7q669GnG5J51dGzTHz84KlE+fHQM59iojyvjGALhUVFMmovq5qjw0RFluCh2lpmP32LhODpwtBMTXqrORUCmht7W1pXOrk82JVTqSMwa/I0d7/oV12IxXf/uvywp07Q/9e9PvztyZOyozYuUhRE5cs7vvqNL6SJ2WSGkpmdcXpj800ahTToT48jRQPX/JXWYJLn1567+PX3JODVGxI2JhTj7R2hBcwyFZmj6eP6eG4vTl/RhxwvGQfFL33XkihxXbiLjEF8dJxU5uvKHjl3uECyyfI6Mi7SPeE41F5hLzD8Mufchc4U+jeb4d6y5TF5LeDQ3l0ln0OXjwMkKLdUUzoyf/vSn52IEfZNNgbNcpFPvK7QIYud82jm+hXpKhfIpyNsmIjz1BrrKZFHjtiyYW0+xA86fzpsFUIydTD4jDef2UxL4LrQCK8ZmsatfffCDH1y9/e1vX4XKP+0WvMcgrScTScjS60sEuRKe1he7L+wmCEQRqTrtOdhryIMdxJK6VFLsUuRLoNRGPdUkSJialrd/rr6r15K6qZfneqq6sxNyzm9hY+uhndmdWMjrmf69Td97QaruT4Oo4XctcPXMts8lZVKfvj9tS6uu42mfv+/FY2n5PeWR34TITaTO3unTVOdKY0kdNqW76dqu/j11YVXe0GimIMoomYBA+OLZt6099+m/VT78rLrWtbnP4nG/Wah3rla55VntXHm5tqkMdX/JZ9kOenYJ/44xl91+++2L2nZuLltSv/HM9ceBsyvgw1w/ux6LIG3AHXfckaWxS6ZlsJMgHITa9VylZNzK359BqMW6nwi4WsIgsZvvd7O7MrTTNVH5ZJCKlDfU4msNg90QwYv7pEmCwGICnxLNgN0dw9U4xkmD1ThKSgGDsaVdP0NFu+kSDOKIYbEmgaDBmI+GIo5W8o/2R9kISTQ6c3WpMquT9rCA0AbVoid97YivNFK0Soz7Slthh8XlnGBWpC7nrZv08IKHRKj8M2leN9u8Uarde1fiY7sW71um4se2hSiOiVLAgWPEYBaJgEsDg3+i/BKACG4ENqQ9aSt7bVfeeOgfg2WaImlUJGaCuz6GDq3DQ8mf+Zjr3329lcEYYoDJyBVpH+N2m9CyZCz2BaJhsplgLE7biPRVgj1Dz6kmtN7Fa/3my4GlU+M4jtdWL3nJS9L4/djlrrFe+V+tzyX8O8ZcFsefe7ft1arzSPficeBrOuQTKbcJ5DGhnWARb6I14QJF+tjHPpb4Kccopl3bq1/96tRi8PIBoGVhY5lOWOBdRPuwSQuzKf8bQ1XN68LEGmfcuWCEnUd66PSTK48gefWW79P0uGPzAnEMZmGidbEQO2JxDMElWxos/pWXxkhZqbeXkIVa/o6yeDXFeXge7RDWeCQsrYu8LIIEKu3D60M5ebzYRRXODcHLQlOCCoHzfeElQnCc0nnrZlcW5/TJf9oBAqJ87R43CS4WaEdxPC4cKfHOAVzVt9m0jPv+3rdM0qdNslgSPAh8/dEWYdpi6hgsjFFzjOhrBE8LvsX0lltuWYm+rC0IwLR0jv20xSbSFtIlxH7iE59ITSavs+LZIXXYlI9rc/1bHyfw8mIhFBCE9Xf9CT+U0RGGdt5E+/Rf7xvjz33uc7MP6weEF95YhBEL6zZy/Ga8mEdoT3mTGYf4b+G/2uXeVq7zXl/Kv/POZYSwfXm0rW42iDwKrReDLgkHYpI+KWJMyEsjFtgWk3d75CMf2WLxScO8YxU0FoL0FGAkGpO9s5UWKuL0Pomd+tZsYmFO47c4WjnzDCO4mPzSCyEm3hYq1BY71DPP8CoIW5XMg0FhUW+oGEJaevXwoIjIuWkgGYt5i4k8H69yMx6MHXVjZBpCwtqzivEaQ8w//uM/ruSv+GRwGy6CabwbC1IadjKODTuffHZXXcp4jyEuYlDHWyUm6iYt3hSMlF0vwk/GfmGPks8Fom4ah6qLdmYYjObqxhA3NDdpbFpp86SIo678yZiQcSKDRUak8sTbWFxaCCP1ypnPcHfOttLHPBfutcmP3nuoyudF3kWxMLUHOmNgBsS8uTbRXJm29Sfl5rXE6JZBaBniyoNRMMNRniJ4yjuINxPPGiRP40U5tQmvFsba1b750OQfY07G09LD49BypnEvPszVYZLUTkPcuf7NiDq0fdm3GQgzZg1NUDOmfDJw5VXFO28b7eq/m94JoTY9pvA6FtPsD2GjlY8aT66jfpz6HYJNGo/zJuSdpZ+4ho5d7hDczvQBeYSQlEbLZSRuzBt/2noJ1VjWf3pawr9jzGVzPFoylym3vmsevPvuu/tqjO/XMQdOMmCic3a2CIxCGRkywLwaFAtlqsWp2KnW7ZTqmONq5DfSHBw4DwdoGGhPjIk6bqO9YEwdAuAqJu7zJD/eHRy4kBxwZEhbfFHCoVxIJp9QoU/KpqX4QnBwTOTvahIDPHYX/gYNDpw6BxzZOIZkJM5Div1KYLusvvKVr1w1aPZT58ko3+XmAA8wx3OB+3K5GXGJan+SmpZLxP9R1cGBvTjAvostFoNRNkq0kmwreN+UcfFeCY6HBwcGBwYHLhAHhtBygRprFHVwAAdgcZRrPu+fq3V8Org9ODA4MDhwahwYQsuptcgoz+DA4MDgwODA4MDgwEYOnJTL88YSjouDA4MDgwODA4MDgwODA8GBkxZaGB5Cbt0Gp32eFoQHAbgKHgPMBZD54fq7+upXv3qeZDe+C28GPkoBmcEDYUh5LQjMPgwU+BaHEiwKNhM8VY5JU74cM+1rlRYPtHDjTlDCJXnqd3ByYLCg64EHS+o9nhkcGBwYHDgGB05aaBGeHDQ7sKljEkRWkOCg6yMCcYK1QVF94xvfmCB2BY52rDwJQxB+2SIwnBSfhzv31Sau3AQkKJZArw4lAo/wCYDajkk9X46Z7rVMi9AClA1A3RIS96pH3r0eeLCk3uOZwYHBgcGBY3DgJF2eVQzCodgjFvljEm2B4IUg0T/0oQ+tocvlQUACSQ+VNsCkdsaEgQtgEYfiuyl2iR00TRHYfkH7qh7cud/0pjddUSX3aXkYVW7DigGtDjF1aawaaJEQUgMMbmMZp4VQBu+ozzbjTnUJ3KJVALJNX8/f7luYp3GY6mGCGy8Xfz1f6r7P4oWgcJt42z9b36WFoKpOaUm9+nJ5f8k703z631UHiLJ9fBdYQMILFG3jQd3f9tn3r3pGf9N++La0j9S743NwYHBgcOBCcOAUgfOgtgakdKK9QoeNqKtHKyakTQiWEWtnY5rvfOc7E4k21Pcb7wc8fKJ2xmKaSLqhxWgBu99iEUnUUQiTUDuhU0K1jXgkmR90UqircUzUIMrGcUum770IW5CojtB5IXAGTH+L2DJ5H1JsaIRaQPm3EGYyzVtvvXUn6i3EyrvuuisReqMTNqideAgFcxNBBQ3o9iyD5+UToQkSAdbz0GgjxkqGpY8FuIXg1CJGVItI1uvkIvJtIsO6532ovRBVkXsBF598gW6qLnimHYovoaloseC2cN9NNFjlgHQJzXZbuUPobBE3KXmM1/KOuDFr1Ny5em0qV0Di7+TFusIPfSlk0UIJdlkfe/zjH59oy5CLoaUWr0KL1yIacAvNVbvvvvvO8ADSsnsf//jH19mE8J7X9EeottP+FaEcGhTTELabtsE3PA1hdY2k7H4EtWwRa2ud7vgyODA4MDhwETlwcsdDdpA0LHaLjlS2aR1icj6IqPFpR/ow731CFV7eEdKUvvSlL2WZBBYUuPC///f/nkikYu+IFWR3zWZBXB/2MoL3xYKVwesEVnvNa16TQHaObYAiITFyaHZC0Mn0RK0OwSkRgd0XyDBg9zNeD9sekZ/VYReY0rve9a6Mp+JoSFwasYrEMxKDZhOJYSReTQg6Gecl4O1Tm/KGN7xh/TiEYvVXp9/4jd9IO6NXvvKVeZ+2IGDkEzvEuw8++GDaCSm3QHyQXPFK/Bj2MY5EBPTzV3wBJIhn4oiwEcFP7ysDu5xNFBDzWR58gV+iXN6rAHtz9dpUrs985jOzvNhUlromJhRNnuCZ+gitirhM4iAh/Rsv8SxCDZzhgXhIda/SowFyrY4Wp/3rhhtuyHbjAq0vOdoMATX5of6IVkxQzBCkKtnxOTgwODA4cCE5cHLHQxZlEVPZm2w7gjgPpwkLjj56lX2fXt0jWEyJICWgGnsYAQNR7HxTsGCnUovCd37nd+YxU+URsWoyOCH7mf7YhD2EwHfsaQgMng9NSwaJ+93f/d0Ugj7wgQ9kwESLt7JFLJk06BU8bhOpn8CEAMgcC6HHPe5xuXASCETRnpKAjwLsgYIXrI8AISgaQaCIoCc6dgl18qmFGCKlhRk6a91XXgu3IJIVIDE0RCuLbBGMEUEb8cXRGKGKoCKiNQKaRuhSbsEsN5Hga2yRCABIO+AlWlIvz/XlEjRvjhfe2UZ4LwChMikbI2/HiJsgxiHb9jwQ6HEJ9f3LkZBjTRGLKzK5+rz//e9PgVF6bJoEQRw0ODA4MDhw0TlwUkKLXaqFUWRak/lUcLDbtJu2MCH2AjQT+xDBgM0FgWET2Qn7I6BMyeQfQQ/TFkZZLag0CKFiSwGjnrdjLoGlrm36pCmgiRCluZ5nw/HEJz5xRWhx3y7b4tvbmESQwK0aqAjGmHyjzbDYF0lLVONNJD1aIhou9RFZl1aFgFQkNlMf7kD7qDeKQHHZJjfffPPaBsU97UcDQGhRL/Yc24hxqvYlwBWxe7EQ7zJyVS6xeIpo0KpcS+o1LdeSdyqv6ad+E0dOqYWSTpH+hv/Hor5/ETIJh6JU80rCb21IACpB7lj5jnQGBwYHBgcebg6clNASkZHTNff5z39+agksPgxe7eh5r9jJ+zQxIzvZfYUWC7F0wsYgQ9NPG8CiY2dsFzylsA1Yhc1EHoNYiBnt0gDQvvREmFpCjr4szBa7nkqgChuXFE4805P3amHur/tu541ogMKOIb/XP/zaRLRaL3zhC1MjQ1NCy/KFL3xh7ZbrHWXoj+p8Vz5E2KCJ0U69Jsk9WhvkeUbE28h9f4SInvye8qe/L03vFVWZ/F5Sr2m5lrxTeU0/lRP/CV6Oy3rqy9hfn/tOmJxS378ccTmOorF7ylOekpqs2267LY8Dp++N34MDgwODAxedA2dXw4e5NhFyPhfHKgbhIYwVU/NAWBDZlvr9PETY4L1Dff63//bfPrNIwlGhnaDeL1V7nxd7Dloexya1k2a/opy7qF9I++cIEVyR2T4QzhyHWfh4TiH3HUPRfChbaWMIbSXY9On5ThtES2Rh64+C7L43LZwWWUdQ3/3d351aLF4nFkqanl4wUm9aHOkjbtB1H7+Uh/aldvcWU3ZBbFa2uXf3fFFPAoi6sr9AysEOpvLMi5N/yuXvUY96VN4hWEp3ab365A55p38f79QXr+H+lADnKG2bG33PgxLYlKMIzwmF24hGjC0L7SThBQmg6Dio2mfbu+P64MDgwODARePA17eoJ1BytiJ26/XHEPev/JW/kscLZZ9x3mKyGXnVq161et/73rdiSErjgizC7EBgwvzUT/3UehHs87OoWEAc6SDCBS2LaxbpbUSAINhMFx9CBK0SexA2KmxffuZnfiY1QRYz99knWPwd93jfs+xFthkSh6fQ6tnPfna6bDtKI0x89rOfTQ0RO4spyUO9CBYWfwsmwY0w5lijyHHDW9/61hW3a4syw147e/S93/u9KejhGz5Kg10IWxWGt9uo54vF3vPqCfdEGrQHDFmf+cxnbksij0GUhSs7+xjGxzRMS+vVJ3zIO/37vj/3uc9NHjjmxCtHZI5t2J1sop4HtFX+2PYQYgk6DKT7dpimUUJPGTwTkAgshJnqb9ygtWkJw9M0xu/BgcGBwYELw4HYjZ0shadEi+Oco7o8q2ws5I2raGhaWhx7NG64PrmFhjZlKz+UJxbWFot8uh6H8WO6J4dNRYtFKl1zuSpzS+0phJF0bQ0NSIsjsBYGr+kG6xllCQEqXWSVIwSBFgtf1tv9WHja3Xff3UILky69yhnajBaCg9sbSTn/8T/+x1mnWBTzvTjyWbsCT19SvhAa1s+HFinrFVg2+SiXZ67YoaVKd1r1D0GlcQ8u+tSnPtW4p8fCn8+ElqiFEJM8CUGrSYtLb089X7iSx8KbbtPqGLYayePQHrSwB+lfW39XrtCwpHs8d2fvKWMITvnMXL02lWvunXXmD30JYTXd08vlOQSM7K+hZUm+K1cYQrewOck3uFnjxb/+1/96XcYQVJq+gQfh+ZXftRsehmFy07+4j1deff8KzVwLQTd55R0u1tr+H/2jf5S8kEkIc+k+rh8NGhwYHBgcuMgcuNQBE2kh7FDthhl0MhS1295F3mH3wtuFtsMRzhJiUPvHf/zH+U4dG3jPcYhjH0csRVyUQwjII5q6VpoEXiIMT+fK6T11kycgPZqMXe/Y2dNUOOIIHJUzx2ZVBnWnZUG8YmhoenK0xeWYVkkZaQ3maBNfaAm0CbsiRqfb6N3vfncabtOO0WooDw+uvlxL6jVN/5B3pmnQbuAnsDvaPRqVbTTlAY2XPsYeSL9cQjRhXw6DaMbWmwye8Uq70F4OGhwYHBgcuKgcuNRCyyk0muMldjowNdjJsCVh3PusZz1rBf9l0HYOlNAS2pEUyrY/ebnvwHaBXQMPiEA6aHBgcGBw4KJy4KQMcS8qE89TbqByAM24OcfxRhriElh2gcedJ7/x7uXjADsn+EeDBgcGBwYHLjoHhqblBFqQl4yjHCp+6n1HOYMGBwYHBgcGBwYHBgfOcmAILWf5MX4NDgwODA4MDgwODA6cKAd2W52eaKFHsQYHBgcGBwYHBgcGBy4fB74x3CDvPqVqwzuBEQLfA3x7/fF84QVzTAJ9rvqwYHhqHEq8RGC/8J45xNCRVw7AO543PYz9oeW51u/BE+Elw2sHTgpAuD7G0LUuz9XMj1GrtubFtS0swtXMf9+0BbD8V//qX63CFX/fV694PtyuV29729sST+eKm+PCmgPGM1DAiDyeHluOfXkZFqbO+sGFXwBs8lZ0hMxTTuypKQkpYi4DVrkLjHH63vh9lgPazhwG2wqG13ve857R38+y6GH/dXKalloU7rzzzlX/1wfvOwbXAG8BMhNF+e1vf3uCmR2aLi8WAocYQoeQgQJQbVeMnUPSvRbvAJEDnMZNmG0Od91tCLjXojxXOw9Ab+IkQSi+CAQ9GWLuMYhbuboP2s4B0bsBQoJDEA2eUT3gSBuaQ4g7PEN98ceALQJy3ETGXR+XbdMz49o8BwK/JOEmKgisje2g0+LAyXkP2U1YxEV6PlQIWMJi0XxN6NBK7WRA6R+i5TBJiWf0ghe8YMVL47IRAaVg52nDaIyuZ4KBAqX3MpIo4P4GbecAoVYIBxsi6NC0jmJ5CWx5CMH7gdkkhAjsngAlTMTuQ9Ia78xzgAcnz01x8MS1IzQOOi0OnJymRewYatUebO1qsOzf/bt/l7Fhbrnlloxp1C9EhCbw+sIJvOxlL8sYRaI7O7aiTSj6vd/7vdVLXvKS1T333JPPv+Utb1kRYooEdzRh2XWJeQRKfemOixD1T/7JP0kQN3GBQOjX7t5kKE4TWH47rx/6oR9a0VBNCSAdlbEgiDBgBEXE322k7NT/N954Y4K0eU++tFLKfVsE4gN8J6aR4x+DG5aMsoL0/8//+T+vfuInfmL18pe/fJ0F4VNYAWB06uOoAlx/0b5lVA5BDaUhTYvoRz/60Uruis9f/dVfzfyV9e/8nb+TEPfaVxqiIzvOk8bHP/7xfJfQrC7TGFfeV38AboTp2oFpE4Kaa8oTaLSrz33uc+ty7Krf0nbc1Y921WVdiO7Lrn7lsUrPwis2l6CgsIMQLCF9o2hX3fQzfRT/8URagdKbGsV63zM2DTYL4lZpB8dZaFN/czQypV19dvps/V5SbscCwkfYkOi3joCLdvFI/CxaR2NEfxHXK5Cg1yEVpGHeENCUJsYYm84blY9P6QGjxA+x13wiGi9BOWlgHP0RjnraxZelvPXc0rGGJ0vmzEPa/P/8n/+zet3rXpewEOYx4VaM06Jd7eGZXX1+Oj/I54tf/GK2j3Gszw46MQ6cGpxvgGAlZHxMGC12tS0CF7boWC0G0NGKGmirLSaMFmBbmWYsSAmbH2eY+Vte/+Af/IOEUQeJDno/hJcGtj8El3wmJvIWaKUJOx9q2xYB61qgtzaw8yiiJLcQvFqohlvEkmlhB9Fi0snwAflA96/g2QsKPibI5EGoltuHPvShFoJBC5ub9upXvzrfAj8fWp0WiLEtBKEskzR6ioHeYuFJCPjY9bXQJmWYgli4W0x4/aPr7/gAYj4ElRaq5haTYkLKq1+VEbT8XXfd1e6///724IMP5jPg+8Hfx7n7mRAFodZO+Hg89HzsXDK9EBQyz0PKiM8g8iNuVIsJNUMmgMEPIXRdj/5LCEkJ768/KUOcVWfYhDj3b+obEb+zDtoyFsUGhv/mm2/OegihgGK31ZQ54gC1KQx/xD3KdgC/L61YeDMkQwg3ba5+S9pxrh8JAbGtLsqu/kIwoLl+5RnP66cheGZfxQv9OBba9t73vrc99rGP9dhs3QLpOftS2P1kmIEQAlsI38lH/S9iJGV/jHhjTf/yJwSDkAexsG3sb4HunHn3/3b12f65+j7XJlVu4SGERzDeQ/jKkB/6AdrFo7nyzM0bVc5dnyF0ZeiKEFhy/IfQnLw2LoR7QLvKsWksb+LtPmNtyZx5SJsHOnaL47bsw+94xztyLdAeIexlH1LXXe0x1+e9K/xHPz9Ic9DpckAk2JMhC0ZE+M1FyYQR2o8WO/dc6Cy6xyLpWqQsYMjiapIiHKEagGIRxfFHXrOAhUYjhZmQ7Fug1rYAhFsPHA+FbUum67vYMoSY0DT4mTGELJoR/DB/9/9qEimhJbQZmXbl7VmTehjZ5WsWO+V9/etf3ydz5rvYShZzC3FR2N1kjCEL7ZRiZ7ZeXOpeGBO22AVnHKIqo7hHfSygQPTNsnoWXyzaP/IjP5LfAzgvYxRZKBAexg40Fy6/9y1j7K5SCMMfeaGAps92CU1Y/p7+qwmt2rrqRIgs0t5hl9NCI5SXtJ2FOo4Q87d2s1jj31RoUVcLb7WVhS12141gPFe/Je24qx8tqYv6l9Ay16/UQXuH9mPNXwsNASbO+M8ILXN1s/jr/yVoY6S+SNh+IARcfJRP7IKTx/6F8X0Kue5v62/rh+PLXJ/tn63vh5RbXfQHvNzFo9AS7RxDS+aNKueuT4IUQbXmFs8qWwktc3xZwtt9x9rcnKmMh7S5PmGu9lkUhv/Zp823u9pDn53r89P5ofIYn6fLgZOyaWETIUJtDIBUm1JKhRCzikUvj1Yc5fTGZuK5OHfch2LiSDW3GDuMrUS+dfzB+yW0GqkOp5JFrPR5iSB5ORKJne0qFu08X6bW7i31Qyu09hDwnXeJYyUqTep2qnYq4V2k7rGYZZRe7xaJGxOLVP3MOEKxkK5/T79QiYrb42iqSCwfcXDcm5L4R47DxP2h0o4JJlXOvBL6I4FYdBbFW8IjKnVIv9TbCA9D6Mn6+b1vGZ0vMwZ1JFZxlLRjCA1pQyDNTcRzQ7mRKMi8AkIQOXOsxJCx2vLJT37yKgIYZtRt/NPntD3e8ZTq6aabblpBNQ4NQR4RPe1pT8vjkBAqZ+vniEs9drXjrn6Ev3N1qbIu6Vd445jRUVfxF08cXyB9oWiu7RyLSsORWRGeshmIRTP55eiR8XksHGlfxmPDsYYxWrSrvy3ts5WWzyXl1k97ezp2TLwLRVt3zLuLR8bstjG0ZN7oy7rtu/hf5iV9rsg4w1+0lC+7eHvoWNs2ZyqX8u7b5o5QQzDJY8Salx3R6/fmSWN1W3vo847QtceuubSfH5Rz0Glz4OSEltBunOGYCcS5LRhyC7fzfQa0SGfbV2jxLmGF3UzsutZ5MZRjk2FiKnddeW8irr3+TMA9maRDPs1LUG1jx5gGXTyUlJ+XUqhc0yuqf6//bsJm2ErQcWbdUy0krsnfgr2NlM0zUzdLaZThbP+uAR6am5xULM5sEAgDFumqk+dNiPuQMvTUGyTuW0ZpKf80Tb+Vfxtpx5rw1F192BxM+5r+hL71W7817V3YPd0YNhzOuLXbNF/P/sN/+A+zrdgtsMeIyNbZzmwBltRPmrvacVc/MhHP1UUZ0dJ+pb9squfXUvn6/yV101Z9e3u7+hI3YF5nbDHYGrEdiSPZNHysZzy/q78t7bPSKVpSbvWv/lLv9Z/beDRXHun6U4ae8Kmvc39v03eLtnf8Fenj1W5z5ah3dvFWWtKvNOsdv+fGWj07/Tykzc35bHnYFtbmp9IlSKJt7bG0z/fzQyY4/p00B77e60+gmCRmRqW9EaQByngLlorO6x7hwl8Z7e1TdK7T0rTIVDo+7aYtHmGXsE4u1MJr41eLHYEm1MQpLNl92bXZ+ReR/GuXaNdIUGHIpcx2DAz75Nu/U+/WpwEEa4Ex342xYFpc/TFUlMZSIniIlPzlMBwtsjshhLg3JcJc2CykwVvYUaRH1XOf+9ycoHZNqFOhqNK168Mru8IyIMb3sIOpR7Ic+5Qx1MTZRr3RoQmUtoygsYRoDvQjdaL5Kv76rf8VEUbwLo7lMk87uinpEwz58I5bq75VbusE1X3bYJq+37v6EcF7SV2ks6Rf2b2LzM2zroiWk/DKQLun89aNd4bxwivGOJa+zckmgbrPt/9+SJ9dUm6aVxAGRRZbmgeC/C4eCUi5awwRiufmjcpz16e5gNa1N0bFi5pXDuHLNL9Dx9q2OVP6h7S5udAY91ljldZae9DY7WqPd77znUeZS6e8Gb8fXg6clNBiwjQRU+lZOHVWxzF2vI6GzksGNS8hO+xv//ZvP5Oc3yZnmBYGBOL5QvtgkfyFX/iFnFxvC48AxMXZAI0z09yJ09rYZZdamYeCSSzsR3ICpHUxSfNWcRS1i1jhEzDg1FgEAe3xyqFlWko8YxwH8eSxKPAAkZ6BbrGekt2fnZU6EWzU2UJMUPLONlIXiz3PDu6ZRdJSD4Je8dDCxGWzBJ19y2jC1w/CIHYFH4YXBg1IGDqvwrakst75SbjhDRI2Uun5pE2kdfvtt585+rH7B2YYBrapWt4kFOEZDwMeMDzLHNfwZCJwOhbZt36bCr6rH2nfJXWpdOf6lSMtgire3HvvvSm8iEJOeJsKbeetGyFKv9LPCAXGneNJO+ulgsshfXZJuQnXvOIcF2vfMGpNoc+mYxePzCtzY2hu3qi22vXpiMqGwPj8xCc+kfOCY/Xi2yF8meZ36FjbNWce0uY2boRZUcqtA/oLcEceezYau9pDn53r89N6j98XgAPR8CdFMUGmsWsMvBaq5RZCTONRxLjsvBQDPI1TGUpuIga6j3zkI9OglvdQTHAtdtwtFuY0HmUMHIJUvhoalTS0ZLgYGpo0IIyFLw0wPeA5HiU8a9QhdvgtJqwWC/wVWcfk3cJtsZUhrgdiEk9vC++GlqnFYtJCgMh3Y6FNb4HQ2lyRVn+B4Sjj4b/8l/9yekLJIybh/pEz33l4xC4u6+uTMTRjWtb6VcZw1TzzTmib0hMLD8p7hnEqwiPeTbG7TR7FJNJikU1PrUpk3zIyAo7FLT3LYhLMtBjkMeLeRAztQiBtvXeEvsQzInZvTRq8sBg1T/sYg2W8C4FznfTUEJfB7Ytf/OI0FpSWuvLWqvLsqt+SdpzrR3N1UX9lKtrVrzwTQkPjjeKd0AxkHwxBLF/vvYdc2FW3EH6zjzIkLgqNWF4LLVQac/PIY6zLgJSBt/RD2GuBSLq1v1Va9bmrz9Yz088l5WYkzGPMfBB2SukpV+ns4tFceebmjcpj7pNXDMNx/ZOR+B133JEehuU9tKsc28byNM99xpp+OjdnSu+QNudNZv4LrWLOTbzQeHQW7WoPz+zq85vmh0p3fJ4mB04yYKKdDm2HHRgjRQal15Ic8UCypHqn/h90GAccDTlyoxEoopkCllXYH3V9fA4OnAIHaMtoYxiMOo7YRTA9zFHhinuFncqu967He2POvB5b9TTrdFLHQ8UiKlZGVoCXrrXAUmUYn+fngKM4XiQWAkS1y3YIWN6gwYGLzgHgefq0Y61BgwODA9eGA2fN2K9NniOXS8IBrsDipnCDZJjL5ZOHCBuBQYMDF5kDbNjYQn3lK1/JDdZFrsso++DAReLASR4PXSQGjrLu5oCjPl4O1Ohwa7jwDhocuOgc0J95NerPjFYHDQ4MDlwbDgyh5drweeQyODA4MDgwODA4MDhwTg6cpE3LOes0Xh8cGBwYHBgcGBwYHLgOOXAphRaAXbA++j+gb0soXAkTAn7Js/s8w/oesB0sCNDx7EBgOsAiGfTwckBEXVgssIPOSzBtpAXQ8OEicPzKAJPnEIrAmKsIWJlgayI4H4Pg+UCMxh/YO9cTGddLjXX1NVGMgRPyToIT9HAS8McKHxLu1IlM+3CWZ1vepzCutpXt0OvWhJ//+Z9fBaRDJrEv//u2O7QM/XvnnTf6tM7z/VIKLYQVsNDA1urvnnvumeUjbxjv8Rg4Nsk/cFrWoQkgA8tHfBrGrIMePg4AzeP1ZEE5LwV+S6ZTKMHnTe+Q98VZUh+fhxDk3/e85z2rwP1ZRRToQ5K44p33v//9CcwINXUTkN8VL1ygC5Cz8WwJEQjxAKgjUMhCWF7y7rGfAVnA/bsQkoFzHmMMHLuc0juFcXXsehFagAdWH9iH/9O2O0bZzjtvHKMM0rh03kNgyRnQQa+1k1lCFi0ImYQdiJ3HJqin8GDEYpEHl29EiCG08FIQJHDQxecAo03C70UmAexAERD4oQaflyDjWqQF6oSKDYUWkullJFrWACtM416ItwSeh4sskjz+iiKC+8rfKdL1MK7m+LoP/6dtN5f2Rbp/6TQtVJ0kRnFElpIYQlS8tCHg3Y9NJGp/4N8DWXKdvB0nlTnXYV44yCQGuh1MPLwTIFi7du0EorvvvjsxbwRhfOELX5hC2zqT7gthDvaEXbRjKkHs5FU4Kx4NBNaMEwNe+/GPf3ymqwzitSDCVyB1plszXoEXR3PlJkwSIkGhOxoD203li+qeSLbqQH1ecVfwS2gFoHXAwAS7FFJgSuomFIIo26Jzc7umPi2aK18951NbCYhoFyosg8nk4x//eP9I7k6f97znZXmFh8BTMOsg8YV6+MhHPpLP72of+Vi8hUEQEgI/pUWwtdCjufbwjN2x4Jvg0GlHpprCXWXwfk9g/bWTUA9wlMTa0Qb4QcDWL/FDOIOibX2i7vsUW0w6gfC6Ftpdd0xC6yhd5e/bXqRuIJD4IRq2/hEozusYPAQh/VlYEEK/dPSpXfUVjkH79BGteQppayFFlvCbGt/4Mce85CUvORPeQp125c+FWrDGKoONzCbalcam5+fKPW0jx4eC0aq7EBnGODdv475IqBHhL7SL0AL6An4LO4L2KeMc36W3qy9Mx5Xni2ocOaKjKdcugo3Ks+ZVz5oj1Nv8IL6Tflzx7bb1pV3vVP79577P9+9O+S+sCxwsgi7+B/p4jiHHvtO2k84u/vX51Pe5eWPXvFxpXJXP0wTqvXqlisWlRUj2dtNNNyVUObjyWPBaDLCtmYagk/DmYKhjos7ntz584I2IbZRhC2JharFAtQgk10KIOZMa6G7ljYm6RVyUFtqfhO5+9atffea5+hGdqkVwsYSxBy1/X4QhCKGgySM6ZD22/izo9YjnkRD+MagTwj8GeQuE4nwuFvuEYo9JrMURQ4vFsAUGS4vAgnkfLLYQDDFpt1hUWtgPtblyq2cElkw4/ViAWiwOCc8vhALe33rrrVnvQB5tMblmmbTDn/zJn6zh3kHO33XXXZlnD9mvULHrSCj2pz/96Rl6IeLqJPR5CAQZbmGufAW3r75I+YRlwAuhC/AgAsy1EJbyftghZbvEIp58EQ7B89qgDwMw1z6xiCc0OvhyoRHwMwSvhNevssy1h34dC02LhSVDKoDoD+1IQueDfJ8rQ1ao+yfMRsR+yRAIMWm2WNQyJAIo/rBzaSG8NKEeQmPSIlZMvrmpT3RJbv0aC0bTF2Phz74Wsauy7EJBoNBA5pgJQbSBrRc2I3bcGVbBfe1mrAvTIJyE/izswq4xEYtTPh/B9iSRpI0D7LLFMUm2Of5t6/+B9px5gp3XXkJzCAVg3KF9+Z0vTf4dksZcP5m2kdAVxlpsnJKvxlQfxkEZYqFs5oYQyDP0At5H5OiE2N+3jHN8n+sL/biasCvHuBAD5oiwwcryCScQwRazT3jeXKKNYlOQY9Z8pn6Pe9zjWggaG/sSnux6Z1qOuTymz1e4hQrv0vM/7OtaxJ9qoY1rEXstx6R5IgSbDEcybbs5/k3znps3YpO6c16epnfM34JOXSoyGVlU4yy+iTVkEjcwLYxzdDWFFguU8oTknEJASKgZVyQ0I+t4RYSr2E22UM+vi2pwiaGziXRgi0ctpp4RdyWwJZq4OlMitIgF0wtBrhkcJrXYraUwY4EoIlSIv6RsyHMGD2GlaK7cymdxqkXOewHz3yLYYwoFBILYvVVyLXb5KcSIOVQDW+wa7bOJQiuTCxHhAZ/Rpz/96Rzs3p8rXy+0VH0t3EXSjB1xxoJxzURiMo+daD2SAguBrJ9c59qnhBYTo3yRti9+L2kPCzWBKQLZrcuijQgZhJa5Mqxf6r4QvsSmIvjirdhOeBg72nxKLBgxr2I3m7839Ykuua1fjQd9kdBZZPFVf0RoEXun7xsE0sADyvvaTb8SV6porr7qEJq7FBbVw29CEqHaQqwP7er/BGGxcTyLtBEBvoSWufyrnLs+901jST/Z1EbGsLmi+NsvmuKe4a1xVEQwJKCJC7RvGXfx3Rid6wv9uKry1Gc/jmrutOjqo4QZ5P3QsrTQuNZrWW9rwwMhwG3qS3PvrBN66Mu+z9fctkloEdPLXF3jWn0IyWHQnrlN226Of9Oyzs0b+sSueXma3jF/XzqbFoissQivnvKUp6yjLTtHf81rXnNuTRZVI5UdVeU2cvSxyT7lG7/xG1ehWcg/Ry3O9R1J8VYKCT3P+2PgrL70pS+larPSZ2MTC1r9PPPpyIPtAfVhkThAoa3ZelYuEmtFqvaOs2IhFXh3UHVTsSoD+4MYhHnUQJXeq41jR7OKHW5mGRNGRrfeVW7piFFEbVvk6MGfaMNsKKhtqc0RPlNN40eR/OS7iWJwJRKvowMqVGWlvtcX2A/tw1dtIe+YIM4cgThyDOEg1bOM4BwbOd4rcjyDqJmLlrYPADN9FOGTeuojsaudbQ9liR3lKnaMlW0eo0AoRkvLsH558kWMMOfn+nTZYilj7FhXIdysn+77xPrizBfjQVs57nNESe0dk2XyuV5lU4PXRY4qepW/MolfVjRXX887RnrpS1+aR0TKzdNLvw9Bbye/8UFf1o89i7SRY1yGz2gu/3xo5t++aSzpJ7Lcp414NZpbQmBdlzYEs3W99y3jLr5H4NycF+f6wrogW76Ye40FZJ5zlBxa0/xtfDgCY/QaAtzqD//wD1ex8OdxYAhU+cy0Ly15J1986N++z/fvTr87DgXW6ZjLkXloD1fPec5z8vh7+qzfS8ZS/97cvGEeWzIv92ke6/ulE1osAP56sqh/wzd8Q3/p4O8G84MPPrj1fRPDVGgxULi1sVsgIJj0DVB/JtyIepuCApsIHbQWwMrEYNpEQtQThqZ183yFsZ++5/kSDqb3CCDsKwxugo/J2eLEviEk6fXjJoRKw4CfK7fybCqnBAllAlc6i66FoDLCqyIT8zbCB2WOI8FVqFJXsXNasVNyZh2at9ny9emqi7qynzFJ96RtEX7Lc46Wto/+MCVlWNIeFnD87fuI9sFvtLQM0/zrt3Sq/eqaT9eVr6jvE3Vt7pOdEHsu7xJG/IVG7YyrtvL3dZumqRw9/5bUl5BBSCQg6XPSsMmZ4zde+5NHTxGpff1zSf7rh7d82TeNuXJXNvu2Eb73c0v1BentW0bvbOO7e0v6gud2kfptI7Y77IfYe7EdY89nU0Mor7lt2peWvNPnt+/z/bvT79Yw8xhPM7Yq5jP2j+ACGMhPaV/+zc0bS+flaTmO8fvs6DpGiieeBiNCu2WLWE1mcTZ5lFIbxASPfUkHsZgaKBbnngwUg83OOI6BVl/84hdXN4YwY1eP7GjKqLN/z3eCBWPTL4fmx64I0RKUEWVemPyzg48jpDTYdMtAM3DtPu0+GNvhIUNZxFiLkWkN7LzY/VP2uXLT5jAmVs4SKEPtmZodxrMmXWkwhkS8uZSj12R0WV7xVR1CnZpCylve8pa8b4cVRxppfDdXvj5BfCdEqa+dTS2Y0mfkabImaNqdxxFBPut9O3XaqrDLWCd3SPusX44vS9qDQSFNHMPl6gPeoxVA5y0DLZZxZLI3ySPt9fnPf35x++RLk3+EQ5MwLUqotldx7JACAQPDvq/huT4YRxWZgr7bL6STZBfVVxuH/dPqwx/+cGpKCCz6pbR39X9Cq7b3HKN6ZSa0G6NF5+W3dPZNY0k/qfL1n7v4yAifdhHvay6icS1vo33LKN9tfF/aF/qyb/pOU2eescGRpvFI644s/jSuYUuYhriu6Xee20b7vrPv89vydZ0WyAaZsT9DaeXkNAFvzJzZt90h/JubN8yZ552Xd9Vv173NW/Rdb1zwe45HLDBwITDdZEs67XfNhADPxJniNaktyZ5QYGEzKcd5YnY+iypvDbt6g4snCaGDJE07YyeogzqS2kQWefUN25C0gg87kXxXvSy4m4gAxb07DH3ziCpsCFJocpxiQbZIG/wEH7zjlklVuItXc+WmeeIdEvYLWac4J0+XdMIM8DI7bEJS2LxknmFPsgpbpDOL16a69NccC0mDMGGycuTAY4WKda58fToEJZPDfffdl3wy0XFJ50WBJ8gkYjIvQcURHyGJhX9Ph7RP//6S9pCnvqOdYD7oKzy6ajI+bxm00S233JIePPhgIjWeCOH4cCjpZwReQglVNYE27LDyyNS4LbIB0R/0GYuM8cJDahstrS+vDP3cMW3Ys2Ryc/xW5jBCTqHF5qWEVOO5aGn+9fymz33TmCv3pjxcI4zitX5TfbueVQZjwRyF9+ZMMBJ24BbMfctY6W7i+9K+UGls+7QRoik2b4XjQ86Jt4XnIdLXzGHu2eQQWI1f9amxkg92//Z9Z9/nu6yu+MozSx8zJgjJtC7mIkL+Ix7xiDNtZ8OyZCz1mczNGzbOx5iX+zwXf49dy6UiBksxuNJgLM5KW2gy0rsidglrPjC6Y/A69Si6moa4jOV4RzAyjB1bC5VyGnO6FgNnXbYYTGno534suo2XAsv7bRQdOg3OGCxKNyb0FhPxxsdjkk7vDAZp0fmTR0972tNaHHetn2eEyAgzBkZ+MkwMFX569HiIQR/DzKkHz1y5Y1FqsWtIzwvGw7xlXEOs99WTga98GTrGriXvxUSTdeKxsosYpsVEmgao0uAZ0BsR7ipfTAbJl/LY0VaxMKcBdEwGaeTL2NP1It5fjIPxPXYlLZAtsx0Z4/E+CaE4H93VPrFgpKEgXhTxtIoJo4XNRV6aaw8P8Y4KN/QsS2gC2h133JHeMAxx0a4y5AOTf70hrlvGRUzw6bmDH6ExbIykA/Ar39zWJybJXvEzNBTp6cM7jdEfPsg7BKV8liGu77y3jAWGoepWRsvVboxGe1pSX3xmSMyAttKTxhJ+8zaKCT3HW9iHpQeRdIqW5F/PbvvcN425cm9qIwbQxrY2ZWDcG+Iql3khXJzTYygE4+yTIci0EGCy2PuW0Uvb+D7XF6bjKgvw0L8aR8Y/j0Tj3/wWG4+1Yb4+zKMotJE5Rxi76hubqfSM2tSX5t7py+D7vs/X3LbJEFedeMuFaUOuFaGlaoGgvnbamLbdHP+mZfV7bt7YNS9vSu9Y1y5twESSKqM5Z9aMyUjzl50YO9ohOTqj3Rk0OHDKHGAHZsdsl1nHiqdc3uupbI6dHavbbdPkIO1AC0lL3RvzP9z1dkQHz8exLjyaQRebA5d2pWZoxwLb2ewQWC52Jx6lHxwYHLi2HHBcRBAIyIW0NWJnxraNbVHvUXRtSzVyuwwcuLRCy2Vo3FHHwYHBgcGBq8EB6MPs6UARgBtg21Q2PGWYezXyHWkODlza46HR9IMDgwODA4MD5+MAzzTH7DyleJzUUdH5Uh1vDw5s58AQWrbzZtwZHBgcGBwYHBgcGBw4IQ6M46ETaoxRlMGBwYHBgcGBwYHBge0cGELLdt6cuQNIyZktgh3hLBfmx6DDOACICg9hYQwaHBgcGBwYHBgcWMKBIbQs4BIURRDPEcE2nw78iQQPc33QYRwgBIrH4nPQ4MDgwODA4MDgwBIOXFqhBfIrrJavfvWrW/kE0h4ipGd7AYWlPPTNKcIpRMWCR9+UqHRAu1cArukzkBfd99wS8jxEUOXcRlwR1WEbgRvvaa6M/bObvkuPILKtjvizDWGy0vPMtjopn3bbVadKZ3wODgwODA4MDlxfHLh0QovFULRf8O0ifsJrecITnpBQ1JoWJH2gPCa0O5h3QQEBJn3hC19IuHZw++CSgSdVzB8W9IFamEB10gP7Ddq84hARjESRhmHgPqEH/HIt3oCabr311lWgp2aZ4BzAP9hGMBIE/wOWJJ4MgLxAjM04Q4QFsPSg/tVDHbkggq8mVCEAS4F0m3Dn0uC6uKuMYKDFXwlUzTNFAvFfMNjg4YUjUBb1BPEtzk8JL2LRCIjmPiAwQl9PhBGgVIJXegafwMCDw0fSkZ501UnbqONU6OrTHN8HBwYHBgcGB64zDhwLWveipPOBD3wgIb/Bgcfi3yJ+T4vIyS0CpGUVwDWDA48FuIXNSovomAlLDS454vXk8wV3D4odnPJLXvKSFkJQQrNH7IqEnA/AuhZxhFostgktDh763nvvTch00Pcg6SP+UeYprADY78985jNNOAGwzaDf+9ACxV/Q6CDtQ5jKsqiDukjvl37pl7I8EbiuRdyQhDcH3xyooQlNHeBPmQzIbuV70YtelFDcEcdoZxnlefPNN7eIC9JC6Ms0QpBJGH95CiMQMY5aCDBZv4gVk/DfoNd///d/v0W8pORxhE9PnkYMoRZh2ht49oKSD6GnhaCSvFTmiNeSz4Qwl/l96lOfSh7jIXh/EO6ej5g+xZrxOTgwODA4MDhwnXNA0LlLRRHQrYlFIq5DUQTqa9/5nd+ZP0toefOb31y3mzgOT37yk1sEB8trfZyLL33pSylghBZg/bwFPZB2U2gRn+Exj3lMu/vuu9f3CQHiqDz1qU/Na6HJyVhHnkXi9tx///3tz/7sz/J3/0+5LfB9/CAxksQ2eeUrX7kWWr7ne76nxVFTvuqdCDyYcVxcILSI1RLao7y/pIwEtNCQNPxDoQlq4tiILxJHVC0CLKZwkjfjXwRZa+KQRGDCFrZAKQgSAosigGEKWoQWgh2hKAIntjjOqkdaaIQyDRfEc1Hm0NDk84Qn7ai9Bg0ODA4MDgwOXA4OXLrjodCqZPh4xyWOekTFdFQTzb3WoUUQxTzCWV/Y8UX8DccujpGKQsOwErobOd5wJBWBEOt2AjAJISBiM3K0E4JDgjOFsJERhH06BplSBHnM+EAikfK+ccwTAery+Kq3hVFPxyzIOyGUrb7yla+skwMG5YgFLSljCG2r0IxkFGb2JIxob7jhhpUQ9I6fIrjc6td//dczyq1joGc84xkZpl6ZeAo57unjw4jqHAEcM/8IJLb6oz/6o+ShI7IidagQC/gR2pmMTi3PCG6Wx1Dab9DgwODA4MDgwOXgwKUTWngACav90Y9+dBXRdlehnUh7lL65LZTf9E3f1F/a+r0QIHvDUAt1CRDS8kcQ6snveieOplLoIEh98zd/8+qNb3xj2hfiLF4AAEAASURBVJCwo5kSAen2229POxu2LQSH0AqlXU7/rLDyPdXiX9fUr8q+pIxsSeJ4J0O2s+mJCK8p9KkHgYvQohyEvzhGy0B2hByEF/IQsr5IqPTiievuV3nqGddKmCQIxlFd2tWo82/+5m9med7+9rfX4+NzcGBwYHBgcOA658ClEloYvoZNSxqEfvrTn16FPcYqQq+nQWwtjtvau19w+2cIPgSNsGVZX6ZBCbuL/G2xJyD0eCQWcc/TUChTHK2kATDD1jhOWeO/EKymFMdRKTj83M/93Irx68/+7M+uIoz66v/9v/+3XuC9w6CYgIMYsYadycrCv4nmyljvRFj3rBdD3r/4F//iivYF/c7v/E56DCkP/v7kT/5kxiP58z//87xPQ8Ljh3aoiHFvGdHSuCgDHvVeWn/4h3+4NuSFiYNPtGOMlNWPsBdHRDs9tiq/8Tk4MDgwODA4cPE5cKmEFjt3u/uwFclFlsAQthWrMPpcwV7ZRjQA/rgPT+nRj350evLcc889q7AVWX3sYx/LowuLKkHHkcgP/uAPrsJYdhV2HimkWHR5zzzzmc/MdL3zile8YhUGqJk8gceR0mMe85hpdmtthUWfUMLl+ad/+qdXhBnvFIWtSGol1NGxDQGIx9EmmitjvcM7iNfVu9/97tSsEDQQnspbmRBPIcKUa8rI84iXEkGLpxQNkSO5Eqq0C+8p4H345D3anDe84Q3pTSRNx0dhe5RYOYQwbQjkT3kIjYMGBwYHBgcGBy4BB0LDcKnogQceSIPSEEJaHFGkVwsD29CYJB8YdvrOyLOnu+66q4XGJL18fvd3fzefYZyKGLzecccdaSgadiiNYS1voH/+z/953meYy/NGnmFf0kJL0V760pe2sOXI+wx7Q1vSYvHPe8rFI4kB8JR4K/E+kobneAkxsg036xa4MWtDXIbFYfuRZfZsaD9aaGMyOYa44VadBr+V/lwZ67kQNlrYnTR8LArhoYVgti4/HuCpPHguIQa5PIyK78obAt/aeygElTRWDlubLLPn8IQnEgqtTfJYff25H7YzaQicD4x/gwODA4MDgwPXPQcuZcBExxJ/8Ad/sGL3wZCzbCt2yah1xOJoh+FrLJr5OG0BrYAjkDIidRTCQJYx6t13371OljaEpiEW78RXWd+IL9KngXA/vHLyuKS/P/3uqIVGhqYB7kuRdJ71rGelZuOd73znKrx78v62o6F6rz53lbGe2fQpX9Fe4b3AWikj2/5ZRz/Kw0AYvzYR3mkbRsjwamhhesIfNjR4HR5ai9quf398HxwYHBgcGBy4uBy4lELLMZsLemvgouRRDhsZRxWEBccjjoEYr15L6oUWtieDBgcGBwYHBgcGB64XDnxNXXC91OZhqAeNAuTbAGpLF1yaAUaqEHCnMP8PQ/FGloMDgwODA4MDgwPXDQeGpuVITcl4lLcLj5m/9bf+1vqo6EjJj2QGBwYHBgcGBwYHLj0HhtBy6bvAYMDgwODA4MDgwODAxeDAWSvHi1HmUcrBgcGBwYHBgcGBwYFLyIFLKbR89rOfTWA5hrP1B6RsGzFujSB/ib8SbsyrCHR4BgRt23v7XJdHxNdJ7BbeN2D3X/CCF6wi1s8+yYxnrwIHhDkQMmETQvG+2cGWkRawvIeLhFVQhh7wcJ+y8BCDJC10Rbjb7/Pq1mdh9EA3xh94Ptc7Geuvfe1rF1UT4OSLX/ziVQRUXUUQ1sRBWvTiVXqIB5/I9ggelJAap0inMNaOzRfrxM///M8nVpa09+U/D1XYXceiffrxsfK8lEILQcVAu/POO9d/wOE2Eah9wG8R4DABzgDM+S1eEM+hY5H8I7pzugqbmCC/Qs0FTGeyGvTwcUCbi7VEeDkvATGUTo/8e940933/T//0T7M+Pg8hYIgRMXz1Az/wA6sIdHlIEle8YyPwpCc9afVbv/Vbs+7+V7x8AS8AksTHJQSoEl8ALApfId7Zw0WQtb//+79/FdHbswjmwGOMi6tRn1MYa8euF6EFSOl/+S//ZW/+//Iv//LqR3/0R9dI5Mco2z79+Bj5SePSeQ8FEFzifPzUT/3U6nWve90sH2k6xCuKKM6p+fDCf/pP/yl3mP/hP/yHVYCkzaYx9wBsEu7JOhSBqrBJCDGEFp0tIiDPJTPuXwAOwNSBhnyRCRrxX/2rfzUFfmEszkuwjizMQkAIrBkRzFfPf/7zz5vsdfM+wZB2+MYbb8w5YlMg1WtVWUKKAKdFsKj8nSJdD2Ntjq/78N+4PaaWZa5sV+v+pdO0UGvaYfZRmXcxl0tzoNPmrrKeA/4mSnJFaa7rh36Snv0BvasgitICk09lLj5SBWAk2Qbi7kqUZNGU3/rWt+7ctROIANyJkixq8gtf+MIU2jaVFWjb933f9+UuWogBIHryAvZWJMbR2972tpxAgbtJVxl4TyHC17Of/eyVOEpg/4UYQHPlJkwSIr/ru74rj8Zos6h3Ud174hOfmHXgXl4hA/DrtttuWwUC7+qHf/iHM4AkdfqU1O0nfuInMrCkiNvKR81dNFe+es6ntiLI2nECJzRxCObYk53o8573vCzvU5/61OSpCQMgII3CRz7ykXx8V/vIx+ItkCa3evyUFsG2QiDMtYdM7IQdawZKc/bjPk6W+7vK4H5P8Ie0EzWztn/ve9+bfRY/CNj6JX70cbO29Yk+XRHHtSXQwBLat723q63uv//+BFfEI5HU9ZlAkF5rRQlH+rigpDYCNJr6mc3Jj/3Yj2X/UC+bFLzVBninHfoJ/7d/+7fzfWNjSRtQ4xtT5h3zyTQkyK42EBZDXyMsAIlUr020K41Nz+8q96ZxJeQJLTBgS5pn416IEMJU0Sc/+ckc//qBuUNoE/2iaBuf6359HoPv07FWafusseWIjtZduwj6KqRLzbWe0876iPoYP/3cs61/7npHmlPa9/n+/Sn/xX8L9PUE+AS5oc205fve977VL/7iL+Y8LKyKPrWr/fs8+u9z/XjX2OzTOdf36x7zd1LBWFzat3zLt7SIw5Mw96DuQc7HgJ88uf3nO97xjhbBDlsEXdz+0J53wN2D+I+FqcUC1SIIYQsh5kwqMUFmmQPxtkXwwBadsEV8ohYxec48Vz+EFwhwu4TTj5g+7b777mshFGQesZDVY+vPsHHI8ASPetSjMlRADOAWE3yLAd1CNZ3PxWKfz8SE1eLIJEMVRDTnFkB6eV+IABD7MUG3WEBa7BDbXLnVE6w/mP9YbFoMsBYCU4sAjS2EzBZxibLe+B4TRZYpFpYWcZdaLN4tjilaCJdNqAV5hvp8XSdfYnfYAqG4RYDFFoO83XvvvS0EzxYLUYY9mCtfhXZQX6R82h8v4kw3eRCLSYYqcD8m5myXmKyTL8IueF4bCNkgTIQQEHPtE5NNC+DCFnGbWiwSWbcQvLKuVZa59tCvY1HJsBIxgbU3velNmX+gEmcIhbkyqE9PsRC0V73qVe3bvu3bWkyQLRawFjYoTXph59JCeGmx+LfQmLSwA8tXN/WJPs1t3ze9N9dWoZXMcfSEJzyh/cqv/Ep717ve1WLH3cImJLPRlsa/voYf+nhMxE37CbWhH6tPaJIy1IaXpCONCikRC172Hf1JeIm5NvjUpz6VecaRcrZhaFCbcBXGItq3DfKlyb9D0thV7k3jSt81/mIzlXw1zkJozbGkOHGMnfeEFTEOQ8Bp5oYQ7LO0wp/s4vOkSufmez/WpmnX2DJvKG8cv7UQXpoQJPoECk16MxcKqWK8xWYtx04IY3l/U/+ceydf7P7t+3y1iz6Eev6HzV2GRhGyJY4Rc5yaO8x5xqmwMmEvmSFYzIm72r8r4vrrXD+eG5vrhM75RWTgS0WBVpuLaqhcW6jpcxI3CC2MS0jn1ZFf/vKXtzgzXfLKomcMIuUxcRroIYlmjJ/QjLTYCWYahKvYObZQ863TNMlaQDaRzmrxEPenKGD0M/aSGEJTIrSYrHshyDUxggzQkMxTmDGJFxEqQnORgp9rnjNQCCtFc+VWPjytRc57Jjg8JhSY6OJIrpJrsctPISYCN66FFnGKKpbT+sGHvoirZJEiPOAzInAa2CaBufL1QkvV18JdJM042muhYcpLJg2CXmji6pEUWAhk/UQ61z41sVrc5Iu0ffF7SXuYgAlMsQNel0UbldAyV4b1S90XwldgETWCL96KMYWHFnNkIY/daYuda/7e1Cfyxsy/Te/NtRWhRWysvr8QUiPcReamLfW10F7lb2UOjViOK0Jwkb6l3yF1tLlRb0Rw81u6S9qAcCxOFsECeYdQX0LLIW2QCXX/9k1jrty1OE7HlXEdAVbX/K1FEx9DI9xCe7Wup3hiof1MoWUJn7vq5Nfz8r0fa9O0+7FV86ny6rc2Csh8bC60wBdZ6I0/tKl/zr1T6dTnvs9Xu2wSWmyEzN811tWH8BhG7pldaEmzn5tL5tq/ytd/zvXjubHZp3We75fOpgXkfizCGXn4EY94RGqpnKNDsN1FVIZUbdEwaXxIZV/xh+o9z1DPUUtuI15Bm+xTxD8KzUL+OWpxrs8yOwSEjOTsvD8m3IzmTI1ZBMwuOmH9PPNJVcf2gDdSkbhHMeGuI0rX9fqMIIx5fFG/nQuLNs27g1qbOlV8IuWJSSGNhXmj9CpiR2qxm80kYnKYLbd0xIGioi2iovcXC0NGdObtEgEr8zY+O5rDjyL5yXcTxeKToRYcE2hDZaWq1xccRezDV1G15R2TwZkjEEeOIRykKpaxomOjioKtTI4YkOOJoqXtIwq3PorwST31ESEj5tpDWdhA9LGeHJmEYJzpLS1DPrzhH+NQdg76dB3rKKNjrFjk12/0fWJ9ccGX/r0lfUmS7Gzwv4hav1f5K6cjXuTIRf9zZKj9ihzBiNKO8N+REg9CdmYh8Nrs5bW5NsAb6evbYm4h7zjajQ1Q/j5vG0hk3zTmyp0Fi3+7xlU94xMfY6edx3FVT3NJCD05vpbwuU/P9/PwfZrWtt/m47IRUt4bbrhhFZrUfNx8bK5w3KxuvO3YM/b9pO+fXlryTib+0L99n+/fnX7XZ8Wisz4wBRBC5jnPeU4eeU6fXdr+9d5cP146Niu983xeOqHFQPDXk0W9Jqj+en13ls0Nk31J7P5XsctexVFO3T7z6cz2wQcfPHOt/6GTT4UWluCxs0u7BQKCSd9g8WdyffOb35yCgnLojLUAVrq1WNTv+iRUEYamdfN8fz5fz/v0fAkH/XXfdUzCmrNsgo+J2OLEvsEkXmTwVxqxw8q8dpVbeTaVU3qEstDc5LlzTYaVD14VGYTbCB+UOY4E0/vigQceWH3wgx9M2wtxovbhq2fVlf1M7JTPZKltEX5PBdozDz70Y2n76A9TUoYl7WGxxt++j2gf/EZLyzDNv35Lp9qvrvl0XfmK+j5R15Z89u8t6UvSVKe+vtN8lK146ru/aXt5v+/TJn8QBATc2B3nGNb/5toA//1N0xfqo+i8bSCdfdOYK3eVbde4qmf6T7zsqebJpXzu3/X9UL5P09n2W//aRuzU2BN6huDrjxBGeCnq+6drS96pdw95vn93+t26Zm7jacZOxhxnzbJ28ZTtaWn71ztz/Xjp2Kz0zvN56YQWRoR2yxaxmrh2uRBqrLA3WYU9RXYAxmXbJkTXGUzuS/LgysjwdYp5YLAbGHbGcQy0+uIXv7i6MYSZkvbtsMqoc5ovwYKx6ZdD80PjgmgJyohy+rzfdvAiMXNnRYzu7KYZowlTwPASDxnKIkae3F/7CT5vPPRP2efKTZvDBVg5S6Bk0Eezw3jWAJMGY0TEiFE5ek3GQ9lt/FCHUJ2mkMLAEtlN0Zox0J0rX58ovhOi1NeEWn1B+gw6LR4ETTgscRyQz3qfRoS2ihFz0SHtU+/6XNIeQkrQxIWqfd0HvGfnhM5bBlos44hxL80V0l4M/Za2T7604N+SviQZ7aBfxjFQpqo/TwX3yo6gqf8ZR3hSgifhxERcRDslvbAlS3df/Ujb24HvGhPS0x+UgaE9A37pyq/ovG0gnX3TWNJ3qnz95zY+mp9osGn2jGXCjnmtNnBL+dzn5fuhfJ+ms+03AaTKa0NijKqH7xZ8GjtCqnZTH4bI2+a6fd/Z9/ltdajrPMxsmjkAMJSWvvUKBpl5tG+7fdt/rh8vHZtV1vN8/v/O8/JFfNfxiAUGLoTJ1WRLEu13zYQAz8T54SpsK9Lq2uCh4oxzzDUgHQHiGMQrhFBgYTMowg4hO5pFNc4hc1dvIPFgIHSQmmlnqCp1RkdSm8gir760Q9yz1cW76mXB3UQGJitzk7MjqjjDTaHJcYoF2URtoBN88C7sN/LIQ5rbaK7cNE+s8+P8OOtE/c4l3WICvMwOh5BEPS9Pmq4wKN06eWwqh2MhaRAmTExUvjxWqFPnytenZyE2Edx3333JJ4sbl/Tbb789eeJZE4ZFswQVR3yEpGkAzUPapy/LkvaQp76jneA76Cs8ukxo6Lxl0Ea33HJLjgl8MGkaT4RwfDg2LWkrmxJ9RD+y4BhDJYRvKg8Nij5tvBnTYR+S/Y+XVxEtnzHguNIC7XgHzbWB8cIridBiQ1OCqzFedN42kM6+acyVu8o2/SSgmjf1JXNAkXpqG/WjjTVOCejm0Vosl/C50qvPQ/le78992hxVeW1OzZO3hTei+liICcAEMRuqsAPMI3v130T7vrPv85vy7K/xHtPHlFN/o3UxPxG8mEL4Ux9zH0FN/kvncs/O9eMlY7Mv78HfQ2q8VMQ4KRbEtN7nrROajPSuCLuMNR94soSQkh5Fng3mbvx7wxvesH7nvF8YRrFOZ+QVUm0L9XEac7rGsLHowx/+cBr1uR+LbuOREHYSdfuKz+i8aVzGOFG6PG1CGLniOReiA6d1fNiPpPEcDwdeN7FbWj/PCJcRZgyA/GTcygCPlxFinMYwc+rBM1fumBTSIJJnB+Nh3jKuodCGZD0Z+MqXUSNrf1SGaTxWdhEDwpjY0wBVGrGYn/H+2lW+GPjJl/LY0VaxMKcBdExsaeQbE18at1UZeH8xYsT30OS0QLHMdgz7hkwrJvN8dFf7xOSYRoF4UcTT6sbwBnrpS1+al+baw0Os+hkJK0vs+tsdd9yR3k28ZtCuMuQDk3+9Ia5bIcy3ENDSwwY/eH4xZC1D9W19YpLsFT+3vberrRjihiCVnhLGB6Nb9S1D5mrL2H2u8wvNR3pYGHuxKKcHTAihLbSU62d8MQ5C05ZeGf2NJW3AoDyE7xyDIQw1hpRliCutfdugz7++75vGrnJvG1ehjcrxrp1jkTrjvYKPPLJC65N8fPKTn9x42ugPaCmfqz71eSjfp2Ot0vNZY8ucEHYlOa/E4t5iM7I21g9tWHpfhpCaRtnGob6vf6FN/XPunXyx+7fv89Uu+g8qQ2jf1Ym3HA8h64O+GoLi2pFDXrzq9HEG+rvaX3qbaK4f7xqbm9I75NqlDZhIKmUgR5KPRTalzoMlv+vkRapuOzZHZ2w2Bg0OXDQOsA2zY7bLrKPGi1aHi1peGgmaGNrdItqrcJVNLW9dO4VPR3QBHZHHt/BWBl0cDly646FqGt4YrK0BpFF9DRocGBwYHBgcOJwDjuIAm9n8IEdEPKTqKO3wlMebgwNf58BYrb/Oi/FtcGBwYHBgcOBADvC0YdTOjZirNJsgHobs4gYNDhyLA5f2eOhYDBzpDA4MDgwODA58jQMM+Xmq8dhj5D6O6EbPODYHhtBybI6O9AYHBgcGBwYHBgcGB64KB8bx0FVh60h0cGBwYHBgcGBwYHDg2BwYQstCjoJph0GA+LqDlYf5Meh4HBAOAF9hBwwaHBgcGBwYHBgcmHJgCC1Tjmz4DYgnAuKtIoJt3g38iQQPc33Q8ThAMORt4HPQ4MDgwODA4MDgwJQDl1ZoYTAGq+WrX/3qlCfr3yDtoR96thdQoIBy75sinEKFLXj0dSLdF+mAdocRsImglLrvuSWkbH25vBPAZwlzv+t9MPje3UbgxnuaK3f/7PS7d+f4jGeF0Dp93++5/Pfl26Y8xrXBgcGBwYHBgdPnwKUTWggiov2ybBfdE15LoAQm5LfmEoVXRFeQxGDeueyBbf/CF76QcO3g9kEjc+ermD9iuwRCYQLVSS8QdRPavOIQEYxEkRa7xH1CD6jlWqjFB7r11ltXgViaZQJ292u/9msbew9hA8y08okro4yiQSv3M57xjARLUi9hB0BUI0KS50H4q5v7YuiAryZoIQBLgX6bcOdi6wgPsKvcPASe8pSnZBTqTOChf9wblW+Ozx4XnwaGA4A/XgYEwZ525e+5ffjWpzu+Dw4MDgwODA5cUA4cAqN7kd/5wAc+kPD34JgjdkaL+D0tIhC3pz/96VktMN+gvyMeUAublRZRO1sIJwmNHPF68vmCuwfFHkJEi8B+LYSg5ncAKiXkfADWtYgjlNDVYMQjYGGLuCUJ1w36HiR9xD/KPIUKAPH9mc98pgknAKIZ9HsfWqB4XjDOINnVJdAmG7hqcPvgwUGzK0MEzcoyg8JXxghml/DNESG6gXMO1NCEtI9gh5k0SGplftGLXpRw5RHbKOHPt5UbRPvNN9/cAkyqCY2AQpBJaP9f+qVfyrKBUd/G54ihlHyP8OnJ54gr1B73uMc1kNnqAPL7mHzLAo5/gwODA4MDgwMXmgOCzl0qioBuTdwRi39RBOprAYiUP0toefOb31y3m3gb4mgEJHVe62NafOlLX0oBI6K+rp+3eAfSbgot4uZECPt29913r+9b8MWxeOpTn5rXxOcQ68izSNye+++/v/3Zn/1Z/u7/ldAido4YOCjCkGdsjAiIuH5UGmIEESBKaPme7/meFsdP+Yx0IhhhxtZwgdBCyAiNUt5fUm5CWmhIGp6i0A5lbBsxUOb4HPZBKRwSDIvELSHMEVqW5L8P3yqP8Tk4MDgwODA4cHE58P9dUAXRwcUOrUraSDgaESuDp0oIHqsI6rVOM4Io5hHO+sKOLyEc5BGLY6Siv/bX/loiQ/ot2q+jkgjGVrczMqwQAiI1owh6mIa+jnugSYLCFl7cMc42Cg1Ihn93P7Qpabwamo+VsqPoknl8IgR5kbo7ikERLDLzEn24SPh1x01oSblDkMuIt6JNR5CuNKK94YYbVhEwLcvBFmUbn3kKOSrrwadEehYCfWn+h/AtEx//BgcGBwYHBgcuJAcundDCA+iFL3zhKo4iVqF5SAGBvUrvviwW0Td90zctalAh3hFbkyKLtT8kLX8lTNQzftc7cTSVNjO//uu/vvrYxz62euMb37iKY5u0VWGbsomETS8iFBEAItLuWiipe6Hlqa8ZzGz9I74oV0/qXPVZUu5v/dZvXcXxzioie65uvPHGVURjXUXk66zrHJ/xRx4Vtl451Kn4tCT/Q/jW13d8HxwYHBgcGBy4WBw4u2pdrLLvXVqGr2EHksafn/70p1dxdLISL8N1mold1C+u/XN//a//9dR4CA5WFPYaqf3w28JOGOixRyzYnmcMK+8PfehDaUjLiPU//sf/uBagPvrRj1aSOz8f/ehHp7EtTY3ozP5EMGXw22syGOvGsVCmxTiXpolWaBPNlbveibDuWVeGvBEOfUX7soTPhEZeReC+ixj3lufSXP7H4FvlOz4HBwYHBgcGBy4GBy6V0GL3bicftiJ5nGLhCzuK1b/9t/92BXtlG9E++OMqPCUCw0033bS65557VmEXkpqSl73sZSmEEHQIDT/4gz+4CoPU1Sc+8Ylc0HkG8ZR55jOfmenSrrziFa9YhYFsJv/lOO6hPem1JNN8+9/f+73fu1KOMOjNfNXrl3/5lzNfRzdFYSuS3j7u0+oQipR9E82Vu94Jg+X0xHr3u9+9+vt//++nkLaEzzyPeCn93M/9XB5jhVF0elSVUDWXv/Y4L9+qDuNzcGBwYHBgcOCCcODimuMcVvIHHnggjUdj0WtxHJEeLAxsQ2OSCTLE9Z2xbk933XVXC41JevkwePUMQ1TEuJWnC0PWsENpDER5A/HUQQxzednIM2xJWmgk2ktf+tL2f//v/837DHv/3t/7ey0EqrynXDySGABPqQxxf+zHfuzMLV5EYVeSHkDeD9uQxivJ82WIy9g47E2yHsrwkz/5k2tjXoa44WqdRsCV8Fy567lw3268mfC2aI7PngutUvubf/NvJl+UOVzFWwhfaYjr/lz++/BNeoMGBwYHBgcGBy42By5lwERHEH/wB3+QNh7f8R3fsbaj2CVn1nGKox1Gu3b6iGYAbovjDjgryLEHzBO4KXfffXde84/BL2yRWKhXDGl7kj5tg/uPfexjU2PR31/ynY1MeO6s/vzP/3wF64WdC5K24yKajXe+8535jKOjbUdD07x2lXv6bP97CZ+B4ykzA2E83ES78j8G3zblOa4NDgwODA4MDpweBy6l0HLMZoDmGhgoeZTDRuabv/mbUzD42Z/92QSIY6j6cFMvtLA9GTQ4MDgwODA4MDhwETnwNXXBRSz5iZSZiy7k2wBlS8Rb9hwMUiHgTmH+T6TIoxiDA4MDgwODA4MDF5IDF07T8id/8ieJYQIL5K1vfeuio51r0TIMZ2GiOJrhxVNHRdci75HH4MDgwODA4MDgwGXgwIUTWt7xjneswsA12yYMMbfaQVyGxht1HBwYHBgcGBwYHLhMHLhwx0MBPZ+uujQtDFYHDQ4MDgwODA4MDgwOXA4OnCROC+8buCciDfO+4VVTBGY+guutItbPFYiu9cySz//1v/7X6nWve12CoYGPZzALS0Vk4WtJsFPgulxL4q3zla985VpmeXJ5qX/Ed0o+AAPUp+DXHIt4RelfkIEPoYejX/TlfLjz78tykb//6Z/+6eq//tf/ekUVeByKDP9bv/VbV9ybXog4aIkBNb0+fg8OXEYOnJzQIuaN2Dtvf/vbEwr/N3/zN1ff//3fn27Fx2ogk0gEK8wFBfBb4LRkbCDw+QDfeiHpWHluS4f3kTpfK4LE++xnPztB6K5VnqeWD8E0sHRWEIjFYwJ0B2yvQggco7wEoN/5nd9Z/f7v//5ByV3rfjEt5MOd/7Q8F/E3wfVHf/RHrxBcwSa8613vWjne/u7v/u6dVfMswQcg5qDBgcGB4MCpwcwAcQsclHXE48AtaRFssL3yla88SlH/9//+3xmxWZTk0LacSTMQaRN87dZbb21hUHvm3vSH+6I19xS4JOsoyv31fb+Hi3JTzmn6fTqA6XaVMRad/vH1989+9rMJrhdIuetrvsgzNFxrsLkzNx/6AaTOM54tEml6VznqOZ9Vr0AW7i/v/D5XTzyqyNWbElLm6X2/RZSOEAItUIFbCMgttC2bXk8AwKX1k0AYZCcooDxiQWrhRXYmXeUVvVu5DiHpa4NNVPzd1m+W5L2pX/d5zd3vn932/bz9aFOb9nnh0Vwfc99zRXhTYI91rT6X8G1TuxiDfXT4Sk8+osJHwNS6dMWnPCuK+xU340KN10P70aY0x7XBgYvAgZMSWkzG3/Vd39V+4Rd+4QzvIpJy+6M/+qMz1w79EZD9LUDX2m//9m9vTCLA11rEBGoRQPGK+xBYCTsRr6g94hGPaAFMl6itrkO8hZgbLs8pZIV6Pd+HrBuBGVuA2a3Ts0AG5H277777ElU3tD55zwQEXfZRj3qUQEiJMhtHR2tkXBNVHDdkvvKBakvAwh/0K7/yKy2OuVoA2yXKbKif83r9i2OhFtGos5wR26f94i/+Yt7Ck8c//vEtwg60v/AX/kL7kR/5kfUiHsBuWWflChuiLJdnP/7xj7d/9s/+WaIKQ/mF/rttkrXQ/fRP/3STp3opO8RgKL6baK6eVaY4OkxkYuUOj60UQCo9Cwak4wDUy3o9OpB2I+5U3v6f//N/tuc85zktMHWyPNB4b7nllrUQO5d/5dF/EjLxG//wQx95whOesBZaCLQEcuXBg2/5lm/JhQti8SaCtlz9ImJTtQAqbBHqof2lv/SX1n3s85//fL4612/m8t7Ur8PgfZ3/pvvQinvyjH6uXxQpn2vGUrXZefrRrjaVZ8TSynGoPWsclnCOR9rk1a9+dQtcpUSfhuKsPBGcNNtDPyJo1lid49uudtGuxpH+EMCJifYcno87xwFBBdK1ckKKNr6Nd/3qzjvvTLYSttQB8rZ+ZEzF8VEiXxffx+fgwPXMgZMSWkx8FsawLckB/zf+xt9IISZsD87s7s/TIK961ataIK9uFYLi+CSFllDfXpENiH8CRcTbyYkYDD1Bi5DwpCc9KeHnvf+85z0vIfUjhlCLIIU5AVkEiuIookVcoRZHB+29731v1tk9i7g633vvvc27ET8oBaz3ve99+eq///f/Pn+D+KcVImyoC8EFgeI3WQdmTIuIyy2iV+f1+mfCe9vb3pb1+5mf+Zmc5D0jT0KH+tE8EChK4IlAjzkxgv+Xv92h+xbPiJad5YjIzrkY9wtW5emTsCDEgXaNo7dmIYljmRZRmvvH1t/n6lllsvDjXxz3tYihlDx1DwlhQPgkhFqEhCwwwePxc5/73BTelEN5lIswEeCA+e5c/vlQ98+C+C/+xb9IPlpk8F5IAotgaVosjoFAnAvk//gf/6OFu36Wp0JBdMnl175f6AdCQBCMCQAf+chHMuRCGKXns3P9Zi7vTf1ansYi2nR/Kmx5RmiL3/iN38h3/FMu1wjw1Wbn6Ufb2pT2kNZMmApCUsT4yn4awTxzfJhXtBFhRb+NY+CmDfRfQoV3lFG7E25f/vKXZx3m+LarXQi+xoPQGgRkfe2+2KTsGgd4+gM/8AO5WTFm8C9sr1JgJQBJU7iQQNPOOcImxDjWd9///vev+T6+DA5czxw4KaHFZG9hsRhZRC3KJhY7Fd+PQc9//vNTE0JFv4ksYiYumoEp1eRtZ1NEY2MxEo+oiObDzt8iaKK57bbbcoGmcTB5moAsaiapfnH6N//m3+SkFsEU8z0qZ5oa+Urn5ptvbhEc8YzqOxBuk2fyJrSYFKfCSpXL5/R4yCQozV41jtcRsDBfs9iYJE30RQQAQhdeIQIWnpVwlRe7f7/3e7+X9egXOrtFi8yUltRTmfQRi1iRhUmZCAOOFAlFyllEExI2LLmgWZw+97nP1a0UPGn4HEEuyX/94kNf1J/wGMEf17cISnhCaFEegp4Fpkg+BMOwqapLZz77fmFxtDBpu6IANFzzb1e/WZL3pn7d57/pfpWjPj0zJ7Scpx/tatPPfOYz7YMf/GBqH3wvot2hsSBUl9Dy1NBq1tGpTYe5xbtFBMGw+VrUZnPtMj0emhsHJbTQ5pbWUj+hZTNn0BDq4zSMRbQz7qnXoMGBy8CBk3N5jkGY0YlDI5DxfWI3vopd1Com0ZXvsZNLw7RQja5CDbyKIwpfFxOYfXnEZLDxnZjcVv5iR7bxPmNNcXuKYsHK8oRAsTbkjI6TMYSAzYXmY/VDP/RDq9tvvz3jHT3ykY9chbYiIzLHMUIlk5+x40vcmdiZrb7t274tPZpiQlqJjxRCxSqOyFax+J0BrmNIKo8i6fOwWkLqGYv9KibTNEitd/BHfkXSj8myfibib6in1zwSh8nfNu8bZWRQ+PrXv34VKvxVCB0Zh0kMpyktrSfehaCxfj2E3Yx0LX1Gi/5CKFrfF4cpjh3zt3KGtmIV2pEEBPSOPhZBKxfzeZ1wfOF9FIvMKo7e1pdjAc8I3y6EwJT9gXeaqOJF6hparvq58xPycghq62f8rj68q9+ERmFR3tN+vc7ooS9z96fPb/p9nn4016Yifovn1cMg4K1xFALkujieMUaQPuS7vlMUmpdsy6VttqtdKs36XDoOlNE8NSUG+7GRSaeBumfc/d2/+3dzTqlr43Nw4HrmwEkJLWEnkoJIHL+sAxKaRCwGodFItNnYJedCo1FMGPsKLRbK2JnmQhNHPVe0rUU8NCIZ1PCKm3HBxBu2K+tbJhEL4mtf+9oM+re+EV9qoechYJGPnV0+Y6LhsTIlAQxDpZxukB/+8IdXPKdCe7GKneIqNESZt3d7Uh5CUpGyTZ+pe9NPQosFPAyd14B99Yx0i3yfetbE0cfK3xLi9hsasxTILLC8w0IbtIqjjitel6b8pnWY1lN5+nao8uBFfe/rUBnFbnYVEbYzLpQ2uOGGG1ahCVvFUUA+sjT/Ss9n8b/PT/lLKC1hLuwVzgha3tWHl5D0+vS9U/nu6jff933fl8nP5S3tnp/TMs3dnz7vN0G1J2kc2o92tak8pCt9f0X1u/jv+rSOlW69U5/1zhzfdrVLpVWfS8eBzdgmqvpMeei3sTxocOAycODsCvgw15gQYXdEcCgy8cHUEAU4VOSrMDatWwd9igf0pje9aRVnwCkM9RMAF0U74VDr5+5lSQaeteMF3W+njiyM3KrjiCV/h21FaokIXIQwi2Xdywce+mcR5yLLHTfsVFblMhlHRCm02BHSUrheOzHanNpx92lt+26SLlIW5aBpgFODx0iohDj6qcfO9Wnyj/P5dO2kJZOnNo3jtPWi22dgEV9ST8JiX0ZuoXaiImvrJ8Io0DIU0YQQLGlACIRxlJPCi/v6VxwHZnmW5l/p+qQBUS/5EchQ2Dql9sZ37U9zZzH64R/+YZeS8L1fZOv6vp+7+o3yXM28q6w1jmqxd522Qjsdg3a1KU2DyOn6AK1XbUbiSCm1k0984hP3LsKx2qzG277jYFOBjQtClzmA1hkZS2AMlHfQ4MBl4MDXtyUnUFuLpqOUsKlIbAO7B/gZtCxhVHeUEkLSDWPc1GCEDUNOchIOg9kMekgbErYS64lvLtOwB0khxzvSMDnFWXcecYXx3fp1i4fJxgIT9izr6/0Xxz9h65F1J4hQiQPBI8hRYxNkCEOOGSwGYUeQWpgw9uuT2fnd7t9EF+ft+VwYpWa5HZ24ZqJ3bAJf4hhkUbagqYtFBX8IhtrYMdSUPL+knuoAgNDRlnLTlBAWw5AxhQh4O2H4uPrkJz+Zu9Dw9FiF7cKKNg+F90s+T0AjsIT9Q/J0af59uQmusISEmAi7kzxeULYSvgk1sHEccRLctK3n9GnYQOelXf3G8cjVzLvKTtvoj3YwvG5SoBT1fFMb1zv7fOLhtjY1NmwEaDO1JeE1XM5zbBAevbcvHaPNaGH8hQF8Cqf7jINN5bXBgCtl/H/iE5/IsfRrv/Zrq7CBO6iOm/IY1wYHTp4DoWI+KeJmyDg0dq7pOsp9kbcMo7ZjUSwajQcP99+YVNJ92SdjzAAE25pNGRsyju2JlT8vgVjw0gU4dutpJMqwrki9uDnLg1FoUW/wyFC36q7+ysQFk5cACkEljfBikk63ZfdDu5NeQO4zxP32b//2tQu0a1MK4SENb73L2DkWlXS9ZZAYu7j8Y1TKQwWFoJUGlr2XCwPY2L2u8UIYHjN4fPe73z3NLn8/8MADadgrT+3JSJY7MsPNTTRXT2Vi/MwbBK+VW1p9u/AmYewszxDU1l4j0mYQy51UWfCZ8aVnGUCiTfkrM8Pevk37ssdC2WJxzPyUJ3b/Z1yeYQLJp3jgmRBk02W+T6e+9/2CwSdPnt7NGCyAMqG5fjOX96Z+3ee/6X6Vs//kccc7B1+1y4tf/OLsj+U9pI3O04+2tak+jHi+6YchHCSf5VdGtrEByv7CaLXIuA37tKZ/FvH80y5ojm9z7SINbu7amiG2/hmCx7oPTMeBvsV7KI6kvJpkripDXBf0AeWrfq0fx3HnGUP6r705/g8OXJ8c+AbVOkXJimEk9T+j197w9ZhlteO146ZdYBcgHzvtQ4hWCDw+e5gQHHLXeUg63lGe8BTII47ARLnCDsDukXGhnaW89i0zzYSjCWr0Mly0G5QmTQRtVCw8hxZ/43t239J3jMKwuI4TNj780MVt9ZQOzYYo344GaKNom+y4p8TmyREaewIGjkX615fDiJoWa1v/qvwdGTH6pclxrBQeQZXMmU/aH9oVdWWHVTYt/UP6Wwh5eUxl57xv2/VpTb/P9ZurmXeVhTYNDx4ThtvG1NUgY4OGTN83BnrSRsahsa1P1DFq/8y+38/DN+Uw1vQN9nQhEO89DjaVl2ZQezsW6/v1pmfHtcGB64kDJyu0XE9MHnU5Lgd6oaW3EdmUi+MYR3eO5w49irHgsFfi9cUexhHUoMGBwYHBgcGBa8+BkzLEvfbVHzlezxzgJcbOxO7fzv9Qog1hQ8CYt4yVD01rvDc4MDgwODA4cDgHhqblcN6NN0+cA44XGak6Att2BHTiVRjFGxwYHBgcGBzoODCElo4Z4+vgwODA4MDgwODA4MDpcuAwq9PTrc8o2eDA4MDgwODA4MDgwHXKgZOyaeF1AUith5AvvoOmhylyLOJxEsH0EqUWpgNPB3gWgN0Ak10rCnfQxFkQtuB6oIjLlB4b4U59PVRn1GFwYHBgcGBw4IQ4cFJCCxdT8Wm4ovbEe0McmWMJLQDabrnlloR7B6LG9ZSbJO+SwJFItFygXNeCuB8Dw7oeSDsxei0At+uhTqMOgwODA4MDgwOnw4GTt2kR2O5FL3rRyg5eUMLzEsGIRiUAn1ZQUnuMAwizghWC/YZeClNkG8FbCICnMzFyeJdAAD2vh4nFH24K+HV5bCLCjjpsKyOt1SbckkpLHl/96lcTj2UblsWSclR6uz4rHdgsS7VYVT48WILpIn88U+dNPFtShinPqgwwa7bxSEgFUEebBDXYPXisP2yrwzTPXXwc9wYHBgcGBy49B04ZMy9AnVoAMrWIkJyh5Y9R1oCPbwE33iI0wMbk4sioRRyPFnD7V9wP0KxETf3xH//xRNENkLREqHQdSiXky3CPbRGAsEEBRVAwI0hgC2yRdXoRHyXRcQNmPhFCK6w81M6Ao28B+gbwr8UC3172spet0YChYwZIWpOvfKBhBuT9GgE34jK1iCHUnva0pyVi5j/9p/90nWf/BQ8CtK5FXJREhIUSqkwoQKuyjhGksUHGVQ7lwRf576oPFFV53nnnnZkWpNaAVW8RMyXTUWbIoJBIt1EIHi1CGbQADct3vBsC60YkWvzSFngEzVb6kH0h3kK1RXNl2MazXTySLlTeiP+SbR4CSdOG/+2//Te3WggiiYQa8XKyDgEJn6jDhaa7Lc98efwbHBgcGBwYHNjKAbvEkyQL5Cte8YpcoMN19WhljLhDuRiHK+zGNCP4WAotIMmnBM7cAh5RqFOoiThFCWVPSHjSk56Ugor3QYGD9Y9jrhbxiBJaPPBC1skJIRC4IS2CI7YeLt1iHgit7d577813wYQTsN73vvfluxFwMX8La2CBtLASLAguCIy/hTs0U+3BBx9sEUk5r/f/XJMHCH/1AX1OkCgBx2JMUIjjsQx1ELF92k033ZTlVZdd9VH3HnI8AiW2sEVqESulacOIxZTQ8xb7TaTNhTEI7VfyQPgCAojFPwJcXvEKoQWUPyh+9cET8PYEl/e85z35/FwZNvFsjkehrWtPfvKTMySDOn3+859vEfsmBaewx0rBU5gBZYggii2Qe5OnBWG/Kc8rKjcuDA4MDgwODA5cwYGTFVosQOJ02GUfk57//OenJkQMnk1kcX30ox+dGoLp/RJa+jLR2FigImrx+nGxeCLqc4uAcamduO2223JXbtdvoaXZEOvGzrsXWgIMLRf5CICW79EW0GzI14Iex2MZN4g2ouhXf/VXc0H022JISNgkrNTzhIII8ngmVgnhB68RoYXQELZF9UqLoINZR0Kacmyrj/r1QguBR/lLwyBBWpSwT1qn3X8JePYUju6+++71ZXFl8IsmY0oltNBkhTF13paXGD80TmiuDJt4Nsej/397Z9JqWbG04by/wIEOBCciKIIOFNSBIBdUFARF7CfKFWxQVLBBwQYRFRssEAUHKqgDS2dS6qS0oETsJvobBAVHIk6drPs+71exvtzrrL5Ondp1TwScs/deTTZvZkZGRkZG0OYIr0eOHHEe/EMzR2wi+i1CIMJWEJghFCrYnS/15RnP5mcikAgkAonAMAL9BhNbsGlGdGdsCbTKb0uDHQlu2TH2hLhPbJklhG0CdieaSHpf00ToqMDYUvQRtgm1ozJpU1we7G3CbkFwOy4IMW+k+XDkam1xOeYINhe4g8e1fDc2jSbfIs2J7WowBNbEWzRhO1YPJ6pwlKYJccMuREHXNuLXkD4nrfqIuhEXhsjIvBcEHvWJLcpMTJMgbUM5D55bUh/ywC4E42rir0ggcjRlYrD0EQbJtLG219rb2KcQXwjMhoh8wo4ITDHalnbKj88pQ43ZHIwk2BYwoa2CLrvsssIfdSQmDJF4iWYdBL7EOQqq84xr+ZkIJAKJQCIwjsBWCi0YVB4+fLhode2TPVEFreSLtkgcAI9rBLJbKrQwYeLeXTYcDhgYaccnkzr51JN23OOTSRsD2CAmWW3hlOeee66dOONeuI5XpGYHdpOmws8wEWs7IR5rPzl2/fXXX5fPP//cMW4OHTrkyVf2JUUaIufdNTKlPAhJQZSt+0zcY0L+559/LBR0jySTThDfu2nUecytD0EK77//fk/uCGTE/5EWqEgrEVltfJIvfyH8xU1+U/Yh6hoj13WZU4YaszkYRTllE7SjSOALKVKvgyzWD9Bfg+o841p+JgKJQCKQCIwjsJVCC4IDWoUnn3zSk1hUQbYNRUaM8XPVpww2y+uvv+5jzUTirSdIToKwOtb2kFf3czLgWbQ22g5yUD3e0RZF4Vg1R6khGfYW2XFY4GKCRWCJe37g2D8mc9m52FeM7FQK5eFItrZYLLTI1sQrea7HaRa0OUNaozptvpM3+aL1QIsT2gki5qI9mEtD9UGrEsTkLXuSgoCDdoy8ua9ttA0hK57nk/oxmaOtAC+Id2QrYwx9oeef7GyMOZo3sKB+CIBryjAHo7POOsuCLYJvtCN5HjhwoGjrzKe+KEsdzJH7tTDVU428lAgkAolAIjCBwP8vryce3MvbTMSsYnXCZdezPe+884qMca3BeOKJJ6xxIRMmPo5Wow1h60Y2C7Pyln2IhRzeIQ0mShnQFtkvFBlptmmgZWAyRjCRPUt7vf6CoCabj4J2gMlXdjcFJ3hsK7CdgCCDMMTWAxoe2boUtDAy+q2TGf2OrxvKKYPVwrFptjIeeughC0ejL3ZuTtUnNCbUge08cEEglP2Mt+c6yfknAgC4UT8CFPLOwYMH7Xzv+uuv73vF13DQhzDL82wryrjY24prykCCUxghiNEmYPjHH3/4qDVH8n/++WdrlThSz5F5hDXa8ccffyw33njj6ijTgxXPG4lAIpAI7DcEhs1dTt6dV1991YassnE4IYXQROKTMdK0+GiwfGz489JLL22++uqrwTwxiNUq28al9UOc+uG0kCbJRivsRtsAjYSYDQNUjsFeddVVPnHy559/tq/XhrgYsmIEqtW+/7RF02iCbDhFA0lQaTBSlQDjo7bcv+KKKxqt4n0fA89zzz23PQLti51/GLZKI+ATNtJqOB1OIMkfjp+UYOU6xkkXLnI6hnrXx8T76gOutSHu0aNHbeBLOcFF9iXNU0895bQ6xWp/csyd4+O8I/sUH+t+5JFHNgyH42Ft5fj0EIa9EkZdF46BYxArnzl+bKoMfZhNYUTCEqqcpzR1zpf8uQZJ0LQxcNQbnKkTdYP68vSN/JcIJAKJQCIwisDWO5c7kUIkq2BNJNY2sJ2Age1aFT62EHjVxR5GgoPtXNaWHe2HTtLY4BZtU72FRZo4yJPfF9vJkNeaMmM3RBo4RUP7xHbGiSCcp5EP2y7yL7OjLkN5yl+M2wXbotoBYP087XfDDTcUtg0JyQD+tCFtWdPaMkxhhGaHPNEKsj3YxZC+pZNkhe0ktEhr2qmuR35PBBKBRGC/I7CvhZb93vinev1roUVHv0/16mT5E4FEIBFIBCYQ2Eqbloky5+1EIBFIBBKBRCAR2IcIpKZlHzZ6VjkRSAQSgUQgETgVEUhNy6nYalnmRCARSAQSgURgHyKQQss+bPSsciKQCCQCiUAicCoisJVCC47OFLvF3lTfeustn5bZbXDxf/L8888XBb4rF1xwgZ2t4R/k77//3u2sTsn0cGAHPviM2RbCH4siOp+U4nz66afl3nvvtY+bk1IAZXq89VfwRvvkwV/Q/wpxau+nn36yI8YTWSe8aOP1ei+pW7fjbf+xsuPEEaebChQ79tiie/hnwq9U0nYjMNROnLp8+umny0svvWS/YGO1wE+VXDmMPbJr97ZOaCEuzpVXXmmHYsS6UYTcIt8fdrK2W7VmIBEigAkZZ2byHWLX9q+88krBidkS77C7VaZtS4fjvPJZYw+921I2nOERn2iviSPoDEo8ARMT6mTR8dYf5lTH7jpZ9djNfFloyLfRJFM93jwVCNOhRY43nSXvd+t2vO0/lrccYxQ8Y+MMcjcovHlv06JnN+r1v5bGWDuF004cqOKyYogQeOEtu9V3hvKJ61vnxp+jq6eddlqRszO7dcfLKEILv4m/c7yEjxM5K7PvjE8++WTDBwgu82+++eby7LPP2qPpWEOxCkISDVf43XIx6ePng8CLQ+nwPp5ug2h8ND34+wg3/XEvPulkMBj8q3SJMvE+Zer6dolnu3nG9fgkBAHC4hjBPHG3P1Sv7rt475WjtTae0Zx6dtPgN/2Av5pIK3Amjy5RH/KnT/URmNFWQ3jzDunfcccdRZGaB3Gt055Tv6ly1+nF97H6095DdaS9uj5kIk0+pzCqn+V7lH0qzyV9hH6JjyPieA313W45+C0ngi5P372pftrtl900qCeBLoeCp/L8Uuym+ELdH7t162t/ykA9CRQ61MZzygjmb7zxBsktJtKHL+EvKQjsuNZHc8rTfQ++Bs9bM8ZJi/fhV4ERONPf6nhg3TzjN3XhffrB3L45xqfnprekzHN4/5p2wuN6X5w8sKn7Klq6Ls2tZ/e9yd+jrudOws177rnHXl7FLJz7r7/+2sjBWKMBtSulkRv5Roxxw7trnbCclDVaUTdyt19f9nc5PGsUu8heafEQK6di9twrt/Hts3IK10jwaTQJEsXQnmA14dlLKg/J3XyjuD/NNddcY6+vmgj9LuWSIzmnqcHVKLpzo9g2bbp4qlU8Hntf1cBppClqtPrzfTH85plnnmnENJznmWeeaa+36qS+P5Rnm7i+4KWXspA3nmjvvvvu5qKLLmqkHvRjeLvVqqmRgzh7/sXzrMIKDHrfVfwoY0U6eBzmPTzCjtVTMZYaBVZs5IyuLRoY4En4gw8+aPDSS70hDRj3CYVbcJ01YTfaOmrEwH0fL8F4oRWTcnkVObpRWAXfw+OtAhq6jvQt6iL3/75X/5vCtX42vo/VL/qPGEGDF2L6B+Wnz4HvkvrjPfmFF15oFK/J6eCNWRHAG7wzBykydqMI2a6/HPQ1jz32mL0RawXlR8YwijTqz6k8l/YR0v7yyy/dz+jT4MHYY6zTvvQh+oOCiLbFwDsz1xif9AnGMm2sLd6G+k6VYahfthnoC3lrm8TYMsbJ784777Q363huKXZjfKGvPz744IM76lb3f8oBBoos7val/+NNWxNMo1AkLuaSMlJnxqpCm/hdeIY03i3f4qK03o3CUfi+Fnz2fv344483mszbMUb7wHfgX/ASLaAahS2xR+sl5XEm+kedgy/iCfzhhx9utIjw7bH0oj4Ki2Kv2fQvMKJvvf/++w08krbF43jNbyJfPsmH908//XT3TcaaNK4bns7r5/k+xqen0ltT5iketaadxsZkX19lXmDuePTRRw3HVD27mC39zap9q+jIkSONPJo2ikLcaB/Z7tDptHTQ3SDFHfKEoTg/vckpOJ8ZJ0yrS3RIOi4dHvf72mZqbrnllkbRnN1ZaVDFrWkID8AEqW2mRipeCxNvv/22k8OFOxOM4hw1v/zyS6Oox/5TLBvXmVABCEFL6m8wAAAPYElEQVRMQCHQSDvUyPbGTJN0YQwwJwQohDsGIpgxGGW3YOZCOcMVf1+edd0YLIo/1FAGOiDlgtEwqENoUXRtM1GYKcISkzMTL4JLH1EPJuSLL77YzBVGqhg8zoO27aunYiJZQH3nnXfaJBEmwFeBJI35Oeec43tMzpT3vffeaxBsFe/J5fvwww8bxQNqcO3PZINrfSYzmC3lZdKCqV577bVmYgrq6Im+L2TEFK5tIY99oS3H2jH6j7aYLCRpK7TtP9R9Sf0p9xlnnOH+RT+jXxAmAcEWQtjjNwIyk9sXX3zh+jPBILRMYXSsShsfU3ku7SNRXwWZdKgKxjgTJ32Z9o6wGdrSastBu7NgoA68L+2oQ1d8/PHHjdTTzVQZ+vplCPeRCVghDDFhUaaXX37ZgjdhPqCl2E3xhb7++P333++oWx3yg/4Kn2HxQ/vCMwglggCnKPGLywgPuO666yzMU0d4BqEp6nFBaJLAgPFGmAoWBuRPGBBCiNx2220WHBE0KQ8LOPrmb7/9NjomybNL3377rXmIbMnMc2RX5r5Be0y1QdSH/q5tf/NFRZy3IAVfoP/QVxTw1sJ8N2+EX4RAhH14DKFUZGdpXv7RRx91H/fvMT7NRD6V3poyT/Gope2EAMdCbmhM9vVV2lZaQAuqa3DrBXPk4tYJLdpXNeNiQLDiZxCyomSVtxukLaaGVTcMro+YAOjI5NklJh0EFgZvEJMgkyqrEBqUgSDDwLjd0JEZ6LGCgRkw2TDBBdGZtW+4EV8HoUCu3/0IMX8QABDogmAUxNhBgEDAYUAF0XEQeGSv40t9ecazfDLpM6HDDILovOCA0EJ6t99+u8vI4AvSVp6FuPhdf8bkwMokaKqe5MNgYeKlvRnErNgQoMC2ZtoItOD42WefuXzEZUJTQb5MYKyOYPxBaDkYjGg5YuAh9EWMonguPmXHMolrPBufU/Wj/8AEX3zxxXilgTEzSSPULak/Ag/1pS5BTLIIaxDCJ32GfhKkgJVmujDsKYzinfpzLM81fYSxzkqw1igiZCJwg8eU0ELZZCTYXHLJJdYUzilDX7+s60gaCEIsCkJrB8YsTmLCXood74/xhaH+WNeNMtb9H00IOLFwCmJMoE1AaFlaxpgw0UBCc4QWNLssRIK0rd72P7BjoUWsMWhpeXiHmGNdXo1WkrJNpRf1+bc0s9GO9Ck0P7wbhJClAKfxs/1EMwZfJ9ZbEMIn/Ig0+2iMTzMOp9JbWuY5PAqhZUk7TY3Jvr7KmAmhZQ1ufViOXdtpBDC5oXTiHhAgReq/gtHbDz/8UMSAi1RVRStzx3fRJL1hSCiBptx3332LCoTtgjqfo+/2vaiO47069i/7iL1jMa/2lhiHozxrReZ95auvvtr2N0ROJlo117UqKAps2L6DHYsmXP8mPwk+BQNkrYzbZygj++mQBKmiLQxHEI4HpBYu/GkidIwejPaIohzEu1r1x0/bzkSe7cVjXzRp2DZAK7f2VsTL4QJpEYFawtGG3QTlHYunw/4vsYCgOfUkrZtuusl9QEKTyywtiaNug3tNWi0ZD2yQMI6VRqGIoTi+kTRMtlWSVqZ9BSx4jnSDiGk0ZMui7bJZuEZac+rHs9RRwlO85nblGu29pP5gz56xBCD3MfoB8ZouvPBCp81JIexDiHkUxCm52MPnPvWfwije5XMszzV9BMNmbf0VbMuwXaNMjBcxrEE7lbo83e9zy1D3y24a2JFIiHfk9LA3o+9JY+g4ZTy/FDven8MXxvpjt5z0Y55nnAYR2yv41tIyRhpLPulLWsS1r/BbE1j7u/6ytDwxnrSYcoy1SEsaan/lZOOc/sszdTvyHZ4dhJ0Lbd4lDP6xeZLQ1N7CnkbbrQWe1EdjfPq7776bnd7cMs/lUUvaae6YpIx9vHMNbn1Yjl3bKqGFAHM0LkcLQzCQFFy0Gi1aPfi4plYsFgaoFI2xVGiBqXN8kYlaK9Ed2CBAaJW/MbHUD8HwMDAM0haKBSoYLUIXRr4HDx608RJChTQHOwzceD8MyhicGOcxOBDOamISg/jkj7y6xLuQVkgtZvEM+ATVeca1+KTsUOTHd8oXggL5ci/KzH2Ia/Hu/13Z/M/9wGpOPXlbe8xmUloV2aCYPPsMwaSdKFJBu18g2B46dKhoa6hgOEYbkTd/QfE78OI6Qu8QxXNTuMb7c+tHObo41hjOrb80KXYJAFNHgJOavkh7V7Sic5EQaMir7jPUF2yguRj54WP/xvJc00e0Kivatit//fVXkdbLRvB33XWXj1jW+dbfqdcQzS0DuES/7KZF+rRH4BT3awa9FLu5fGGsP0Y54pPyIyDUfYfv8XtpGSPdsc+uQEI/BsuaIv/6Gt/XlIf27LZDpDs3vW47kyZ/U0S9+Ovmz2/Geh/FO33px7056c0t81wetaSd5o7Job66pJ59GM65tlVCC+B2GTqVoKH5wzpdatE59Rp8BuaIpbP2JQuahboTYfGNtkLbIpao+xJB+kaiDuKoF9Illv2sdJlAtc1i4YVntN9XtNXUMpN4Lz6R9FkNs8JEWxCnkTh+GPmwmkKQQtCKlTPPHzhwoPxHQhGrKzrRrbfeGsk6PTrQHGK1RDlYDTH5QZyyQkMEIfywOmE1D0bBwNEkdRmZX+j5N6eevIakr+2hgnDKOwgsUec6WSZn2T0UGUgW2dW4XJz+0paJMaFdasGUY8toi7SVUCcz+J1yLMF1bv0GMzx2Y079YVayL7GAxxFm8mayRTsZkwbCTLQhqyKIRQGndCC0PUswmspzTR/hSD1lOHz4cKtl1Lao+zpljLEZzJlrrC4Zg0H1BLGmDJFOfLISRytH346+Dra1hm4pdmv4AuWp6xbli0+0KvCIX6UVisWXtr5a7ezSMka68QkfRvtXT9CMpyVUl39pecifcY/WXds7rYaQfg8fYvG5pP8uKTfPwu8QHsgLfgTRD2TzaB7lC51/Y3waHrU0vU7yO34u5VE7Ejh2oW6nqTE5lEZcX4NbvDv3c96sNje143yO1TMrTRkXFdkjuJNw1Bn1MWrk3SAZlxUZ43pVLjsTT2ykK6O+guqRFb5sVlpG0M2TjovDO7ZzGEyUlZWUDDtbJsPkwDWYCgILTKtmtN00Zbzr/F977TWnyQTL9hKTMAQmMFLuI0jIrsR+Q1CpMzmhjdJ+t7fOECK0z+wVLH5n5hBCGuprGcD6XdSl1BGtE4Tww6DDvw3bUNQFBolWQ8Z2c7LwM1P1jIQQnGAWCCayZ4nLG58IILLhsK8d6oyPABwGghN1kU2LsUegZCVPWZnE8cMzhxDkluI6t35T+U/Vn/ZgQqfOMG4mdYRtJnwmGghhDyEfAZr+hAAcfTXuL8FoKs81fYQ60JcYL5AMzFtHVowftrf4Q4uGsEUdZNDe1pF3ENYR6ElnTRlIoybKhPBPX3/33Xc9jlmIyHaqfQxsl2AXk8JSvlDXrc382Bf4IeNWJzasbcRVBK4awI38lpaxmz7buhy5RZvJ+JJxcpHNRvexwd+xAIVXQWvKQzvAg3B4R73gufBA+sKa9AYL23MDgQkfXvC7b775xmMMDTr9YIiHjPFphMyl6fUUa+PSGh61kYB+dNtpakx23+/+XoNbN43J31qZbRWJMdmoR2Da0lsDt8F6HIPW3SINQp/ewPqefDiSyyeGdpI0B7PRRGqjSazstarz8WNJ1zaI5CWtSmwQyxFayq0VsK3pMSTF6BPCiAwr+99//92/+aeJxkeUMRKTNO4/CSO2yI+HNHBsza9O5ftY9nMN0mTtfKgD+ZKGJj4fMeZ+X55cr0mTe6PBaBx4n6Oy9ZFnTQo2StNK1OmTl+x0Bk91hRElxqJBc+rJsxzj45gz7cFR7KDaEBFDXQxfwZg/yiOmYSt/nuc0hVZ3DXhxj3YKAzwxQJ8eCqPDSL/7OYVr9/mp+tF/KEec6uJ9ToJxDSO+oDn1P3r0qA21o81lb2KjR9IKwvAQDOIZ+qEmOp+c4JkxjCKN+nMqz6V9BHwxFqeNGDMYT2O4yfjQ5OSsOcUnjZf7NWPugQce8H2MiSHKxEkfnpFw0UyVoa9fOqHqH/0DI9jo6xg0y9aqNcTl0SXYTfGFof7YrVvd/ykDJx0loJt/wS842aeJrOUbS8tYnx6SfZCNTuk7jC9OvIE9YxLCwJOTfBLE/Jt/tBn9MAg3DPASDgposbUIM9JgPJEmbRt8kT5MWtBY/cCc+mA4G8TJMwlj7jNxTduR5pXxu/6kbvBRMNBWufsoxsFgM0RjfHoqvTVlnuJRS9uJU3tjY7KvrzKfhiEuuEzVcwi7udf/xYOTks1JeIAVMn8YT6IGOxHECkIAeyWKlofVBau1IUJFzCoeL70YZKnDbBjsxXtoQ1DbsuoPQ9S4N/bJqoQ8cKKERoiVVk2sqHX0ziup888/f8d96iJhyMZ5SLxjdanTje9okVjZsJJh6yxsWuI+n2grKCMrTU0ui/Mgjal68sxcQovAPqxOTRQdjW+3FHhfA8x40c5ohGJba27a8dxSXHezflGGvk/aibbQpGIDZFZJXWKLgz7DtiNauS4txWhOnkv6CG1Dn2NVTxuxxdMltEk8c/bZZxfGaZfQutHveT+2V5eUoZte/A4NFWMRjU+XlmK3hi/01Y1yoMUN/qNJ1UWTkOPtUgzRL7/8cl+bW0ZNmNYggC9aWwh+gAaa/owRN3xpCdG2bGOTDts5lHNueep8aEu2rtEsoF2q+dqa9Oq053xHU05fYIsrtlrH3pvi00vTG8sr7i3lUfEen912QlM3NSbr94e+n4h6ktfWCi1DQJzM67XQUtuPnMwyZd6JQCKw/xAg3hIn54jR9h/ZtbFViCE/Ajw2QksXeggGbF9g88cWTFIisK0IDKsVtrXEWa5EIBFIBPY5AhiUy3u44y6F8TAatTfffHOxwILdIFoEVuscKEhKBLYZgdS0bHPrZNkSgUQgERhBgNNUqPIRXNgyjq2ikVd23GJrjtNSbCnP2f7YkUBeSAT2EIEUWvYQ7MwqEUgEEoFEIBFIBNYjkNtD67HLNxOBRCARSAQSgURgDxFIoWUPwc6sEoFEIBFIBBKBRGA9Aim0rMcu30wEEoFEIBFIBBKBPUQghZY9BDuzSgQSgUQgEUgEEoH1CKTQsh67fDMRSAQSgUQgEUgE9hCBFFr2EOzMKhFIBBKBRCARSATWI5BCy3rs8s1EIBFIBBKBRCAR2EMEUmjZQ7Azq0QgEUgEEoFEIBFYj8B/AYVlUODwr6/qAAAAAElFTkSuQmCC;" vertex="1" parent="1">
          <mxGeometry x="720" y="3.9200000000000017" width="427" height="246.08" as="geometry" />
        </mxCell>
        <mxCell id="T1NgXmLDyarV3CfvbSz1-1" value="" style="shape=umlLifeline;perimeter=lifelinePerimeter;whiteSpace=wrap;html=1;container=1;dropTarget=0;collapsible=0;recursiveResize=0;outlineConnect=0;portConstraint=eastwest;newEdgeStyle={&quot;curved&quot;:0,&quot;rounded&quot;:0};participant=umlActor;" vertex="1" parent="1">
          <mxGeometry x="60" width="20" height="350" as="geometry" />
        </mxCell>
        <mxCell id="T1NgXmLDyarV3CfvbSz1-4" value="" style="html=1;points=[[0,0,0,0,5],[0,1,0,0,-5],[1,0,0,0,5],[1,1,0,0,-5]];perimeter=orthogonalPerimeter;outlineConnect=0;targetShapes=umlLifeline;portConstraint=eastwest;newEdgeStyle={&quot;curved&quot;:0,&quot;rounded&quot;:0};" vertex="1" parent="T1NgXmLDyarV3CfvbSz1-1">
          <mxGeometry x="5" y="70" width="10" height="260" as="geometry" />
        </mxCell>
        <mxCell id="T1NgXmLDyarV3CfvbSz1-2" value="Revisor" style="text;html=1;strokeColor=none;fillColor=none;align=center;verticalAlign=middle;whiteSpace=wrap;rounded=0;" vertex="1" parent="1">
          <mxGeometry x="45" y="50" width="50" height="10" as="geometry" />
        </mxCell>
        <mxCell id="T1NgXmLDyarV3CfvbSz1-3" value="&amp;nbsp;ListaDeArtigos" style="shape=umlLifeline;perimeter=lifelinePerimeter;whiteSpace=wrap;html=1;container=1;dropTarget=0;collapsible=0;recursiveResize=0;outlineConnect=0;portConstraint=eastwest;newEdgeStyle={&quot;curved&quot;:0,&quot;rounded&quot;:0};" vertex="1" parent="1">
          <mxGeometry x="130" y="10" width="100" height="300" as="geometry" />
        </mxCell>
        <mxCell id="T1NgXmLDyarV3CfvbSz1-5" value="" style="html=1;points=[[0,0,0,0,5],[0,1,0,0,-5],[1,0,0,0,5],[1,1,0,0,-5]];perimeter=orthogonalPerimeter;outlineConnect=0;targetShapes=umlLifeline;portConstraint=eastwest;newEdgeStyle={&quot;curved&quot;:0,&quot;rounded&quot;:0};" vertex="1" parent="T1NgXmLDyarV3CfvbSz1-3">
          <mxGeometry x="45" y="70" width="10" height="220" as="geometry" />
        </mxCell>
        <mxCell id="T1NgXmLDyarV3CfvbSz1-7" value="&lt;font style=&quot;font-size: 9px;&quot;&gt;m1: visualizarArtigos()&lt;/font&gt;" style="html=1;verticalAlign=bottom;endArrow=block;curved=0;rounded=0;" edge="1" parent="1">
          <mxGeometry width="80" relative="1" as="geometry">
            <mxPoint x="76" y="80" as="sourcePoint" />
            <mxPoint x="175.5" y="80" as="targetPoint" />
          </mxGeometry>
        </mxCell>
        <mxCell id="T1NgXmLDyarV3CfvbSz1-11" value="Artigo" style="shape=umlLifeline;perimeter=lifelinePerimeter;whiteSpace=wrap;html=1;container=1;dropTarget=0;collapsible=0;recursiveResize=0;outlineConnect=0;portConstraint=eastwest;newEdgeStyle={&quot;curved&quot;:0,&quot;rounded&quot;:0};" vertex="1" parent="1">
          <mxGeometry x="250" y="10" width="100" height="300" as="geometry" />
        </mxCell>
        <mxCell id="T1NgXmLDyarV3CfvbSz1-12" value="" style="html=1;points=[[0,0,0,0,5],[0,1,0,0,-5],[1,0,0,0,5],[1,1,0,0,-5]];perimeter=orthogonalPerimeter;outlineConnect=0;targetShapes=umlLifeline;portConstraint=eastwest;newEdgeStyle={&quot;curved&quot;:0,&quot;rounded&quot;:0};" vertex="1" parent="T1NgXmLDyarV3CfvbSz1-11">
          <mxGeometry x="45" y="70" width="10" height="220" as="geometry" />
        </mxCell>
        <mxCell id="T1NgXmLDyarV3CfvbSz1-13" value="&lt;font style=&quot;font-size: 9px;&quot;&gt;m2: selecionarArtigo()&lt;/font&gt;" style="html=1;verticalAlign=bottom;endArrow=block;curved=0;rounded=0;" edge="1" parent="1" target="T1NgXmLDyarV3CfvbSz1-12">
          <mxGeometry width="80" relative="1" as="geometry">
            <mxPoint x="185.5" y="90" as="sourcePoint" />
            <mxPoint x="285" y="90" as="targetPoint" />
          </mxGeometry>
        </mxCell>
        <mxCell id="T1NgXmLDyarV3CfvbSz1-16" value="" style="html=1;align=left;spacingLeft=2;endArrow=block;rounded=0;edgeStyle=orthogonalEdgeStyle;curved=0;rounded=0;" edge="1" parent="1">
          <mxGeometry relative="1" as="geometry">
            <mxPoint x="306" y="90" as="sourcePoint" />
            <Array as="points">
              <mxPoint x="336" y="90" />
              <mxPoint x="336" y="120" />
            </Array>
            <mxPoint x="311" y="120" as="targetPoint" />
          </mxGeometry>
        </mxCell>
        <mxCell id="T1NgXmLDyarV3CfvbSz1-17" value="&lt;font style=&quot;font-size: 9px;&quot;&gt;m3: revisar()&lt;/font&gt;" style="edgeLabel;html=1;align=center;verticalAlign=middle;resizable=0;points=[];" connectable="0" vertex="1" parent="T1NgXmLDyarV3CfvbSz1-16">
          <mxGeometry x="-0.0335" y="3" relative="1" as="geometry">
            <mxPoint as="offset" />
          </mxGeometry>
        </mxCell>
        <mxCell id="T1NgXmLDyarV3CfvbSz1-18" value="&quot;Artigo aberto para leitura&quot;" style="html=1;verticalAlign=bottom;endArrow=open;dashed=1;endSize=8;curved=0;rounded=0;" edge="1" parent="1">
          <mxGeometry relative="1" as="geometry">
            <mxPoint x="290" y="120" as="sourcePoint" />
            <mxPoint x="80" y="120" as="targetPoint" />
          </mxGeometry>
        </mxCell>
        <mxCell id="T1NgXmLDyarV3CfvbSz1-19" value="alt" style="shape=umlFrame;whiteSpace=wrap;html=1;pointerEvents=0;" vertex="1" parent="1">
          <mxGeometry x="190" y="150" width="250" height="90" as="geometry" />
        </mxCell>
        <mxCell id="T1NgXmLDyarV3CfvbSz1-20" value="" style="endArrow=none;dashed=1;html=1;dashPattern=1 3;strokeWidth=2;rounded=0;entryX=0.991;entryY=0.542;entryDx=0;entryDy=0;entryPerimeter=0;exitX=-0.006;exitY=0.55;exitDx=0;exitDy=0;exitPerimeter=0;" edge="1" parent="1" source="T1NgXmLDyarV3CfvbSz1-19" target="T1NgXmLDyarV3CfvbSz1-19">
          <mxGeometry width="50" height="50" relative="1" as="geometry">
            <mxPoint x="190" y="180" as="sourcePoint" />
            <mxPoint x="390" y="180" as="targetPoint" />
          </mxGeometry>
        </mxCell>
        <mxCell id="T1NgXmLDyarV3CfvbSz1-21" value="&lt;font style=&quot;font-size: 9px;&quot;&gt;aprovado&lt;/font&gt;" style="text;html=1;strokeColor=none;fillColor=none;align=center;verticalAlign=middle;whiteSpace=wrap;rounded=0;" vertex="1" parent="1">
          <mxGeometry x="380" y="145" width="60" height="30" as="geometry" />
        </mxCell>
        <mxCell id="T1NgXmLDyarV3CfvbSz1-22" value="&lt;font style=&quot;font-size: 9px;&quot;&gt;reprovado&lt;/font&gt;" style="text;html=1;strokeColor=none;fillColor=none;align=center;verticalAlign=middle;whiteSpace=wrap;rounded=0;" vertex="1" parent="1">
          <mxGeometry x="385" y="214" width="60" height="30" as="geometry" />
        </mxCell>
        <mxCell id="T1NgXmLDyarV3CfvbSz1-23" value="&lt;font style=&quot;font-size: 9px;&quot;&gt;m4: darParecer()&lt;/font&gt;" style="html=1;verticalAlign=bottom;endArrow=block;curved=0;rounded=0;" edge="1" parent="1" target="T1NgXmLDyarV3CfvbSz1-12">
          <mxGeometry width="80" relative="1" as="geometry">
            <mxPoint x="77" y="144.62" as="sourcePoint" />
            <mxPoint x="186.5" y="144.62" as="targetPoint" />
          </mxGeometry>
        </mxCell>
        <mxCell id="T1NgXmLDyarV3CfvbSz1-28" value=":listaAprovado" style="shape=umlLifeline;perimeter=lifelinePerimeter;whiteSpace=wrap;html=1;container=1;dropTarget=0;collapsible=0;recursiveResize=0;outlineConnect=0;portConstraint=eastwest;newEdgeStyle={&quot;curved&quot;:0,&quot;rounded&quot;:0};" vertex="1" parent="1">
          <mxGeometry x="450" y="154" width="100" height="90" as="geometry" />
        </mxCell>
        <mxCell id="T1NgXmLDyarV3CfvbSz1-30" value="&lt;font style=&quot;font-size: 9px;&quot;&gt;&amp;lt;create &amp;gt;m5: aprovar()&lt;/font&gt;" style="html=1;verticalAlign=bottom;endArrow=block;curved=0;rounded=0;" edge="1" parent="1" source="T1NgXmLDyarV3CfvbSz1-12">
          <mxGeometry width="80" relative="1" as="geometry">
            <mxPoint x="232" y="180" as="sourcePoint" />
            <mxPoint x="450" y="180.38" as="targetPoint" />
          </mxGeometry>
        </mxCell>
        <mxCell id="T1NgXmLDyarV3CfvbSz1-31" value="&lt;font style=&quot;font-size: 9px;&quot;&gt;&amp;lt;create&amp;gt; m6: reprovar()&lt;/font&gt;" style="html=1;verticalAlign=bottom;endArrow=block;curved=0;rounded=0;" edge="1" parent="1" source="T1NgXmLDyarV3CfvbSz1-12">
          <mxGeometry width="80" relative="1" as="geometry">
            <mxPoint x="375" y="214" as="sourcePoint" />
            <mxPoint x="520" y="214.38" as="targetPoint" />
          </mxGeometry>
        </mxCell>
        <mxCell id="T1NgXmLDyarV3CfvbSz1-32" value=":listaReprovados" style="shape=umlLifeline;perimeter=lifelinePerimeter;whiteSpace=wrap;html=1;container=1;dropTarget=0;collapsible=0;recursiveResize=0;outlineConnect=0;portConstraint=eastwest;newEdgeStyle={&quot;curved&quot;:0,&quot;rounded&quot;:0};" vertex="1" parent="1">
          <mxGeometry x="520" y="210" width="100" height="90" as="geometry" />
        </mxCell>
        <mxCell id="T1NgXmLDyarV3CfvbSz1-33" value="Opt" style="shape=umlFrame;whiteSpace=wrap;html=1;pointerEvents=0;width=60;height=20;" vertex="1" parent="1">
          <mxGeometry x="190" y="250" width="250" height="40" as="geometry" />
        </mxCell>
        <mxCell id="T1NgXmLDyarV3CfvbSz1-34" value="&lt;font style=&quot;font-size: 9px;&quot;&gt;m7: comentar()&lt;/font&gt;" style="html=1;verticalAlign=bottom;endArrow=block;curved=0;rounded=0;" edge="1" parent="1">
          <mxGeometry x="-0.4495" width="80" relative="1" as="geometry">
            <mxPoint x="80" y="280" as="sourcePoint" />
            <mxPoint x="298" y="280.38" as="targetPoint" />
            <mxPoint as="offset" />
          </mxGeometry>
        </mxCell>
        <mxCell id="T1NgXmLDyarV3CfvbSz1-35" value="Autor" style="shape=umlLifeline;perimeter=lifelinePerimeter;whiteSpace=wrap;html=1;container=1;dropTarget=0;collapsible=0;recursiveResize=0;outlineConnect=0;portConstraint=eastwest;newEdgeStyle={&quot;curved&quot;:0,&quot;rounded&quot;:0};" vertex="1" parent="1">
          <mxGeometry x="593" y="10" width="100" height="330" as="geometry" />
        </mxCell>
        <mxCell id="T1NgXmLDyarV3CfvbSz1-36" value="" style="html=1;points=[[0,0,0,0,5],[0,1,0,0,-5],[1,0,0,0,5],[1,1,0,0,-5]];perimeter=orthogonalPerimeter;outlineConnect=0;targetShapes=umlLifeline;portConstraint=eastwest;newEdgeStyle={&quot;curved&quot;:0,&quot;rounded&quot;:0};" vertex="1" parent="T1NgXmLDyarV3CfvbSz1-35">
          <mxGeometry x="45" y="70" width="10" height="240" as="geometry" />
        </mxCell>
        <mxCell id="T1NgXmLDyarV3CfvbSz1-37" value="&lt;font style=&quot;font-size: 9px;&quot;&gt;m8: enviarParece()&lt;/font&gt;" style="html=1;verticalAlign=bottom;endArrow=block;curved=0;rounded=0;" edge="1" parent="1" target="T1NgXmLDyarV3CfvbSz1-35">
          <mxGeometry x="-0.4495" width="80" relative="1" as="geometry">
            <mxPoint x="76" y="315" as="sourcePoint" />
            <mxPoint x="294" y="315.38" as="targetPoint" />
            <mxPoint as="offset" />
          </mxGeometry>
        </mxCell>
      </root>
    </mxGraphModel>
  </diagram>
</mxfile>
